<svg xmlns="http://www.w3.org/2000/svg" width="35" height="35" viewBox="0 0 35 35"><path d="M17.552,7.786A9.627,9.627,0,0,0,9.635,22.872l-.971,3.547,3.637-.954A9.616,9.616,0,1,0,17.552,7.786ZM23.2,21.528a2.976,2.976,0,0,1-1.95,1.374,3.977,3.977,0,0,1-1.82-.114,16.388,16.388,0,0,1-1.646-.608,12.881,12.881,0,0,1-4.935-4.362,5.617,5.617,0,0,1-1.18-2.988,3.247,3.247,0,0,1,1.011-2.411,1.058,1.058,0,0,1,.77-.365l.554.01c.178.009.416-.067.65.5.241.579.818,2,.891,2.145a.53.53,0,0,1,.023.506,1.954,1.954,0,0,1-.289.481l-.433.506c-.144.144-.295.3-.127.589a8.723,8.723,0,0,0,1.607,2,7.886,7.886,0,0,0,2.323,1.434c.289.144.458.121.626-.073s.722-.843.914-1.133.385-.241.65-.144,1.686.795,1.975.941.481.217.554.337a2.44,2.44,0,0,1-.169,1.378ZM27.708,0H7.292A7.292,7.292,0,0,0,0,7.292V27.708A7.292,7.292,0,0,0,7.292,35H27.708A7.292,7.292,0,0,0,35,27.708V7.292A7.292,7.292,0,0,0,27.708,0ZM17.548,28.965a11.556,11.556,0,0,1-5.53-1.407L5.889,29.167l1.641-5.991a11.563,11.563,0,1,1,10.019,5.79Z" fill="#fff"/></svg>