<svg xmlns="http://www.w3.org/2000/svg" width="34.932" height="32.716" viewBox="0 0 34.932 32.716"><g transform="translate(-269.972 -683)"><g transform="translate(269.972 670.842)"><g transform="translate(14.917 17.303)"><path d="M169.35,73.612a.809.809,0,0,0-.562-.175h-3.063l2.881-3.216.27-.3.139-.175a.969.969,0,0,0,.117-.219.729.729,0,0,0,.051-.263.547.547,0,0,0-.27-.525,1.626,1.626,0,0,0-.766-.146h-3.581a.788.788,0,0,0-.532.16.54.54,0,0,0-.19.43q0,.372.248.452a2.341,2.341,0,0,0,.729.088h2.334q-.146.2-.379.481l-.6.671-.81.875-.941,1.043q-.489.547-.642.729a.686.686,0,0,0,.066.941.992.992,0,0,0,.671.2h4.259a.831.831,0,0,0,.569-.168.555.555,0,0,0,.19-.43A.583.583,0,0,0,169.35,73.612Z" transform="translate(-163.629 -68.592)" fill="#fff"/></g><g transform="translate(22.564 22.007)"><g transform="translate(0 0)"><path d="M252.044,124.239a.642.642,0,0,0-.452-.139h-2.45l2.3-2.567.219-.241.139-.168a.766.766,0,0,0,.095-.175.584.584,0,0,0,.044-.211.438.438,0,0,0-.211-.423,1.3,1.3,0,0,0-.613-.117h-2.888a.634.634,0,0,0-.423.131.43.43,0,0,0-.153.343q0,.292.2.365a1.862,1.862,0,0,0,.583.066h1.867a4.325,4.325,0,0,1-.306.387l-.481.54-.627.729-.729.831q-.394.438-.518.6a.547.547,0,0,0,.051.729.787.787,0,0,0,.532.153H251.6a.664.664,0,0,0,.452-.131.445.445,0,0,0,.146-.343A.467.467,0,0,0,252.044,124.239Z" transform="translate(-247.516 -120.197)" fill="#fff"/></g></g><g transform="translate(29.014 16.894)"><g transform="translate(0 0)"><path d="M324,69.169a.809.809,0,0,0-.562-.175h-3.085l2.881-3.216.27-.3.175-.211a.969.969,0,0,0,.117-.219.73.73,0,0,0,.051-.263.547.547,0,0,0-.27-.525,1.628,1.628,0,0,0-.766-.146h-3.617a.788.788,0,0,0-.532.16.54.54,0,0,0-.19.43q0,.372.248.452a2.341,2.341,0,0,0,.729.088h2.334q-.146.2-.379.481l-.605.686-.788.875-.941,1.043q-.489.547-.642.729a.685.685,0,0,0,.066.941.992.992,0,0,0,.671.2h4.252a.832.832,0,0,0,.583-.146.555.555,0,0,0,.19-.43A.583.583,0,0,0,324,69.169Z" transform="translate(-318.269 -64.112)" fill="#fff"/></g></g><g transform="translate(0 12.158)"><g transform="translate(0 0)"><path d="M32.226,34.232a.729.729,0,0,0-.8-.168A15.49,15.49,0,0,1,11.463,13.2a.729.729,0,0,0-.941-.985A16.963,16.963,0,1,0,32.358,35.041.729.729,0,0,0,32.226,34.232Zm-15.25,9.189A15.512,15.512,0,0,1,9.428,14.359a16.721,16.721,0,0,0-.875,5.36A16.971,16.971,0,0,0,30.17,36.041,15.571,15.571,0,0,1,16.977,43.421Z" transform="translate(0 -12.158)" fill="#fff"/></g></g></g></g></svg>