<?xml version="1.0" standalone="no"?>
<!DOCTYPE svg PUBLIC "-//W3C//DTD SVG 20010904//EN"
 "http://www.w3.org/TR/2001/REC-SVG-20010904/DTD/svg10.dtd">
<svg version="1.0" xmlns="http://www.w3.org/2000/svg" viewBox="0 0 774.000000 1080.000000"
 preserveAspectRatio="xMidYMid meet">

<g transform="translate(0.000000,1080.000000) scale(0.100000,-0.100000)"
fill="#000000" stroke="none">
<path d="M4720 10784 c-88 -19 -213 -82 -281 -143 l-56 -50 -59 9 c-81 14
-137 12 -219 -5 -146 -31 -298 -130 -380 -250 l-39 -56 -40 77 c-46 89 -143
192 -227 242 -198 117 -440 117 -638 0 -65 -39 -178 -149 -206 -201 -14 -26
-24 -35 -35 -31 -8 4 -62 9 -120 11 -187 9 -331 -46 -461 -176 -126 -127 -181
-255 -183 -428 l-1 -103 -70 0 c-150 0 -291 -59 -408 -169 -168 -158 -230
-382 -172 -613 l7 -28 -62 0 c-135 0 -280 -63 -393 -169 -196 -185 -246 -454
-132 -723 5 -13 -2 -19 -37 -28 -188 -50 -371 -240 -422 -436 -20 -79 -21
-232 -1 -309 34 -134 126 -270 240 -354 18 -13 25 -24 18 -27 -43 -18 -161
-114 -199 -162 -136 -172 -177 -387 -110 -584 37 -110 72 -165 158 -251 l79
-78 -37 -37 c-73 -74 -142 -210 -159 -312 -20 -119 -1 -268 49 -375 34 -74
108 -168 168 -216 l53 -41 12 -102 c31 -262 125 -489 280 -678 161 -198 390
-315 558 -287 71 11 75 11 75 -9 0 -30 96 -360 154 -529 302 -876 822 -1616
1414 -2014 461 -309 945 -413 1424 -304 142 32 430 136 568 205 408 205 758
562 1053 1077 237 413 390 744 514 1108 52 156 133 435 133 462 0 15 5 15 75
4 274 -46 624 255 769 658 59 164 70 237 70 476 0 139 -4 236 -12 265 -11 43
-10 48 23 115 47 95 65 172 65 280 0 109 -18 186 -67 283 -20 40 -34 74 -32
75 2 2 22 14 44 28 127 82 226 229 260 387 19 93 19 153 -1 250 -24 121 -75
213 -168 307 l-79 80 -2 71 c-3 97 -20 164 -67 264 -33 70 -55 99 -125 168
l-84 83 17 70 c13 52 16 95 11 172 -7 148 -53 264 -145 367 l-39 44 23 52 c27
62 54 185 54 249 0 76 -29 195 -67 275 -75 157 -257 298 -427 330 l-66 12 0
82 c-1 250 -127 456 -347 565 -95 47 -180 64 -298 57 -55 -3 -114 -8 -131 -11
-31 -7 -31 -7 -38 45 -18 134 -103 273 -233 380 -40 33 -44 40 -58 115 -63
338 -399 562 -735 489z m-610 -2797 c73 -115 190 -206 325 -254 71 -24 94 -27
200 -27 98 0 132 4 185 23 57 20 130 57 182 94 14 9 20 8 30 -4 30 -36 109
-90 183 -125 98 -46 165 -98 165 -128 0 -42 31 -142 66 -215 44 -88 150 -201
235 -249 l56 -32 7 -86 c7 -94 41 -210 83 -282 36 -60 134 -164 188 -198 l43
-28 -33 -60 c-53 -98 -76 -187 -76 -296 0 -117 12 -171 63 -278 44 -94 136
-197 224 -251 l51 -31 5 -98 c8 -152 60 -277 164 -392 l36 -40 -11 -117 c-5
-65 -13 -187 -16 -271 -6 -167 -18 -251 -66 -447 -52 -219 -50 -315 9 -394
l25 -34 -53 -106 c-160 -323 -387 -666 -607 -922 -92 -106 -288 -303 -377
-379 l-49 -42 -38 117 c-181 551 -746 925 -1399 927 -309 1 -575 -69 -825
-217 -312 -184 -551 -497 -620 -813 -4 -18 -11 -32 -15 -30 -29 11 -227 188
-345 310 -211 216 -372 419 -535 678 -120 190 -157 266 -183 375 l-24 100 27
35 c61 78 64 184 10 399 -46 185 -59 283 -69 526 -6 121 -18 261 -26 310 -11
62 -14 114 -10 167 l7 78 52 31 c76 47 166 144 209 226 114 217 99 461 -39
656 -19 26 -34 49 -34 52 0 3 26 34 58 68 98 105 144 201 165 345 9 60 21 100
39 128 25 39 31 42 94 54 103 20 228 87 305 163 116 116 175 246 185 409 3 51
7 98 9 104 2 8 20 4 53 -12 110 -53 287 -70 407 -39 174 44 326 168 405 327
l42 86 57 -20 c80 -29 254 -36 341 -14 110 28 205 82 284 161 l71 70 38 -21
c21 -11 51 -42 67 -67z m3227 -3181 c-5 -223 -18 -295 -81 -450 -115 -285
-338 -508 -547 -547 -55 -10 -73 -9 -121 5 -75 21 -83 32 -69 96 15 72 13 82
-8 32 -9 -24 -21 -43 -27 -43 -24 2 -14 122 25 292 46 198 57 283 71 563 5
109 11 200 13 202 1 2 25 -8 52 -21 82 -40 183 -58 293 -53 123 6 212 35 312
103 59 40 77 47 84 37 4 -8 6 -105 3 -216z m-6108 -161 c10 -222 16 -261 81
-535 23 -101 26 -190 5 -229 -16 -31 -78 -66 -136 -76 -97 -18 -247 48 -366
159 -180 167 -298 392 -338 641 -9 53 -15 99 -13 100 2 2 35 -5 73 -15 136
-36 290 -19 425 46 58 28 95 57 160 123 l85 86 7 -40 c4 -22 12 -139 17 -260z
m2921 -1602 c434 -69 826 -358 1010 -744 l40 -84 -30 -26 c-46 -39 -226 -144
-342 -199 -292 -137 -581 -202 -908 -201 -431 0 -823 108 -1197 329 l-123 72
21 53 c82 209 278 445 482 581 307 204 669 280 1047 219z"/>
<path d="M2153 6005 c-122 -33 -230 -121 -279 -228 l-29 -62 0 -495 c0 -446 2
-500 18 -545 38 -109 142 -205 267 -248 63 -21 79 -22 595 -25 368 -2 551 1
598 9 139 23 269 115 325 229 l27 55 5 335 5 335 215 0 215 0 5 -335 5 -335
28 -56 c55 -113 189 -207 327 -228 39 -7 268 -11 565 -11 544 0 586 4 695 57
72 35 154 118 188 190 l27 58 0 505 0 505 -31 65 c-36 74 -103 145 -173 183
-101 56 -119 57 -708 57 -363 0 -559 -4 -595 -11 -180 -39 -315 -182 -326
-346 l-5 -73 -178 -1 c-99 0 -196 -1 -216 -2 l-38 0 -6 74 c-8 89 -35 151 -95
218 -50 55 -153 113 -232 130 -85 18 -1132 14 -1199 -4z m1173 -16 c190 -35
322 -173 332 -350 l5 -79 237 0 237 0 5 78 c6 97 31 155 99 227 60 64 143 108
233 124 76 14 1037 15 1121 1 141 -23 272 -122 316 -239 19 -52 20 -73 17
-555 l-3 -501 -27 -50 c-48 -93 -152 -172 -263 -201 -79 -22 -1118 -20 -1200
2 -118 30 -208 101 -257 202 l-33 67 -3 337 -3 338 -239 0 -239 0 -3 -342 -3
-343 -34 -63 c-54 -99 -142 -167 -256 -196 -50 -14 -144 -16 -606 -16 -508 0
-552 1 -608 19 -114 35 -201 105 -253 203 l-23 43 0 515 0 515 25 50 c49 100
172 191 291 214 66 13 1063 13 1135 0z"/>
<path d="M2226 5919 c-60 -14 -153 -68 -192 -112 -20 -22 -48 -65 -63 -96
l-26 -56 0 -445 0 -445 28 -56 c50 -104 163 -185 287 -209 30 -6 242 -10 504
-10 481 0 538 5 627 50 68 35 143 117 168 184 21 57 22 67 19 505 -3 441 -3
447 -26 491 -45 91 -127 158 -230 190 -61 19 -92 20 -561 19 -273 -1 -513 -5
-535 -10z m1046 -20 c117 -25 209 -92 255 -187 l28 -57 0 -445 0 -445 -27 -50
c-36 -68 -101 -128 -173 -162 l-60 -28 -510 -3 c-488 -3 -512 -2 -575 18 -112
35 -203 121 -230 220 -6 20 -10 211 -10 456 0 482 0 479 82 569 53 58 126 100
198 114 69 14 958 13 1022 0z"/>
<path d="M4477 5911 c-101 -33 -178 -96 -225 -186 l-27 -50 -3 -446 c-3 -427
-2 -449 17 -500 27 -70 71 -123 143 -170 102 -65 135 -69 651 -69 263 0 477 4
507 10 124 24 237 105 287 209 l28 56 0 445 0 445 -33 67 c-39 79 -92 129
-181 172 l-66 31 -520 2 c-485 2 -524 1 -578 -16z m1138 -30 c42 -17 78 -42
121 -85 96 -96 94 -85 94 -580 0 -256 -4 -435 -10 -458 -29 -102 -143 -203
-256 -227 -43 -9 -191 -11 -559 -9 l-500 3 -60 28 c-72 34 -137 94 -173 162
l-27 50 0 445 0 445 28 57 c44 90 131 156 242 184 37 10 174 12 545 11 l495
-2 60 -24z"/>
<path d="M3972 2515 c-266 -51 -486 -95 -489 -99 -4 -3 -4 -8 -1 -11 4 -4 878
156 986 180 26 6 30 26 5 24 -10 -1 -235 -43 -501 -94z"/>
</g>
</svg>
