<?xml version="1.0" encoding="UTF-8"?>
<!DOCTYPE svg  PUBLIC '-//W3C//DTD SVG 20010904//EN'  'http://www.w3.org/TR/2001/REC-SVG-20010904/DTD/svg10.dtd'>
<svg class="svg" fill="#ffffff" version="1.0" viewBox="0 0 1694.000000 514.000000" xmlns="http://www.w3.org/2000/svg">
<g transform="translate(0 514) scale(.1 -.1)">
<path d="m3950 4970c0-36-3-40-24-40-60 0-76-27-18-32l37-3 3-53c2-30-8-117-23-195-38-211-33-197-60-197-13 0-27-4-30-10-4-6 5-10 19-10 16 0 26-6 26-15s-9-15-25-15c-14 0-25-4-25-10 0-5 9-10 20-10 26 0 26-12-8-195l-28-150-37-3c-48-4-48-22-1-22 45 0 42-24-4-28-41-4-42-22-1-22 28 0 31-3 25-22-3-13-13-69-23-126-16-100-17-103-45-109-16-3-28-12-29-22-1-9-1-87 0-175v-158l62-144c40-93 65-140 70-132 5 7 34 73 65 146 31 72 60 132 64 132s33-61 66-136c32-75 63-137 67-138 5 0 35 59 66 132 32 73 61 135 64 139 4 3 7-57 7-135 0-111-3-142-13-142-24 0-57-45-57-77 0-45 9-62 41-79 25-13 29-20 29-59 0-25-4-45-10-45-5 0-19-9-30-20-19-19-20-33-20-430v-411l25-25c15-15 25-36 25-54v-30h-265-265v26c0 16 12 37 30 54l30 28v411 410l-30 23c-25 18-30 29-30 65 0 37 4 45 24 53 31 11 46 39 46 82 0 36-30 78-55 78-12 0-15 21-15 120v120h-95-95v-813-813l-65-64c-36-35-65-60-65-55-1 6 0 170 0 365 1 195-2 536-6 758l-7 402h-79-78v125 125h-65-65v150 150h-175-175l-2-357-3-358-62-3-63-3v-44-45h-105-105v-115-115h-33-34l-6-367c-4-203-7-439-7-525v-158h-85-85v-190-190h-100-100v-40-40h-175-175v99 100l-52 3-53 3-2 445-2 445-148 5-148 5v30 30l-67 3-68 3v-546-545h-25c-25 0-25-1-25-80v-80h-50-50v-80-80h-60-60v-110-110h-50-50v-135-135h-70-70v-147-148l-20 25c-11 14-43 70-70 125-43 85-51 111-56 175l-5 75 30-35c19-20 31-28 31-20 1 34 40-34 40-69 0-27 3-32 10-21 5 8 10 38 10 67 0 45-5 58-32 89-32 36-32 37-6 20 16-10 34-16 42-13 14 6 44-22 64-58 10-17 11-15 12 20 0 22-7 50-15 62-14 20-13 22 2 25s13 7-9 22c-40 26-99 31-136 12-18-9-32-12-32-7 0 13 46 41 80 47 36 8 31 20-11 29-23 5-28 9-18 16 10 6 6 9-13 9s-35-10-54-34l-27-34-24 29c-27 32-39 34-96 18-49-13-47-29 4-29 32 0 40-3 35-15-3-9 0-15 9-15 8 0 15-4 15-9s-17-8-39-7c-48 1-88-20-107-56-17-33-18-41-2-32 8 5 10-5 6-37-4-24-3-53 1-64 7-17 10-14 20 18 7 21 16 36 19 33 3-4 18 6 34 21 36 34 36 25-1-29-34-49-48-88-32-88 6 0 11 5 11 10 0 25 18 6 28-29 7-21 21-50 33-65 24-31 45-36 29-7-13 26-13 61 1 61 7 0 9 11 6 26-3 16 0 28 9 31 8 3 17 23 20 44 10 59 20 47 28-31 3-39 12-87 20-108 17-45 93-221 105-242 7-12 39-16 170-18 105-2 161 1 161 8 0 6 35 10 90 10 53 0 90-4 90-10s28-10 65-10c51 0 65 3 65 15 0 13 21 15 130 15s130-2 130-15c0-14 112-15 988-15l987 1 62 61c34 34 65 59 68 56s-22-31-56-62c-55-50-60-56-38-56 15 0 37 12 54 30 16 17 33 30 39 30 5 0-3-13-19-30l-29-30h3381 3381l4 153c4 143 6 157 31 210 31 62 117 147 149 147 45 0 117-69 156-150 24-51 27-67 30-208l4-152h2649c2348 0 2649 2 2649 15 0 11 12 15 50 15s50-4 50-15c0-13 27-15 183-15h182v128c1 159 21 251 76 351 35 62 43 71 51 57 6-10 7-31 4-47-3-19-2-28 4-24 19 12 10-62-10-88-11-14-20-28-20-32 0-3-12-17-27-31-21-19-23-23-7-15 13 6 32 7 50 1l29-8-27-1c-34-1-59-11-53-21 3-4-2-25-11-45-19-47-13-53 22-20 15 14 33 24 41 21 7-3 15-1 18 4 4 6 11 10 17 10s-1-15-16-32c-21-26-106-190-106-204 0-2 9-4 19-4 15 0 23 13 36 57 21 73 46 122 78 151l24 23 6-28c3-16 0-37-9-50-21-33 0-28 29 7 34 40 51 39 43-2l-6-33 25 30c32 38 31 60-1 90-28 26-26 32 7 15 16-9 19-7 19 14 0 25-30 44-50 31-6-3-10 4-10 18 0 25-28 57-49 57-9 0-8-5 3-15 8-9 13-22 10-30-4-11-9-10-25 6-10 10-27 19-36 19-14 0-14 3 4 22 38 42 54 86 47 125-5 26-4 34 5 29 6-4 11-16 11-27 0-10 6-19 14-19 18 0 27-39 20-82l-6-33 26 28c18 19 26 39 26 64 0 31 2 34 16 22s14-9 0 26c-20 47-49 72-93 81-18 3-33 10-33 15 0 14 58 10 90-6 36-18 38-8 8 31-19 24-20 27-4 21 12-5 16-3 14 5-6 17-71 22-96 9-18-10-20-6-27 34-5 40-11 47-42 60-52 22-71 19-40-5 18-15 25-29 25-56v-36l-27 26c-16 15-43 29-62 32-42 7-91-10-84-29 3-7-6-24-20-37l-25-23v286 286l-32 3c-28 2-34 8-36 31-3 23-8 27-33 27s-29 4-29 29c0 21 6 30 21 34 42 11 13 32-52 38-54 4-89 17-219 82l-155 77h-112-113v-425-425h-25c-23 0-25-4-26-47-1-30-4-37-6-20-6 37-43 39-43 2 0-16-6-25-15-25s-15 9-15 25-6 25-15 25-15-9-15-25c0-25-1-25-88-25h-88l3 70c2 57 0 70-12 70-9 0-15-9-15-25 0-22-4-25-35-25h-35v710 711l102 257c56 141 152 383 213 537l111 280-509 3c-281 1-512 1-514-1s55-150 125-328c71-178 165-418 210-532l82-208v-760-759h-65-65v69c0 58-3 70-17 74-17 4-17 5 0 6 12 1 17 10 17 30s-6 31-17 34c-17 4-17 5 0 6 20 1 25 56 5 64-10 4-10 6 0 6 6 1 12 14 12 30s-6 32-12 34c-10 4-10 6 0 6 6 1 12 12 12 25s-6 27-12 30c-10 5-10 7 0 12 15 7 16 54 1 54-8 0-8 4-1 13 5 6 13 35 17 64 6 43 4 53-12 62-10 6-12 11-5 11 20 0 15 58-5 63-17 4-17 5 0 6 22 1 25 61 2 61-8 0-15-8-15-17 0-10-10 3-23 27-13 25-20 50-17 55 3 6 5 19 5 30 0 19-4 21-51 24-17 1-20 6-16 30 5 34-10 46-37 30-15-10-22-9-36 4-9 9-12 17-7 17 6 0 11 27 11 60 0 46-3 60-15 60-11 0-14-15-14-62-1-52-3-59-12-43-20 37-50 64-79 70-35 8-86-18-101-50-6-14-15-25-20-25-4 0-8 470-8 1045v1045h-515-515l-2-1252-3-1253h-55c-51 0-55 2-58 25-2 14-10 29-18 33-12 7-14 142-14 877v870h-470-470v-597l1-598 23-17c22-16 24-16 34 5 5 12 13 30 16 40s12 17 19 14c8-2 13-37 14-118l1-114-19 27c-25 34-77 52-111 39-31-12-63-51-80-97-12-35-22-42-33-24-9 14-40 12-53-3-7-8-31-11-71-9l-61 4v359 359h-65-65l-2 713-3 712-355 3c-195 2-365 0-377-3l-23-5v-710-710h-60-60v-360-360h-35-35v415 415h25c22 0 25 4 25 35 0 30-3 35-24 35-22 0-25 5-28 43-3 42-3 42-45 45l-43 3v135c0 127 1 134 20 134 16 0 20 7 20 35s-4 35-20 35c-19 0-20 7-20 165s1 165 20 165c17 0 20 7 20 40s-3 40-20 40c-18 0-20 7-20 70 0 56-3 70-15 70-10 0-15 10-15 30 0 25-4 30-25 30-17 0-26 7-30 23-7 27 0 222 10 285 6 34 4 42-8 42-10 0-17 14-22 43-11 74-36 149-61 186-13 20-24 48-24 64 0 20-7 30-25 37-24 9-25 13-25 92-1 57-5 89-15 102-11 14-15 47-15 113 0 76-3 93-15 93s-15-18-15-99c0-75-4-101-15-111-11-9-15-35-15-101 0-88 0-89-25-89-21 0-25-5-25-27 0-16-16-60-36-99-25-49-37-89-41-134-5-50-10-64-25-67-20-6-26-61-8-79 7-7 10-61 8-140-3-125-4-129-25-132-17-3-23-10-23-29 0-16-7-27-20-30-18-5-20-14-20-74 0-62-2-69-20-69-17 0-20-7-20-40s3-40 20-40c19 0 20-7 20-165s-1-165-20-165c-16 0-20-7-20-35s4-35 20-35c19 0 20-7 20-135v-135h-45-45v-45c0-38-3-45-20-45-16 0-20-7-20-35s4-35 20-35c20 0 20-7 20-830 0-456-2-830-4-830s-62 69-133 153c-71 83-259 305-417 492-206 242-296 356-313 395-89 200-157 349-160 346-2-2 30-82 72-177 86-199 93-201-100 26-60 71-115 143-122 160-6 16-12 24-12 16-1-10-9-7-28 10-24 21-23 19 4-13 28-33 48-83 69-173 8-37 4-33-71 68-32 43-60 76-62 73-2-2 31-52 75-111 73-99 82-115 107-207 14-55 25-102 23-104-3-2-50 68-106 155-100 155-102 160-106 225-2 36-6 69-10 73-3 3-6 16-6 29 0 12-6 21-14 20-7 0-28 16-45 38-23 29-31 49-31 80v41l35-40c21-24 35-52 36-70 1-19 3-23 6-11 4 16 9 14 41-15 34-33 34-32-6 17-24 28-42 61-42 75 0 16-3 20-8 11-6-9-16-4-37 18-24 25-30 41-35 102l-7 73-2-60-2-60-34 40c-19 22-35 44-35 49s-7 14-15 20c-12 9-14 21-9 54 3 23 10 39 15 36s9 8 9 24c0 26 17 88 37 132 4 10 9 1 14-25 6-32 7-28 4 20-4 64 2 105 16 105 4 0 10-15 12-32 3-18 3-8 1 22-2 37 0 50 6 40 8-12 10-11 10 5 1 12 13-5 30-40 38-80 38-62 0 22-17 36-30 73-30 83 0 9 11 50 25 90 23 69 32 120 20 120-3 0-32-13-65-30-66-33-81-51-107-123-17-48-25-55-131-124-63-41-117-73-122-71-4 2-44 45-87 96l-79 93-18 93c-19 102-31 120-109 164-35 20-67 28-67 18 0-3 7-37 15-77 14-66 14-74-1-90-9-10-13-23-8-30 4-7 3-10-3-6-7 4-157-188-353-451-189-251-347-463-353-469-5-7-7-13-4-13 2 0 161 209 353 465 192 255 350 462 353 460 2-3-21-42-51-87-72-109-94-145-81-133 6 6 45 62 88 125 42 63 74 104 70 91-5-16-4-21 4-17 16 10 3-21-63-152-31-62-56-115-55-119 0-5 29 49 65 120 72 142 94 166 58 60-6-16-5-16 9 2 23 28 21 7-4-77-11-39-18-72-16-74 2-3 10 16 17 41 15 55 27 64 34 28 22-113 45-276 41-284-4-5-1-9 4-9 18 0 13-22-11-49-13-14-16-20-8-14 25 23 40 15 39-19 0-28-12-44-84-108-46-41-84-79-84-84-1-4 35 26 80 68 44 42 85 76 90 76s9-12 9-27c0-18-14-42-42-73l-43-45 46 44 47 43 7-42c6-33 3-46-12-63-16-19-16-20 0-8 24 19 29 11 34-61l5-63-112-240c-62-132-159-339-215-460s-128-274-160-340c-31-66-64-137-72-157-8-21-16-38-17-38-10 0-161 31-163 34-8 7 200 652 218 678 10 15 16 33 13 42-9 24 75 277 105 313 14 17 60 69 101 114s65 77 53 71c-12-7-23-16-25-21-5-14-130-142-134-138-2 2 3 25 12 51s14 49 12 51c-3 3-17-30-32-73-22-65-38-90-98-155-39-43-72-76-75-74-2 3 15 51 37 108 35 87 50 113 98 162 31 31 62 55 69 52 7-2 13 2 13 9s31 44 68 82 44 47 14 19c-40-38-55-47-61-37s-10 8-14-10c-6-24-113-136-122-127-2 3 5 29 16 58 11 30 18 55 16 58-3 2-17-30-32-71-26-71-34-81-128-168-108-100-112-98-50 26 19 37 33 70 31 72s-29-48-61-110c-58-116-90-154-246-292-49-43-49-43 19 76 20 36 56 99 80 140 23 41 59 91 80 110 20 19 29 29 20 22-27-20-31-14-14 20 23 45 7 28-25-26-15-25-65-77-118-121-51-42-93-79-93-82 0-2 33 23 73 56 41 34 77 61 81 61 8 0-40-88-129-235-53-89-79-119-221-253-89-84-165-152-168-152-4 0 11 26 32 58 56 82 93 142 88 142-2 0-42-58-89-128-72-109-165-218-198-230-17-7-119 20-119 30 0 21 192 268 249 320 31 29 47 44 34 34-47-40-31-6 48 99 45 59 76 105 70 101s-54-65-107-136c-95-130-157-189-370-354l-62-47-68 12c-104 17-105 19-28 77 92 67 145 115 74 66-30-21-81-57-112-80l-57-42-78 17c-76 15-78 17-81 47-3 29 3 35 123 113 69 46 125 85 125 88 0 6-55-27-148-89-113-76-103-87-99 118 2 99 5 188 8 199 3 18-2 20-44 23l-49 3 4 102 3 102-272 3-273 2v27c0 18 10 35 28 49l27 22 3 407c2 355 1 411-13 431-8 13-22 24-30 24-13 0-15-39-15-272 0-150-4-268-8-262-19 21-82 253-84 309-2 45-7 60-18 60s-16-17-20-70c-7-92-78-323-102-331-21-6-23-21-5-43 9-12 11-64 9-199l-3-184-54 52c-53 49-142 100-177 100-15 0-18 10-18 69 0 46 4 71 13 75 9 3 8 8-4 18-24 19-69 113-69 143 0 14-4 25-10 25-5 0-10-8-10-19 0-27-57-148-72-153-11-4-11-8 0-21 8-10 12-36 10-74-3-50-6-58-24-61-20-3-21 3-27 104-4 59-7 277-7 484v378l-44 35c-41 34-48 36-127 39l-84 3-3 348-2 347h-103c-56 0-107 4-113 8s-19 52-28 107c-10 55-20 110-23 123-4 19-1 22 26 22 41 0 40 18-1 22-46 4-49 28-4 28 48 0 46 18-1 22l-37 3-28 150c-37 205-36 190-10 193 30 5 28 22-3 22-16 0-25 6-25 15s10 15 26 15c14 0 23 4 19 10-3 6-17 10-31 10-13 0-24 2-24 4s-12 64-26 137c-15 74-27 172-28 219l-1 85 38 3c57 5 41 32-19 32-21 0-24 4-24 40 0 22-4 40-10 40-5 0-10-18-10-40zm6486-1355c8-19 14-57 14-85v-51l-62 3-63 3-3 34c-5 53 6 96 33 125 21 23 28 25 46 16 11-7 27-27 35-45zm-6086-10c0-24-3-25-55-25s-55 1-55 25 3 25 55 25 55-1 55-25zm6830-55c0-16-7-20-35-20s-35 4-35 20 7 20 35 20 35-4 35-20zm100 0c0-17-7-20-40-20s-40 3-40 20 7 20 40 20 40-3 40-20zm90 0c0-16-7-20-35-20s-35 4-35 20 7 20 35 20 35-4 35-20zm90 0c0-16-7-20-35-20s-35 4-35 20 7 20 35 20 35-4 35-20zm100 0c0-17-7-20-40-20s-40 3-40 20 7 20 40 20 40-3 40-20zm90 0c0-16-7-20-35-20s-35 4-35 20 7 20 35 20 35-4 35-20zm-7300-25c0-24-3-25-55-25s-55 1-55 25 3 25 55 25 55-1 55-25zm-2-82c-3-26-6-28-53-28s-50 2-53 28c-3 27-3 27 53 27s56 0 53-27zm6740-20c3-20-1-23-32-23-28 0-36 4-36 18 0 26 10 33 40 30 17-2 26-10 28-25zm90 0c3-20-1-23-32-23-28 0-36 4-36 18 0 26 10 33 40 30 17-2 26-10 28-25zm97 2c0-15-8-21-29-23-33-4-51 10-42 33 9 25 71 16 71-10zm93-2c3-20-1-23-32-23-28 0-36 4-36 18 0 26 10 33 40 30 17-2 26-10 28-25zm187 2c0-15-8-21-29-23-33-4-51 10-42 33 9 25 71 16 71-10zm93-2c3-20-1-23-32-23-28 0-36 4-36 18 0 26 10 33 40 30 17-2 26-10 28-25zm-558-123c0-16-7-20-35-20s-35 4-35 20 7 20 35 20 35-4 35-20zm90 0c0-16-7-20-35-20s-35 4-35 20 7 20 35 20 35-4 35-20zm98 3c-2-13-13-18-38-18s-36 5-38 18c-3 14 4 17 38 17s41-3 38-17zm92-3c0-16-7-20-35-20s-35 4-35 20 7 20 35 20 35-4 35-20zm90 0c0-16-7-20-35-20s-35 4-35 20 7 20 35 20 35-4 35-20zm95 0c0-10-12-16-37-18-33-3-38 0-38 18s5 21 38 18c25-2 37-8 37-18zm95 0c0-16-7-20-35-20s-35 4-35 20 7 20 35 20 35-4 35-20zm-8480-10c0-17-7-20-40-20s-40 3-40 20 7 20 40 20 40-3 40-20zm0-55c0-11-11-15-40-15s-40 4-40 15 11 15 40 15 40-4 40-15zm0-55c0-17-7-20-40-20s-40 3-40 20 7 20 40 20 40-3 40-20zm7915-5c0-15-8-21-32-23-30-3-33-1-33 23s3 26 33 23c24-2 32-8 32-23zm190 0c0-15-8-21-29-23-33-4-51 10-42 33 9 25 71 16 71-10zm90 0c0-15-8-21-32-23-30-3-33-1-33 23s3 26 33 23c24-2 32-8 32-23zm95 0c0-21-5-25-29-25-17 0-33 5-36 10-13 21 4 40 35 40 25 0 30-4 30-25zm95 0c0-15-8-21-29-23-33-4-51 10-42 33 9 25 71 16 71-10zm90 0c0-15-8-21-32-23-30-3-33-1-33 23s3 26 33 23c24-2 32-8 32-23zm-8475-50c0-11-11-15-40-15s-40 4-40 15 11 15 40 15 40-4 40-15zm0-50c0-11-11-15-40-15s-40 4-40 15 11 15 40 15 40-4 40-15zm7920-25c0-16-7-20-35-20s-35 4-35 20 7 20 35 20 35-4 35-20zm90 0c0-16-7-20-35-20s-35 4-35 20 7 20 35 20 35-4 35-20zm98 3c-2-13-13-18-38-18s-36 5-38 18c-3 14 4 17 38 17s41-3 38-17zm92-3c0-16-7-20-35-20s-35 4-35 20 7 20 35 20 35-4 35-20zm188 3c-2-13-13-18-38-18s-36 5-38 18c-3 14 4 17 38 17s41-3 38-17zm92-3c0-16-7-20-35-20s-35 4-35 20 7 20 35 20 35-4 35-20zm-1345-40v-45h-40c-38 0-40 2-43 33-5 53 3 64 45 60 38-3 38-3 38-48zm113-2l3-48h-40-41v51 50l38-3c37-3 37-3 40-50zm-7248 17c0-11-11-15-40-15s-40 4-40 15 11 15 40 15 40-4 40-15zm0-55c0-17-7-20-40-20s-40 3-40 20 7 20 40 20 40-3 40-20zm10238-2c-6-18-28-21-28-4 0 9 7 16 16 16s14-5 12-12zm-2318-38c0-16-7-20-35-20s-35 4-35 20 7 20 35 20 35-4 35-20zm90 0c0-16-7-20-35-20s-35 4-35 20 7 20 35 20 35-4 35-20zm190 0c0-16-7-20-35-20s-35 4-35 20 7 20 35 20 35-4 35-20zm90 0c0-16-7-20-35-20s-35 4-35 20 7 20 35 20 35-4 35-20zm98-2c3-15-4-18-37-18-39 0-53 14-34 34 14 14 68 1 71-16zm92 2c0-16-7-20-35-20s-35 4-35 20 7 20 35 20 35-4 35-20zm-8480-15c0-11-11-15-40-15s-40 4-40 15 11 15 40 15 40-4 40-15zm0-55c0-17-7-20-40-20s-40 3-40 20 7 20 40 20 40-3 40-20zm5290-44c0-22-129-142-148-138-10 2-19 8-20 13-2 5-10 16-18 23-12 13-10 18 17 36 16 12 33 19 36 16 4-3 18 1 32 10 22 14 20 10-9-21l-35-39 40 32c22 17 54 42 70 56 36 30 35 30 35 12zm-5290-11c0-11-11-15-40-15s-40 4-40 15 11 15 40 15 40-4 40-15zm8010-5c0-16-7-20-35-20s-35 4-35 20 7 20 35 20 35-4 35-20zm98 3c-2-13-13-18-38-18s-36 5-38 18c-3 14 4 17 38 17s41-3 38-17zm92-3c0-16-7-20-35-20s-35 4-35 20 7 20 35 20 35-4 35-20zm90 0c0-16-7-20-35-20s-35 4-35 20 7 20 35 20 35-4 35-20zm190 0c0-16-7-20-35-20s-35 4-35 20 7 20 35 20 35-4 35-20zm-8480-45c0-11-11-15-40-15s-40 4-40 15 11 15 40 15 40-4 40-15zm5020-44c-1-10-6-7-15 9-19 33-18 50 0 26 8-11 15-27 15-35zm5280 19c0-16-4-30-10-30-5 0-10 14-10 30 0 17 5 30 10 30 6 0 10-13 10-30zm620-1c0-38-24-35-28 4-2 19 1 27 12 27s16-10 16-31zm-10920-29c0-17-7-20-40-20s-40 3-40 20 7 20 40 20 40-3 40-20zm5198-10c-7-10-14-17-17-15-4 4 18 35 25 35 2 0-1-9-8-20zm30 0c-7-11-17-20-22-20s-1 9 9 20 20 20 22 20-2-9-9-20zm2782-11c0-17-5-20-32-17-22 2-34 9-36 21-3 14 4 17 32 17 30 0 36-4 36-21zm98 4c-2-13-13-18-38-18s-36 5-38 18c-3 14 4 17 38 17s41-3 38-17zm90 0c-2-12-14-19-36-21-27-3-32 0-32 17s6 21 36 21c28 0 35-3 32-17zm92-4c0-17-5-20-32-17-22 2-34 9-36 21-3 14 4 17 32 17 30 0 36-4 36-21zm98 4c-2-13-13-18-38-18s-36 5-38 18c-3 14 4 17 38 17s41-3 38-17zm90 0c-2-12-14-19-36-21-27-3-32 0-32 17s6 21 36 21c28 0 35-3 32-17zm-8478-33c0-17-7-20-40-20s-40 3-40 20 7 20 40 20 40-3 40-20zm9095-1c10-15-1-23-20-15-9 3-13 10-10 16 8 13 22 13 30-1zm765-4c0-8-7-15-15-15s-15 7-15 15 7 15 15 15 15-7 15-15zm-700-5c0-5-7-10-15-10s-15 5-15 10c0 6 7 10 15 10s15-4 15-10zm640 0c0-5-7-10-15-10s-15 5-15 10c0 6 7 10 15 10s15-4 15-10zm880-740v-750h-85-85v750 750h85 85v-750zm-10680 695c0-11-11-15-40-15s-40 4-40 15 11 15 40 15 40-4 40-15zm9860-31c0-15-6-24-15-24-15 0-21 40-9 53 12 11 24-3 24-29zm-760 0c0-33-33-30-38 4-3 17 2 22 17 22 16 0 21-6 21-26zm60 1c0-16-6-25-15-25s-15 9-15 25 6 25 15 25 15-9 15-25zm640 0c0-16-6-25-15-25s-15 9-15 25 6 25 15 25 15-9 15-25zm-1880-5c0-16-7-20-35-20s-35 4-35 20 7 20 35 20 35-4 35-20zm90 0c0-16-7-20-35-20s-35 4-35 20 7 20 35 20 35-4 35-20zm98-2c3-14-4-18-32-18-36 0-52 12-41 31 11 17 69 6 73-13zm92 2c0-16-7-20-35-20s-35 4-35 20 7 20 35 20 35-4 35-20zm185 0c0-10-12-16-37-18-33-3-38 0-38 18s5 21 38 18c25-2 37-8 37-18zm95 0c0-16-7-20-35-20s-35 4-35 20 7 20 35 20 35-4 35-20zm-3444-16c5-18 0-32-17-50-35-37-46-8-11 31 19 21 21 24 4 11-16-14-25-17-34-8-17 17-1 42 26 42 19 0 27-7 32-26zm-5036-4c0-17-7-20-40-20s-40 3-40 20 7 20 40 20 40-3 40-20zm5070 10c0-5-4-10-10-10-5 0-10 5-10 10 0 6 5 10 10 10 6 0 10-4 10-10zm38-11c-2-6-8-10-13-10s-11 4-13 10 4 11 13 11 15-5 13-11zm67-25c9-14 14-33 10-42-5-13-11-9-31 23-29 49-32 37-3-15 17-30 19-44 12-66l-10-29-16 30c-20 37-22 25-3-14 14-26 12-71-3-71-4 0-15 25-25 56s-19 54-22 52c-2-2 6-33 18-69 23-71 20-102-12-140l-20-24-18 21c-10 12-24 53-32 92l-13 71 28 33c16 18 32 32 37 31 4-2 8 6 8 17 0 26 17 26 25-1 4-11 9-18 12-16 2 3-1 15-7 27-9 18-8 25 6 41 23 26 38 24 59-7zm-92 2c6-16-2-28-14-20-12 7-11 34 0 34 5 0 11-6 14-14zm4015-19c2-19-1-27-13-27-19 0-30 24-21 46 9 23 31 11 34-19zm62 3c0-20-5-30-15-30s-15 10-15 30 5 30 15 30 15-10 15-30zm60 0c0-20-5-30-15-30s-15 10-15 30 5 30 15 30 15-10 15-30zm515 0c0-13-6-25-12-27-9-3-13 6-13 27s4 30 13 28c6-3 12-15 12-28zm65 0c0-20-5-30-15-30s-15 10-15 30 5 30 15 30 15-10 15-30zm60 0c0-20-5-30-15-30s-15 10-15 30 5 30 15 30 15-10 15-30zm-4800-17c0-18-38-73-51-73-17 0-9 54 12 77 23 24 39 22 39-4zm-5060 2c0-11-11-15-40-15s-40 4-40 15 11 15 40 15 40-4 40-15zm9297-83c1-48-1-62-13-62-11 0-14 15-14 66 0 48 3 65 13 62 7-3 13-27 14-66zm360 0c2-49 0-62-12-62s-15 14-15 66c0 48 3 65 13 62 7-3 13-28 14-66zm-1742 33c0-15-8-21-32-23-30-3-33-1-33 23s3 26 33 23c24-2 32-8 32-23zm95 0c0-21-5-25-29-25-17 0-33 5-36 10-13 21 4 40 35 40 25 0 30-4 30-25zm95 0c0-15-8-21-29-23-33-4-51 10-42 33 9 25 71 16 71-10zm90 0c0-15-8-21-32-23-30-3-33-1-33 23s3 26 33 23c24-2 32-8 32-23zm95 0c0-21-5-25-29-25-17 0-33 5-36 10-13 21 4 40 35 40 25 0 30-4 30-25zm95 0c0-15-8-21-29-23-33-4-51 10-42 33 9 25 71 16 71-10zm90 0c0-15-8-21-32-23-30-3-33-1-33 23s3 26 33 23c24-2 32-8 32-23zm622-67c-2-75-5-93-17-93s-15 17-16 85c-1 92 1 100 21 100 10 0 13-21 12-92zm61-3c0-75-3-95-14-95s-14 20-14 95 3 95 14 95 14-20 14-95zm60 0c0-75-3-95-14-95s-14 20-14 95 3 95 14 95 14-20 14-95zm519 3c-1-63-6-93-14-96-10-3-13 20-13 92 0 76 3 96 14 96s14-19 13-92zm61-3c0-73-3-95-13-95s-14 23-14 95c-1 75 2 95 13 95s14-20 14-95zm61 0c0-72-4-95-14-95s-13 22-13 95c0 75 3 95 14 95s14-20 13-95zm-9859 70c0-11-11-15-40-15s-40 4-40 15 11 15 40 15 40-4 40-15zm5356-52c-3-8-2-12 3-8 5 3 25-14 45-37 26-30 36-51 36-75 0-18-2-33-4-33-9 0-76 101-76 115 0 8-6 14-12 13-8-2-14 10-16 31-3 31-2 33 13 21 9-7 14-19 11-27zm-5356-3c0-17-7-20-40-20s-40 3-40 20 7 20 40 20 40-3 40-20zm5308-43c-2-33 3-49 20-67 12-13 22-34 22-47 0-14 4-21 10-18 18 11 89-115 96-171 3-29 4-58 2-65-4-13-98 143-98 163 0 5-11 24-25 42s-25 43-25 55-4 20-9 17c-4-3-13 5-19 18-8 17-7 30 3 49 7 14 11 28 8 31-6 6 4 36 11 36 3 0 5-19 4-43zm40-10c2-8 19-33 39-54s44-56 54-78 21-39 24-37c8 4 65-67 66-82 0-6 4-32 8-58 4-27 5-48 2-48-15 2-81 124-82 153 0 25-2 28-8 13-7-17-14-11-49 42-23 33-42 70-42 82s-4 19-9 15c-12-7-31 27-31 55 0 25 23 22 28-3zm-5348-2c0-11-11-15-40-15s-40 4-40 15 11 15 40 15 40-4 40-15zm7920-15c0-16-7-20-35-20s-35 4-35 20 7 20 35 20 35-4 35-20zm188 3c-2-13-13-18-38-18s-36 5-38 18c-3 14 4 17 38 17s41-3 38-17zm92-3c0-16-7-20-35-20s-35 4-35 20 7 20 35 20 35-4 35-20zm90 0c0-16-7-20-35-20s-35 4-35 20 7 20 35 20 35-4 35-20zm98 3c-2-13-13-18-38-18s-36 5-38 18c-3 14 4 17 38 17s41-3 38-17zm92-3c0-16-7-20-35-20s-35 4-35 20 7 20 35 20 35-4 35-20zm818-40c0-45-4-60-14-60s-14 15-14 60 4 60 14 60 14-15 14-60zm361 0c-1-45-4-60-15-60-10 0-14 15-14 60 0 46 3 60 14 60 12 0 15-14 15-60zm576 25c0-16-6-30-12-32-9-3-13 7-13 32s4 35 13 33c6-3 12-17 12-33zm615-1c0-24-4-34-12-32-24 8-22 68 2 68 5 0 10-16 10-36zm-10850-19c0-11-11-15-40-15s-40 4-40 15 11 15 40 15 40-4 40-15zm5288-40c7-14 12-32 12-40s3-15 8-15c4 0 15-15 25-33 14-25 17-51 15-112l-3-80-22 48c-15 31-23 70-24 105-1 49-3 52-8 22l-7-35-22 43c-20 38-21 47-11 82 14 47 21 49 37 15zm3810-36c0-50-3-60-16-57s-17 16-18 61c-2 49 1 57 16 57s18-9 18-61zm60 1c0-45-4-60-14-60s-14 15-14 60 4 60 14 60 14-15 14-60zm60 0c0-45-4-60-14-60s-14 15-14 60 4 60 14 60 14-15 14-60zm520 0c0-45-4-60-14-60s-14 15-14 60 4 60 14 60 14-15 14-60zm60 0c0-44-4-60-13-60-10 0-14 16-14 60 1 43 4 60 14 60 9 0 13-17 13-60zm61 0c0-45-4-60-14-60s-14 15-14 60c1 43 4 60 14 60s13-17 14-60zm-9859 20c0-17-7-20-40-20s-40 3-40 20 7 20 40 20 40-3 40-20zm7088-33l3-48-43 3c-41 3-43 5-46 36-5 53 3 64 45 60 38-3 38-3 41-51zm337 3v-45l-42-3-43-3v44c0 53 5 59 50 55 34-3 35-4 35-48zm1875-20c0-20-5-30-15-30s-15 10-15 30 5 30 15 30 15-10 15-30zm360 0c0-20-5-30-15-30s-15 10-15 30 5 30 15 30 15-10 15-30zm-9660-5c0-11-11-15-40-15s-40 4-40 15 11 15 40 15 40-4 40-15zm10300-15c0-16-4-30-10-30-5 0-10 14-10 30 0 17 5 30 10 30 6 0 10-13 10-30zm620 0c0-20-5-30-15-30-15 0-21 40-8 53 14 15 23 6 23-23zm-5642-120c-3-33-5-31-26 33-12 38-19 73-16 79 11 17 45-74 42-112zm-5278 85c0-11-11-15-40-15s-40 4-40 15 11 15 40 15 40-4 40-15zm9098-80c-1-83-3-96-17-93-13 3-16 18-17 88-1 92 0 100 21 100 10 0 13-21 13-95zm60 0c0-75-3-95-14-95s-14 20-14 95 3 95 14 95 14-20 14-95zm60 0c0-75-3-95-14-95s-14 20-14 95 3 95 14 95 14-20 14-95zm80 35c0-43-4-60-13-60-10 0-13 17-14 60 0 44 4 60 14 60 9 0 13-16 13-60zm361 0c-1-45-4-60-15-60-10 0-14 15-14 60 0 46 3 60 14 60 12 0 15-14 15-60zm76-35c0-62-4-90-12-92-10-4-13 19-13 92s3 96 13 93c8-3 12-31 12-93zm63 0c0-75-3-95-14-95s-14 20-13 95c0 72 4 95 14 95s13-22 13-95zm60 0c0-72-3-95-13-95s-13 23-13 95 3 95 13 95 13-23 13-95zm-2540 26c2-12 1-34-2-47-5-20-13-24-46-24h-40v51 50l43-3c35-3 43-7 45-27zm560 12c-2-13-15-19-46-21-37-3-42-1-42 17s6 21 46 21c38 0 45-3 42-17zm-7878-13c0-17-7-20-40-20s-40 3-40 20 7 20 40 20 40-3 40-20zm1635-10c8-16 15-40 15-55 0-23-4-25-40-25-35 0-40 3-40 24 0 36 21 86 36 86 7 0 20-13 29-30zm3788-65c43-79 44-82 51-205 4-69 4-122 1-118-4 4-30 58-58 120-48 106-51 119-55 208-2 64 0 92 7 85 5-5 30-46 54-90zm-7213 45c0-19-7-20-124-20-119 0-146 6-131 30 4 6 58 10 131 10 117 0 124-1 124-20zm7305-46c30-45 40-74 51-142 12-76 12-104 0-91-2 2-24 43-50 90-39 73-46 94-46 142 0 31 2 57 4 57s20-25 41-56zm2995 36c0-17-7-20-45-20s-45 3-45 20 7 20 45 20 45-3 45-20zm-8510-15c0-11-11-15-40-15s-40 4-40 15 11 15 40 15 40-4 40-15zm7878-2c-2-13-15-19-46-21-37-3-42-1-42 17s6 21 46 21c38 0 45-3 42-17zm-2791-105c40-175 43-141-66-667-55-266-102-485-103-487-5-4-319 54-326 61-4 4 40 126 153 420 40 102 225 586 251 655 37 97 54 133 61 126 3-3 17-52 30-108zm239 64c16-37 19-60 15-107l-6-59-22 70c-23 69-30 144-15 144 4 0 16-22 28-48zm3974 8c0-20-5-30-15-30s-15 10-15 30 5 30 15 30 15-10 15-30zm360 0c0-20-5-30-15-30s-15 10-15 30 5 30 15 30 15-10 15-30zm-11450 5c0-13-18-15-127-13-90 2-128 7-131 16s27 12 127 12c111 0 131-2 131-15zm7646-170c69-82 137-172 149-200 63-138 119-264 132-295 15-35 15-35-5-15-11 11-105 136-210 278-162 218-195 268-212 324-11 36-20 72-20 81 0 22 7 15 166-173zm-5856 150c0-11-11-15-40-15s-40 4-40 15 11 15 40 15 40-4 40-15zm8510-5c0-17-7-20-45-20s-45 3-45 20 7 20 45 20 45-3 45-20zm-630-20c0-17-7-20-45-20s-45 3-45 20 7 20 45 20 45-3 45-20zm2420-5c0-14-4-25-10-25-5 0-10 11-10 25s5 25 10 25c6 0 10-11 10-25zm620 0c0-16-6-25-15-25s-15 9-15 25 6 25 15 25 15-9 15-25zm-12710 0c0-13-21-15-130-15s-130 2-130 15 21 15 130 15 130-2 130-15zm8878-32l-3-48h-40c-38 0-40 2-43 33-5 52 3 62 48 62h41l-3-47zm230 18c2-12 1-34-2-47-5-20-13-24-46-24h-40v51 50l43-3c35-3 43-7 45-27zm-2941 12c-3-5-24-57-47-118-43-110-44-110-183-263-77-84-142-151-144-148-2 2 35 82 84 178 88 175 88 175 186 267 88 82 116 105 104 84zm4721-20c-2-17-9-28-18-28s-16 11-18 28c-3 22 1 27 18 27s21-5 18-27zm62-3c0-20-5-30-15-30s-15 10-15 30 5 30 15 30 15-10 15-30zm60 0c0-20-5-30-15-30s-15 10-15 30 5 30 15 30 15-10 15-30zm78-30c0-45-4-60-14-60s-14 15-14 60 4 60 14 60 14-15 14-60zm361 0c-1-45-4-60-15-60-10 0-14 15-14 60 0 46 3 60 14 60 12 0 15-14 15-60zm79 33c-4-39-28-42-28-4 0 21 5 31 16 31s14-8 12-27zm62-3c0-20-5-30-15-30s-15 10-15 30 5 30 15 30 15-10 15-30zm60 0c0-20-5-30-15-30s-15 10-15 30 5 30 15 30 15-10 15-30zm-9860 0c0-17-7-20-40-20s-40 3-40 20 7 20 40 20 40-3 40-20zm8510-20c0-17-7-20-45-20s-45 3-45 20 7 20 45 20 45-3 45-20zm-10300-5c0-13-21-15-130-15s-130 2-130 15 21 15 130 15 130-2 130-15zm7453-122c46-71 93-145 106-165 19-33 121-376 121-410 0-7-66 106-146 251-122 221-147 274-155 325-5 34-11 76-14 94-3 17-3 32 0 32s43-57 88-127zm2215 110c-2-13-15-19-46-21-37-3-42-1-42 17s6 21 46 21c38 0 45-3 42-17zm-2435-168c42-96 44-107 56-254 6-84 10-155 7-158-2-2-38 101-79 229-70 217-75 237-70 298l6 65 18-40c10-22 38-85 62-140zm104 65c37-70 42-87 67-264 15-104 25-191 22-193-5-5-22 32-91 192-37 85-45 117-54 209-6 60-11 123-11 140 0 29 1 29 13 11 8-11 32-54 54-95zm-5547 85c0-11-11-15-40-15s-40 4-40 15 11 15 40 15 40-4 40-15zm9100-11c0-33-33-30-38 4-3 17 2 22 17 22 16 0 21-6 21-26zm58-34c0-44-4-60-13-60-10 0-14 16-14 60 1 43 4 60 14 60 9 0 13-17 13-60zm62 35c0-14-6-25-12-26-10 0-10-2 0-6 18-7 16-63-3-63-12 0-15 13-15 60s3 60 15 60c9 0 15-9 15-25zm517-32c-3-80-26-84-26-4 1 45 4 61 14 61 11 0 14-14 12-57zm61-3c0-44-4-60-13-60-10 0-14 16-14 60 1 43 4 60 14 60 9 0 13-17 13-60zm61 0c0-45-4-60-14-60s-14 15-14 60c1 43 4 60 14 60s13-17 14-60zm-5435-57c-53-178-66-204-177-350-58-78-111-144-116-148-6-3-1 16 9 42 11 26 51 128 89 225 68 173 71 180 143 258 40 44 76 80 79 80s-9-48-27-107zm-6214 77c0-19-7-20-124-20-73 0-127 4-131 10-15 24 12 30 131 30 117 0 124-1 124-20zm10300-10c0-17-7-20-45-20s-45 3-45 20 7 20 45 20 45-3 45-20zm-8510-15c0-11-11-15-40-15s-40 4-40 15 11 15 40 15 40-4 40-15zm7880-5c0-17-7-20-45-20s-45 3-45 20 7 20 45 20 45-3 45-20zm2360-10c0-20-5-30-15-30s-15 10-15 30 5 30 15 30 15-10 15-30zm610 0c0-16-5-30-10-30-14 0-24 26-16 45 10 26 26 16 26-15zm-1550-10c0-20-5-30-15-30s-15 10-15 30 5 30 15 30 15-10 15-30zm360 0c0-20-5-30-15-30s-15 10-15 30 5 30 15 30 15-10 15-30zm-2462-27c-3-48-3-48-40-51-40-3-40-3-40 53 0 14 0 30 1 35 1 6 19 10 42 10h40l-3-47zm-8988 22c0-13-18-15-127-13-90 2-128 7-131 16s27 12 127 12c111 0 131-2 131-15zm7631-103c48-64 145-196 216-292l130-175 118-265c64-146 130-294 146-329 60-132 35-100-160 204-35 55-158 245-273 422-115 178-213 334-218 347-19 50-58 206-52 206 4-1 46-53 93-118zm-5841 78c0-17-7-20-40-20s-40 3-40 20 7 20 40 20 40-3 40-20zm8510-5c0-11-12-15-45-15s-45 4-45 15 12 15 45 15 45-4 45-15zm-630-15c0-17-7-20-45-20s-45 3-45 20 7 20 45 20 45-3 45-20zm-9670-5c0-13-21-15-130-15s-130 2-130 15 21 15 130 15 130-2 130-15zm10948-80c0-76-2-95-14-95-11 0-14 19-14 95 0 74 3 95 14 95 10 0 13-22 14-95zm60 0c0-76-2-95-14-95-11 0-14 19-14 95 0 74 3 95 14 95 10 0 13-22 14-95zm80 35c0-45-4-60-14-60s-14 15-14 60 4 60 14 60 14-15 14-60zm361 0c-1-45-4-60-15-60-10 0-14 15-14 60 0 46 3 60 14 60 12 0 15-14 15-60zm78-32c-1-63-6-93-14-96-10-3-13 20-13 92 0 76 3 96 14 96s14-19 13-92zm61-3c0-73-3-95-13-95s-14 23-14 95c-1 74 2 95 13 95 10 0 13-22 14-95zm61 0c0-72-4-95-14-95s-14 23-14 95c-1 78 2 95 14 95s15-17 14-95zm-9859 50c0-11-11-15-40-15s-40 4-40 15 11 15 40 15 40-4 40-15zm4041-176l-90-184-152-165c-136-148-180-188-179-163 1 4 65 119 143 254l142 246 110 101c61 55 111 99 113 98 1-2-38-86-87-187zm-5831 156c0-13-21-15-130-15-119 0-142 4-123 23 3 4 62 7 130 7 103 0 123-2 123-15zm6967-157l41-173-14-150c-8-82-13-166-12-185 2-19 9 34 17 118 8 83 17 152 20 152 4 0 28-91 54-202 40-173 47-218 47-306 0-101 0-102-22-98-13 3-48 10-80 16l-56 11 3 82 4 82-9-74c-6-41-12-76-15-79-4-5-203 26-216 34-6 3 37 220 132 674 17 80 35 173 42 208 6 34 14 62 17 62 4 0 25-78 47-172zm3333 152c0-17-7-20-45-20s-45 3-45 20 7 20 45 20 45-3 45-20zm-630-10c0-17-7-20-45-20s-45 3-45 20 7 20 45 20 45-3 45-20zm-7880-20c0-17-7-20-40-20s-40 3-40 20 7 20 40 20 40-3 40-20zm4267 13c-3-5-44-109-92-233-85-222-88-226-181-351l-94-126-53 9c-28 5-54 12-57 14-2 3 38 90 90 193 79 159 103 199 155 252 33 35 98 106 144 157 74 81 102 108 88 85zm1501-283l151-275 76-279c42-153 74-280 73-282-7-6-97 18-106 29-5 7-67 144-138 306-70 161-130 289-131 284-2-6 53-137 122-293 69-155 125-287 125-293 0-10-48-6-137 13l-51 11-7 52c-4 29-20 146-37 262-16 115-27 225-24 244s-1 45-8 60c-17 33-78 459-63 440 2-2 72-128 155-279zm1660 233c3-38 0-43-22-49-49-12-61-3-64 49l-3 48 43-3c43-3 43-3 46-45zm-9218 12c0-13-18-15-127-13-90 2-128 7-131 16s27 12 127 12c111 0 131-2 131-15zm10300-15c0-17-7-20-45-20s-45 3-45 20 7 20 45 20 45-3 45-20zm-630-10c0-17-7-20-45-20s-45 3-45 20 7 20 45 20 45-3 45-20zm1418-40c0-45-4-60-14-60s-14 15-14 60 4 60 14 60 14-15 14-60zm361 0c-1-45-4-60-15-60-10 0-14 15-14 60 0 46 3 60 14 60 12 0 15-14 15-60zm-3419-189c85-101 207-245 270-320 63-76 163-194 223-263 114-135 130-168 77-168h-30v-80c0-44-4-80-9-80s-73 87-152 193c-78 105-203 274-278 375-113 151-146 204-194 310-56 121-103 229-114 262-7 21 30-20 207-229zm4e3 209c0-20-5-30-15-30s-15 10-15 30 5 30 15 30 15-10 15-30zm610 0c0-16-5-30-10-30-14 0-24 26-16 45 10 26 26 16 26-15zm-12640-5c0-13-21-15-130-15s-130 2-130 15 21 15 130 15 130-2 130-15zm9990-15c0-17-7-20-45-20s-45 3-45 20 7 20 45 20 45-3 45-20zm-7985-104c-60-57-112-102-114-100-5 5 203 203 214 203 6 0-39-46-100-103zm8295 84c0-17-7-20-45-20s-45 3-45 20 7 20 45 20 45-3 45-20zm530-20c26-48-1-120-44-120-34 0-49 24-49 77 0 77 60 105 93 43zm2218 12c15-19 16-86 2-113-16-29-64-25-78 6-21 45-10 106 21 127 13 8 39-1 55-20zm-5675-134c61-140 68-164 86-288 42-281 63-442 58-446-2-2-48 121-102 273-96 275-98 279-106 403-5 69-10 144-13 168-2 23 0 42 3 42 4 0 37-69 74-152zm2297 132c0-17-7-20-45-20s-45 3-45 20 7 20 45 20 45-3 45-20zm1280 16c0-2-7-6-15-10-8-3-15-1-15 4 0 6 7 10 15 10s15-2 15-4zm60-20c0-14-4-28-10-31-5-3-10 0-10 9 0 8-3 21-6 30-4 11-1 16 10 16 10 0 16-9 16-24zm517-136c0-128-2-160-13-160s-14 32-14 160c0 129 3 160 14 160s13-31 13-160zm60 58c0-94 1-103 18-103s18 9 18 103c-1 80 2 102 12 102 11 0 14-24 14-111-1-62 3-114 8-118 9-7 33-71 33-88 0-6-8-10-17-8-10 2-39 4-65 4l-47 1v160c-1 131 2 160 13 160s14-21 13-102zm-11587 77c0-13-21-15-130-15-119 0-142 4-123 23 3 4 62 7 130 7 103 0 123-2 123-15zm2565-243c-3-8-16-12-32-10-27 3-28 6-31 62-2 43 2 70 17 102 12 24 21 47 21 52 0 4 6 14 13 21 10 10 13-10 15-100 1-62 0-119-3-127zm69 175c21-49 26-75 24-122-3-59-3-60-33-60h-30l-3 123c-1 69 1 122 7 122 5 0 21-28 35-63zm1566-62v-125h-31-31l4 78c4 69 35 172 53 172 3 0 5-56 5-125zm66 70c18-42 24-73 24-125v-70h-30-30v125c0 69 2 125 6 125 3 0 16-25 30-55zm3695-477c186-287 333-524 326-525-7-2-61 7-122 20l-110 22-168 305c-178 323-169 301-247 597-12 43-23 87-27 98-3 11-2 17 2 13 3-3 159-242 346-530zm-1920 216c-50-158-93-290-96-293-6-5-146 16-154 24-2 3 5 29 17 58 11 28 33 84 48 122 19 50 62 117 148 233 66 89 122 158 124 153s-38-139-87-297zm3067 268c4-44-13-64-52-60-29 3-31 5-34 51l-3 48 43-3c41-3 43-5 46-36zm882 18c0-17-7-20-45-20s-45 3-45 20 7 20 45 20 45-3 45-20zm-7985-94c-60-57-112-102-114-100-6 5 202 203 214 203 6 1-39-46-100-103zm-2005 79c0-13-21-15-130-15-119 0-142 4-123 23 3 4 62 7 130 7 103 0 123-2 123-15zm10300-5c0-17-7-20-45-20s-45 3-45 20 7 20 45 20 45-3 45-20zm790-10c0-20-5-30-15-30s-15 10-15 30 5 30 15 30 15-10 15-30zm360 0c0-20-5-30-15-30s-15 10-15 30 5 30 15 30 15-10 15-30zm-5930-222c-67-117-125-216-129-220-8-9-132 11-145 23-19 17 59 110 221 261 92 86 169 155 171 153s-51-100-118-217zm-3510 102c-58-54-109-99-115-99-5-1 38 44 95 99 58 54 110 99 115 99 6 1-37-44-95-99zm7980 80c0-17-7-20-45-20s-45 3-45 20 7 20 45 20 45-3 45-20zm-9990-5c0-13-18-15-127-13-90 2-128 7-131 16s27 12 127 12c111 0 131-2 131-15zm11090-22c-1-27-1-27-15-9-19 25-19 36 0 36 10 0 15-10 15-27zm358-98c0-99-3-125-14-125s-13 25-13 125c1 96 4 125 14 125s13-29 13-125zm-1780 88c-2-13-15-19-46-21-37-3-42-1-42 17s6 21 46 21c38 0 45-3 42-17zm-9668-18c0-13-21-15-130-15s-130 2-130 15 21 15 130 15 130-2 130-15zm2010-82c-57-54-108-99-114-101s36 42 94 97 109 100 113 101c5 0-37-44-93-97zm7980 67c0-17-7-20-45-20s-45 3-45 20 7 20 45 20 45-3 45-20zm-1110-36v-45l-42 3c-39 3-43 6-46 31-6 46 4 57 48 57h40v-46zm-5413 4c86-52 81-192-8-240-92-49-189 15-189 127 0 57 17 87 64 116 41 25 90 24 133-3zm6833 7c0-11-12-15-45-15s-45 4-45 15 12 15 45 15 45-4 45-15zm1916-26c0-19 4-43 7-54 6-19 3-20-53-17-33 2-60 7-60 12 0 21 32 80 40 75 6-4 17 1 26 10 23 23 38 14 40-26zm-12216 16c0-13-21-15-130-15s-130 2-130 15 21 15 130 15 130-2 130-15zm2010-92c-56-54-107-99-114-101-6-2 39 44 99 101 61 58 112 104 113 102 2-2-42-48-98-102zm7660 92c0-11-12-15-45-15s-45 4-45 15 12 15 45 15 45-4 45-15zm-4467-17c-6-7-45-59-87-115-43-57-83-103-91-103-29 0-76 13-73 21 4 11 241 208 252 209 5 0 4-6-1-12zm4787-18c0-17-7-20-45-20s-45 3-45 20 7 20 45 20 45-3 45-20zm-4352-149l-73-151-50 6c-27 3-54 10-59 14-5 5 49 72 120 149s130 139 131 137c2-2-29-71-69-155zm-5638 129c0-19-7-20-124-20-73 0-127 4-131 10-15 24 12 30 131 30 117 0 124-1 124-20zm2015-91c-53-52-104-98-113-102-10-5 32 39 93 97 60 57 111 103 113 101 2-1-40-45-93-96zm8285 81c0-17-7-20-45-20s-45 3-45 20 7 20 45 20 45-3 45-20zm-630-5c0-11-12-15-45-15s-45 4-45 15 12 15 45 15 45-4 45-15zm-7100-105v-100h-35-35v100 100h35 35v-100zm90 0v-100h-35-35v100 100h35 35v-100zm1540 0v-100h-30-30v100 100h30 30v-100zm90 0v-100h-30-30v100 100h30 30v-100zm-4290 65c0-13-21-15-130-15s-130 2-130 15 21 15 130 15 130-2 130-15zm2102-14c-7-4-49-43-95-87-45-44-91-85-102-93-11-7 29 34 90 92 60 58 112 104 114 101 3-3 0-9-7-13zm7003-26c0-40 0-40-42-43l-43-3v46 46l43-3c42-3 42-3 42-43zm5480 25c0-24-89-21-93 3-3 16 3 18 45 15 35-2 48-7 48-18zm-4285-10c0-17-7-20-45-20s-45 3-45 20 7 20 45 20 45-3 45-20zm-630-10c0-17-7-20-45-20s-45 3-45 20 7 20 45 20 45-3 45-20zm-9670-15c0-13-21-15-130-15s-130 2-130 15 21 15 130 15 130-2 130-15zm9990-5c0-17-7-20-45-20s-45 3-45 20 7 20 45 20 45-3 45-20zm-7920-46c-25-25-76-73-115-106-48-41-36-27 39 46 109 106 160 146 76 60zm12520 31c0-11-12-15-50-15s-50 4-50 15 12 15 50 15 50-4 50-15zm-8779-100c-29-76-40-95-56-95-50 0-50 16 1 81 48 63 86 109 89 109 2 0-14-43-34-95zm2502-273c274-369 253-339 245-347-4-4-57 4-118 17l-112 23-34 75c-119 266-256 577-261 590-9 27 45-42 280-358zm1987 348c0-17-7-20-45-20s-45 3-45 20 7 20 45 20 45-3 45-20zm-10300-5c0-13-21-15-130-15s-130 2-130 15 21 15 130 15 130-2 130-15zm9990-25c0-17-7-20-45-20s-45 3-45 20 7 20 45 20 45-3 45-20zm-7984-95c-60-58-112-103-114-100-3 3-3 6-1 8 2 1 50 46 107 100 56 53 106 97 110 97 4-1-42-48-102-105zm3228 80c-15-23-34-33-34-18 0 10 32 43 42 43 5 0 1-11-8-25zm9356 10c0-11-12-15-50-15s-50 4-50 15 12 15 50 15 50-4 50-15zm-14590-20c0-13-21-15-130-15-119 0-142 4-123 23 3 4 62 7 130 7 103 0 123-2 123-15zm8990-40v-45h-38c-21 0-41 2-43 4-3 3-3 23-1 45 4 40 5 41 43 41h39v-45zm228 3c-3-43-3-43-45-46l-43-3v45 46h46 45l-3-42zm1082 22c0-17-7-20-45-20s-45 3-45 20 7 20 45 20 45-3 45-20zm-630-10c0-17-7-20-45-20s-45 3-45 20 7 20 45 20 45-3 45-20zm4918-12c3-15-4-18-47-18-36 0-51 4-51 13 0 23 12 28 55 25 29-2 41-8 43-20zm-12509-24c-50-53-193-181-188-169 6 14 207 205 216 205 4 0-9-16-28-36zm7911 16c0-17-7-20-45-20s-45 3-45 20 7 20 45 20 45-3 45-20zm-2102-227c147-267 150-273 131-273-20 1-140 27-143 31-5 7-126 457-126 468 0 6 2 11 4 11s63-107 134-237zm-7888 212c0-13-18-15-127-13-90 2-128 7-131 16s27 12 127 12c111 0 131-2 131-15zm550-15c0-23-4-30-20-30s-20 7-20 30 4 30 20 30 20-7 20-30zm120 0c0-23-4-30-20-30s-20 7-20 30 4 30 20 30 20-7 20-30zm80 0c0-23-4-30-20-30s-20 7-20 30 4 30 20 30 20-7 20-30zm9550-10c0-17-7-20-45-20s-45 3-45 20 7 20 45 20 45-3 45-20zm460-170v-190h-50-50v118c0 64 5 134 10 154 10 33 67 108 84 108 3 0 6-85 6-190zm80 154c46-52 50-71 50-215v-129h-50-50v190c0 105 4 190 9 190s23-16 41-36zm490-154v-190h-56-56l4 133c2 83 9 141 17 157 16 30 71 90 83 90 4 0 8-85 8-190zm73 151c47-52 57-93 57-228v-113h-55-55v190c0 105 4 190 9 190s25-18 44-39zm487-151v-190h-56-56l4 133c2 83 9 141 17 157 16 30 71 90 83 90 4 0 8-85 8-190zm73 151c47-52 57-93 57-228v-113h-55-55v190c0 105 4 190 9 190s25-18 44-39zm477-151v-190h-50-50v118c0 64 5 134 10 154 10 33 67 108 84 108 3 0 6-85 6-190zm80 154c17-20 35-47 40-59 7-19 13-179 11-267-1-15-10-18-51-18h-50v190c0 105 4 190 9 190s23-16 41-36zm490-154v-190h-55-55v113c0 61 5 129 11 150 10 37 72 117 90 117 5 0 9-85 9-190zm73 151c47-52 57-93 57-228v-113h-55-55v190c0 105 4 190 9 190s25-18 44-39zm-3413 9c0-17-7-20-45-20s-45 3-45 20 7 20 45 20 45-3 45-20zm4915 0c0-18-72-27-87-12-19 19 3 33 45 30 29-2 42-8 42-18zm-12496-16c-39-43-203-190-198-179 6 14 206 205 215 205 4 0-3-12-17-26zm-2089 1c0-13-21-15-130-15s-130 2-130 15 21 15 130 15 130-2 130-15zm9990-5c0-17-7-20-45-20s-45 3-45 20 7 20 45 20 45-3 45-20zm4600-35c0-11-12-15-50-15s-50 4-50 15 12 15 50 15 50-4 50-15zm-14590-10c0-13-21-15-130-15-119 0-142 4-123 23 3 4 62 7 130 7 103 0 123-2 123-15zm498-12c-2-17-10-29-20-31-14-3-18 3-18 27 0 25 4 31 21 31 16 0 20-5 17-27zm52-3c0-23-4-30-20-30s-20 7-20 30 4 30 20 30 20-7 20-30zm70 0c0-23-4-30-20-30s-20 7-20 30 4 30 20 30 20-7 20-30zm50 0c0-23-4-30-20-30s-20 7-20 30 4 30 20 30 20-7 20-30zm80 0c0-23-4-30-20-30s-20 7-20 30 4 30 20 30 20-7 20-30zm1255-74c-60-57-112-102-114-100-5 5 203 203 214 203 6 0-39-46-100-103zm7100 59c0-40 0-40-42-43l-43-3v46 46l43-3c42-3 42-3 42-43zm565 25c0-17-7-20-45-20s-45 3-45 20 7 20 45 20 45-3 45-20zm320-20c0-17-7-20-45-20s-45 3-45 20 7 20 45 20 45-3 45-20zm-9990-25c0-13-21-15-130-15-119 0-142 4-123 23 3 4 62 7 130 7 103 0 123-2 123-15zm14590 0c0-11-12-15-50-15s-50 4-50 15 12 15 50 15 50-4 50-15zm-12585-99c-60-57-112-102-114-100-6 6 202 203 214 203 6 0-39-46-100-103zm8295 84c0-17-7-20-45-20s-45 3-45 20 7 20 45 20 45-3 45-20zm-630-10c0-17-7-20-45-20s-45 3-45 20 7 20 45 20 45-3 45-20zm-10060-5c0-12-17-15-90-15s-90 3-90 15 17 15 90 15 90-3 90-15zm7543-68c15-70 14-79-9-70-10 4-14 24-14 76 0 39 2 68 5 66 2-3 11-35 18-72zm2837 53c0-17-7-20-45-20s-45 3-45 20 7 20 45 20 45-3 45-20zm4313 5c-2-11-61-23-80-17-7 2-13 11-13 19 0 11 11 13 48 11 26-2 46-7 45-13zm-13805-28c3-22-1-27-17-27-17 0-21 6-21 31 0 24 4 30 18 27 10-2 18-14 20-31zm122 3c0-23-4-30-20-30s-20 7-20 30 4 30 20 30 20-7 20-30zm50 0c0-23-4-30-20-30s-20 7-20 30 4 30 20 30 20-7 20-30zm80 0c0-23-4-30-20-30s-20 7-20 30 4 30 20 30 20-7 20-30zm13840 4c0-10-14-14-50-14-37 0-50 4-50 14 0 9 12 16 28 18 41 5 72-3 72-18zm-14590 1c0-13-18-15-127-13-90 2-128 7-131 16s27 12 127 12c111 0 131-2 131-15zm2005-99c-60-57-112-102-115-99-6 6 202 202 215 202 6 1-39-46-100-103zm8295 74c0-17-7-20-45-20s-45 3-45 20 7 20 45 20 45-3 45-20zm-10690-5c0-12-17-15-90-15s-90 3-90 15 17 15 90 15 90-3 90-15zm5084-5c44-6 81-11 82-13 2-3-172-237-191-257-13-13-15 4-15 138v152l23-5c12-2 58-9 101-15zm4184-33l3-48-43 3c-42 3-43 4-46 42-4 45 9 57 53 54 28-3 30-6 33-51zm330 44c8-5 12-23 10-47-3-38-4-39-45-42l-43-3v44c0 24 3 47 7 50 9 10 55 8 71-2zm462-11c0-17-7-20-45-20s-45 3-45 20 7 20 45 20 45-3 45-20zm4634-5c-4-10-20-15-50-15-32 0-44 4-44 15s12 15 50 15c40 0 48-3 44-15zm-14304-10c0-13-21-15-130-15s-130 2-130 15 21 15 130 15 130-2 130-15zm2570-110v-125h-35-35v63c0 50 6 77 30 125 16 34 32 62 35 62s5-56 5-125zm69 46c12-33 21-82 21-115v-56h-35-35v126c0 143 10 152 49 45zm1561-46v-125h-30-30v64c0 58 11 102 42 164 6 12 13 22 15 22s3-56 3-125zm10385 105c0-11-13-16-47-18-36-2-48 0-48 11 0 23 12 28 55 25 28-2 40-8 40-18zm-10311-58c9-24 16-71 16-107v-65h-30-30v122c0 103 2 120 14 108 7-8 21-34 30-58zm646 52c36-3 68-8 72-10 4-3-30-62-76-131l-84-127-123-27c-68-16-127-28-131-29-21-1-3 44 44 106 163 218 179 235 206 230 15-3 56-8 92-12zm5070 1c0-11-12-15-45-15s-45 4-45 15 12 15 45 15 45-4 45-15zm-7986-99c-60-57-111-102-114-99-6 6 201 202 214 203 6 0-39-47-100-104zm-2394 79c0-12-17-15-90-15s-90 3-90 15 17 15 90 15 90-3 90-15zm888-28c3-22-1-27-17-27-17 0-21 6-21 31 0 24 4 30 18 27 10-2 18-14 20-31zm52 3c0-23-4-30-20-30s-20 7-20 30 4 30 20 30 20-7 20-30zm70 0c0-23-4-30-20-30s-20 7-20 30 4 30 20 30 20-7 20-30zm50 0c0-23-4-30-20-30s-20 7-20 30 4 30 20 30 20-7 20-30zm80 0c0-23-4-30-20-30s-20 7-20 30 4 30 20 30 20-7 20-30zm4408 14c23-4 42-9 42-13-1-3-22-42-49-86l-48-80-118-27c-66-15-121-25-124-23-2 3 16 35 40 72 25 38 61 92 79 121l35 54 50-6c27-4 69-9 93-12zm5142-4c0-17-7-20-45-20s-45 3-45 20 7 20 45 20 45-3 45-20zm4003 14c16-17-8-34-49-34-42 0-57 14-37 33 8 9 77 9 86 1zm-4665-26c3-14-3-18-27-18-25 0-31 4-31 21 0 16 5 20 27 17 17-2 29-10 31-20zm-4238-22c0-6-10-29-23-50-22-39-24-40-127-62-58-13-109-23-114-24-11 0-2 20 43 98l39 68 91-10c55-5 91-13 91-20zm-5400 9c0-13-18-15-127-13-90 2-128 7-131 16s27 12 127 12c111 0 131-2 131-15zm-390-10c0-12-17-15-90-15s-90 3-90 15 17 15 90 15 90-3 90-15zm2400-82c-57-54-108-99-114-101s36 42 94 97 109 100 113 101c5 0-37-44-93-97zm3526 75c52-6 94-14 94-17 0-7-243-62-248-56-7 6 39 85 49 85 5 0 53-5 105-12zm8768-6c11-19-13-33-50-30-27 2-40 8-42 21-3 14 4 17 42 17 25 0 47-4 50-8zm676-1c0-5-17-11-37-15-21-3-50-12-65-20-26-14-28-13-28 4 0 10 7 23 16 28 20 11 114 13 114 3zm-14980-26c0-13-21-15-130-15s-130 2-130 15 21 15 130 15 130-2 130-15zm9638-7c3-14-3-18-27-18-25 0-31 4-31 21 0 16 5 20 27 17 17-2 29-10 31-20zm662 12c0-5-20-10-45-10s-45 5-45 10c0 6 20 10 45 10s45-4 45-10zm4288-12c3-15-4-18-47-18-36 0-51 4-51 13 0 23 12 28 55 25 29-2 41-8 43-20zm-14978-3c0-12-17-15-90-15s-90 3-90 15 17 15 90 15 90-3 90-15zm2400-92c-56-54-107-99-114-101-6-2 39 44 99 101 61 58 112 104 113 102 2-2-42-48-98-102zm-1512 64c3-22-1-27-17-27-17 0-21 6-21 31 0 24 4 30 18 27 10-2 18-14 20-31zm52 3c0-23-4-30-20-30s-20 7-20 30 4 30 20 30 20-7 20-30zm70 0c0-23-4-30-20-30s-20 7-20 30 4 30 20 30 20-7 20-30zm50 0c0-23-4-30-20-30s-20 7-20 30 4 30 20 30 20-7 20-30zm80 0c0-23-4-30-20-30s-20 7-20 30 4 30 20 30 20-7 20-30zm-420 5c0-13-18-15-127-13-90 2-128 7-131 16s27 12 127 12c111 0 131-2 131-15zm13974-3c11-19-13-33-50-30-27 2-40 8-42 21-3 14 4 17 42 17 25 0 47-4 50-8zm-14304-17c0-13-21-15-130-15-119 0-142 4-123 23 3 4 62 7 130 7 103 0 123-2 123-15zm14880 11c0-2-7-19-15-37l-14-34-1 38c0 26 4 37 15 37 8 0 15-2 15-4zm147-24c-31-36-79-140-92-197-7-33-23-96-34-139-12-44-21-99-21-123 0-32-4-43-15-43-13 0-15 28-15 192 0 105 3 188 7 184 4-3 12 8 17 26 6 18 18 33 26 33s21 10 28 23c8 13 19 21 27 19 7-3 25 8 40 23 29 30 57 31 32 2zm-442-2c0-18-72-27-87-12-19 19 3 33 45 30 29-2 42-8 42-18zm-14975-5c0-13-14-15-87-13-58 2-88 7-91 16s19 12 87 12c75 0 91-3 91-15zm2500 11c0-3-6-11-14-18s-55-53-105-102-94-87-97-84c-4 4 205 208 214 208 1 0 2-2 2-4zm4625-56c226-28 429-52 451-55 37-5 42-9 48-37 11-56 0-59-174-41-119 11-223 13-450 9-162-4-319-9-347-12-65-7-66-4-22 113 30 77 33 82 58 77 14-2 211-27 436-54zm2903 38c3-14-3-18-27-18-25 0-31 4-31 21 0 16 5 20 27 17 17-2 29-10 31-20zm-9308-3c0-13-21-15-130-15s-130 2-130 15 21 15 130 15 130-2 130-15zm-330-25c0-6-50-10-130-10s-130 4-130 10 50 10 130 10 130-4 130-10zm-390-15c0-12-17-15-90-15s-90 3-90 15 17 15 90 15 90-3 90-15zm885-20c0-20-6-31-17-33-15-3-18 4-18 33s3 36 18 33c11-2 17-13 17-33zm50 0c0-20-6-31-17-33-15-3-18 4-18 33s3 36 18 33c11-2 17-13 17-33zm75-1c0-28-3-35-17-32-12 2-19 14-21 36-3 27 0 32 17 32s21-6 21-36zm50 0c0-28-3-35-17-32-31 6-29 68 2 68 11 0 15-10 15-36zm78 4c-2-22-9-34-20-36-15-3-18 4-18 32 0 30 4 36 21 36s20-5 17-32zm13842 17c0-31-92-33-98-2-3 14 4 17 47 17 38 0 51-4 51-15zm-14260-10c0-13-21-15-130-15-119 0-142 4-123 23 3 4 62 7 130 7 103 0 123-2 123-15zm1678-90c-59-58-111-105-115-104-5 0 41 47 102 105 60 57 112 104 115 104s-43-48-102-105zm3932 88c0-3-43-100-97-215-75-163-100-208-115-208-22 0-78 27-78 38 0 4-4 13-9 20-6 10-17 4-43-22-31-31-42-36-83-36s-52 5-79 33l-31 33-31-33c-27-28-38-33-79-33-40 0-52 5-80 33l-33 33-36-33c-30-27-44-33-82-33-40 0-51 5-78 33l-31 33-31-33c-27-28-38-33-79-33-40 0-52 5-80 33l-33 33-36-34c-32-28-43-33-79-30l-42 3-3 98c-1 53 1 97 5 97 11 0 1019 172 1223 209 121 21 140 23 140 14zm3690-13c0-15-7-20-25-20-24 0-34 18-18 33 15 15 43 7 43-13zm4672 11c4-1 5-8 2-16-8-21-94-21-94-1 0 15 31 25 65 20 11-1 23-3 27-3zm-14302-26c0-13-18-15-127-13-90 2-128 7-131 16s27 12 127 12c111 0 131-2 131-15zm2570-90v-105h-35-35v98c0 54 3 102 7 105 3 4 19 7 35 7h28v-105zm88-2l3-103h-36-35v106 105l33-3 32-3 3-102zm1542 2v-105h-30-30v105 105h30 30v-105zm90 0v-105h-30-30v105 105h30 30v-105zm-4680 80c0-12-17-15-90-15s-90 3-90 15 17 15 90 15 90-3 90-15zm720-15c0-19-7-20-124-20-119 0-146 6-131 30 4 6 58 10 131 10 117 0 124-1 124-20zm14260 5c0-11-12-15-50-15s-50 4-50 15 12 15 50 15 50-4 50-15zm-12530-51c-30-30-82-78-115-106-33-27-11-2 49 56 116 112 158 144 66 50zm7844 32c17-13 39-38 49-55l18-31h-106-106l15 29c16 31 71 81 88 81 6 0 25-11 42-24zm933-21c24-25 43-50 43-55 0-6-43-10-106-10h-106l17 28c22 35 75 82 94 82 8 0 34-20 58-45zm547 21c17-13 39-38 49-55l18-31h-105c-72 0-106 4-106 11 0 16 84 99 100 99 7 0 27-11 44-24zm560 0c17-13 39-38 49-55l18-31h-105c-63 0-106 4-106 10 0 15 85 100 100 100 7 0 27-11 44-24zm550 0c17-13 39-38 49-55l18-31h-104c-100 0-105 1-100 20 6 22 77 90 95 90 6 0 25-11 42-24zm561 6c26-22 65-72 65-83 0-5-45-9-100-9s-100 3-100 8c0 13 34 59 60 81 30 25 49 26 75 3zm922-8c18-14 40-38 48-55l16-29h-106c-62 0-105 4-105 10 0 15 85 100 100 100 7 0 28-11 47-26zm317 10c30-12 5-34-40-34-42 0-57 14-37 33 8 9 56 9 77 1zm-14294-19c0-13-21-15-130-15s-130 2-130 15 21 15 130 15 130-2 130-15zm-390-10c0-12-17-15-90-15s-90 3-90 15 17 15 90 15 90-3 90-15zm885-20c0-20-6-31-17-33-15-3-18 4-18 33s3 36 18 33c11-2 17-13 17-33zm50 0c0-20-6-31-17-33-15-3-18 4-18 33s3 36 18 33c11-2 17-13 17-33zm75-1c0-28-3-35-17-32-31 6-29 68 2 68 11 0 15-10 15-36zm50 0c0-28-3-35-17-32-31 6-29 68 2 68 11 0 15-10 15-36zm78 4c-2-22-9-34-20-36-15-3-18 4-18 32 0 30 4 36 21 36s20-5 17-32zm13840 0c3-15-4-18-47-18-36 0-51 4-51 13 0 23 12 28 55 25 29-2 41-8 43-20zm-14258-3c0-13-21-15-130-15s-130 2-130 15 21 15 130 15 130-2 130-15zm7540-15c135-17 346-43 470-58l225-28 3-71c3-76-2-82-65-83-19 0-23-6-23-30 0-28-3-30-35-30-44 0-81 17-100 46l-14 23-35-35c-29-29-41-34-81-34s-52 5-81 34c-32 32-35 33-44 15-34-62-155-64-195-3l-14 23-35-35c-29-29-41-34-79-34-82 0-86 6-173 288-16 52-40 51 276 12zm-5800-26c-25-25-76-73-115-106-50-43-39-30 38 46 107 105 163 149 77 60zm-2070 21c0-13-21-15-130-15s-130 2-130 15 21 15 130 15 130-2 130-15zm14303 9c15-16-8-34-43-34-39 0-56 12-45 30 7 11 78 14 88 4zm-14693-29c0-12-15-15-74-15-77 0-106 6-106 21 0 5 41 9 90 9 73 0 90-3 90-15zm720-10c0-13-21-15-130-15-119 0-142 4-123 23 3 4 62 7 130 7 103 0 123-2 123-15zm9300-4c0-13-7-18-25-18s-25 5-25 18c0 14 7 19 25 19s25-5 25-19zm4958-3c3-15-4-18-47-18-45 0-51 3-51 21s5 20 47 17c36-2 49-7 51-20zm-14590-20c3-16-8-18-122-18-72 0-127 4-131 10-16 25 11 31 128 28 107-3 122-5 125-20zm2007-83c-60-57-111-102-114-100-2 3-2 6 0 8 2 1 50 46 107 100 56 53 106 97 110 97 4-1-42-48-103-105zm-1507 62c2-18-2-29-13-34-25-9-37 22-26 65 1 2 9 2 19 0s18-14 20-31zm47-2c0-20-6-31-17-33-15-3-18 4-18 33s3 36 18 33c11-2 17-13 17-33zm75 0c0-28-4-35-20-35-15 0-20 7-20 28 0 32 7 42 27 42 8 0 13-13 13-35zm50 0c0-28-4-35-20-35-15 0-20 7-20 28 0 32 7 42 27 42 8 0 13-13 13-35zm13630 14c0-18-5-20-42-17-31 2-44 8-46 21-3 14 4 17 42 17 40 0 46-3 46-21zm-14690-4c0-12-17-15-90-15s-90 3-90 15 17 15 90 15 90-3 90-15zm720-10c0-13-21-15-130-15-119 0-142 4-123 23 3 4 62 7 130 7 103 0 123-2 123-15zm9520-70v-85h-50-50v85 85h50 50v-85zm130 0v-85h-50-50v85 85h50 50v-85zm780 0v-85h-50-50v85 85h50 50v-85zm130 0v-85h-50-50v85 85h50 50v-85zm440 0v-85h-50-50v85 85h50 50v-85zm130 0v-85h-55-55v85 85h55 55v-85zm430 0v-85h-50-50v85 85h50 50v-85zm130 0v-85h-55-55v85 85h55 55v-85zm420 0v-85h-50-50v85 85h50 50v-85zm130 0v-85h-50-50v85 85h50 50v-85zm440 0v-85h-55-55v85 85h55 55v-85zm130 0v-85h-55-55v85 85h55 55v-85zm780 0v-85h-55-55v63c0 100 4 107 61 107h49v-85zm130 1v-84l-39-4c-22-2-45-2-50 0-7 2-11 37-11 88v84h50 50v-84zm-4420 49c0-9-9-15-25-15s-25 6-25 15 9 15 25 15 25-6 25-15zm-9630-10c0-13-18-15-127-13-90 2-128 7-131 16s27 12 127 12c111 0 131-2 131-15zm2110 11c0-2-50-50-112-107-61-57-109-99-107-94 5 13 205 205 213 205 3 0 6-2 6-4zm-2500-21c0-12-17-15-90-15s-90 3-90 15 17 15 90 15 90-3 90-15zm14694 0c-4-10-20-15-50-15-32 0-44 4-44 15s12 15 50 15c40 0 48-3 44-15zm-7349-16c83-12 203-45 228-64 25-18 14-51-26-76-55-33-131-21-162 27l-14 23-35-35c-29-29-41-34-81-34s-52 5-79 32l-33 33-30-32c-25-27-38-33-71-33-50 0-87 16-107 46l-14 23-35-35c-29-29-41-34-81-34-39 0-52 5-78 32-18 18-35 31-39 30-11-3-10 66 1 73 58 35 466 51 656 24zm-6625-4c0-13-18-15-127-13-90 2-128 7-131 16s27 12 127 12c111 0 131-2 131-15zm14260-10c0-11-12-15-50-15s-50 4-50 15 12 15 50 15 50-4 50-15zm-14590-10c0-13-21-15-130-15s-130 2-130 15 21 15 130 15 130-2 130-15zm495-20c0-40-30-47-38-8-6 34 0 45 21 41 11-2 17-13 17-33zm50 0c0-20-6-31-17-33-15-3-18 4-18 33s3 36 18 33c11-2 17-13 17-33zm75 0c0-28-4-35-20-35-15 0-20 7-20 28 0 32 7 42 27 42 8 0 13-13 13-35zm50-1c0-28-3-35-17-32-31 6-29 68 2 68 11 0 15-10 15-36zm80 1c0-28-4-35-20-35s-20 7-20 35 4 35 20 35 20-7 20-35zm-1140 10c0-12-17-15-90-15s-90 3-90 15 17 15 90 15 90-3 90-15zm2415-70c-49-46-91-82-93-80-5 5 162 164 173 164 6 0-30-38-80-84zm7605 65c0-15-7-20-25-20s-25 5-25 20 7 20 25 20 25-5 25-20zm4673 14c16-17-8-34-49-34-42 0-57 14-37 33 8 9 77 9 86 1zm-13973-29c0-13-21-15-130-15s-130 2-130 15 21 15 130 15 130-2 130-15zm14258-17c3-15-4-18-47-18-36 0-51 4-51 13 0 23 12 28 55 25 29-2 41-8 43-20zm-14588-3c0-13-21-15-130-15s-130 2-130 15 21 15 130 15 130-2 130-15zm-390-20c0-12-17-15-90-15s-90 3-90 15 17 15 90 15 90-3 90-15zm14693 9c15-16-8-34-43-34-39 0-56 12-45 30 7 11 78 14 88 4zm-13973-19c0-13-21-15-130-15-119 0-142 4-123 23 3 4 62 7 130 7 103 0 123-2 123-15zm9300-5c0-15-7-20-25-20s-25 5-25 20 7 20 25 20 25-5 25-20zm-9630-20c0-19-7-20-124-20-73 0-127 4-131 10-15 24 12 30 131 30 117 0 124-1 124-20zm495-15c0-20-6-31-17-33-15-3-18 4-18 33s3 36 18 33c11-2 17-13 17-33zm125 0c0-28-4-35-20-35-15 0-20 7-20 28 0 32 7 42 27 42 8 0 13-13 13-35zm50 0c0-28-4-35-20-35-15 0-20 7-20 28 0 32 7 42 27 42 8 0 13-13 13-35zm78-3c3-27 0-32-17-32-16 0-21 6-21 28 0 53 33 56 38 4zm13840 16c3-15-4-18-47-18-36 0-51 4-51 13 0 23 12 28 55 25 29-2 41-8 43-20zm-14978-13c0-12-17-15-90-15s-90 3-90 15 17 15 90 15 90-3 90-15zm720-15c0-6-50-10-130-10s-130 4-130 10 50 10 130 10 130-4 130-10z"/>
<path d="m8299 2739l-24-20 28 17c15 9 27 18 27 20 0 8-8 4-31-17z"/>
<path d="m8353 910c0-30 2-43 4-27 2 15 2 39 0 55-2 15-4 2-4-28z"/>
<path d="m5580 4971c0-37-2-40-32-43-46-4-49-28-4-28h36v-77c0-43-9-127-20-188-11-60-23-127-26-147-6-34-10-38-35-38-34 0-39-17-7-22s35-28 4-28c-14 0-26-4-26-10 0-5 9-10 20-10 26 0 26 1-10-185-16-86-30-159-30-161s-16-4-35-4-35-4-35-10c0-5 14-10 30-10 20 0 30-5 30-15s-10-15-30-15c-16 0-30-4-30-10 0-5 10-10 23-10s26-2 29-5c2-3-7-67-22-142-25-135-26-138-53-141-34-4-36-22-2-22 14 0 25-4 25-10 0-5-11-10-25-10-16 0-25-6-25-15s9-15 21-15c17 0 20-5 16-22-3-13-13-66-22-119l-17-97 50-113c28-63 57-132 66-153 9-22 18-37 20-35s32 71 67 152c34 81 65 144 69 140s34-70 66-145c32-76 61-138 65-138 3 0 34 66 69 146l63 145-17 102c-10 56-20 110-22 120-4 12 0 17 15 17 27 0 37 19 14 26-45 15-48 18-23 22 39 6 48 22 13 22-37 0-35-4-63 149-26 146-26 141 10 141 17 0 30 5 30 10 0 6-16 10-35 10-24 0-35 5-35 15 0 11 11 15 36 15 21 0 33 4 29 10-3 6-22 10-41 10s-34 2-34 6c0 9-51 298-57 322-4 17-1 22 16 22 12 0 21 5 21 10 0 6-12 10-26 10-31 0-28 23 4 28 31 5 27 20-5 24-26 3-27 6-55 153-18 96-27 175-26 220l3 70 33 3c42 4 37 26-6 30-30 3-32 6-32 43 0 28-4 39-15 39s-15-11-15-39z"/>
<path d="m3910 3048c-24-26-27-84-4-116 22-32 76-30 103 4 60 76-34 182-99 112z"/>
<path d="m5330 2990c0-89 12-102 50-53 25 32 22 83-6 114-34 38-44 24-44-61z"/>
<path d="m5551 3044c-43-55-17-134 44-134 40 0 75 37 75 80 0 40-35 80-70 80-19 0-36-9-49-26z"/>
<path d="m5828 3060c-9-6-22-26-28-45-10-30-9-40 7-68 11-18 29-33 41-35 22-3 23-1 20 74-3 79-10 91-40 74z"/>
<path d="m7876 2920c-15-27-25-50-22-50 6 0 57 92 53 97-2 2-16-19-31-47z"/>
<path d="m7825 2830c-9-16-13-30-11-30 3 0 12 14 21 30 9 17 13 30 11 30-3 0-12-13-21-30z"/>
<path d="m7906 2845c-9-26-7-32 5-12 6 10 9 21 6 23-2 3-7-2-11-11z"/>
<path d="m3920 2790c-19-19-20-33-20-428 0-450 0-452 60-452 23 0 33 7 45 30 14 26 15 84 13 431l-3 401-24 19c-30 24-46 24-71-1z"/>
<path d="m5560 2790c-19-19-20-33-20-428 0-450 0-452 60-452s60 3 60 448v403l-25 24c-29 30-49 31-75 5z"/>
<path d="m5830 2790c-19-19-20-31-20-433 0-388 1-415 18-430 10-10 24-17 30-17 15 0 17 886 2 895-5 3-18-3-30-15z"/>
<path d="m7871 2754c-12-31-20-58-18-61 2-2 14 22 26 53s20 59 17 61c-2 2-14-21-25-53z"/>
<path d="m7757 2713c-56-99-69-123-64-123 3 0 28 42 57 93 66 115 62 107 56 107-2 0-24-35-49-77z"/>
<path d="m7713 2718c-20-26-26-41-15-34 12 7 36 46 29 46-3 0-9-6-14-12z"/>
<path d="m8652 2705c0-21 25-107 27-90 0 6-6 33-13 60-8 28-14 41-14 30z"/>
<path d="m8622 2675c0-16 2-22 5-12 2 9 2 23 0 30-3 6-5-1-5-18z"/>
<path d="m7780 2671c-15-30-32-77-24-68 9 9 44 87 39 87-2 0-9-9-15-19z"/>
<path d="m7875 2635c-9-31-15-58-12-61 2-2 11 21 20 53 9 31 15 59 12 61-2 2-11-21-20-53z"/>
<path d="m8701 2685c0-5 6-21 14-35s14-20 14-15c0 6-6 21-14 35s-14 21-14 15z"/>
<path d="m7614 2568c-37-57-73-113-82-125-8-13-12-23-9-23s36 46 73 103c37 56 73 112 82 125 8 12 12 22 9 22s-36-46-73-102z"/>
<path d="m7816 2614c-21-62-14-68 9-9 9 26 15 48 12 51s-12-16-21-42z"/>
<path d="m14570 2615c0-9 5-15 11-13s11 8 11 13-5 11-11 13-11-4-11-13z"/>
<path d="m15317 2623c-12-11-8-23 8-23 8 0 15 7 15 15 0 16-12 20-23 8z"/>
<path d="m8632 2600c0-14 2-19 5-12 2 6 2 18 0 25-3 6-5 1-5-13z"/>
<path d="m8744 2590c8-30 59-140 63-137 2 3-12 38-32 78-19 41-33 67-31 59z"/>
<path d="m7668 2558c-8-13-23-39-32-58-15-31-15-33-1-15 19 23 58 95 51 95-2 0-10-10-18-22z"/>
<path d="m8593 2520c0-36 2-50 4-32 2 17 2 47 0 65-2 17-4 3-4-33z"/>
<path d="m14500 2540c0-20 5-30 15-30s15 10 15 30-5 30-15 30-15-10-15-30z"/>
<path d="m14570 2541c0-21 5-31 16-31s14 8 12 27c-4 39-28 42-28 4z"/>
<path d="m15310 2540c0-20 5-30 15-30s15 10 15 30-5 30-15 30-15-10-15-30z"/>
<path d="m15377 2564c-4-4-7-18-7-31 0-17 6-23 21-23 16 0 20 5 17 27-3 26-18 39-31 27z"/>
<path d="m7947 2535c-20-14-37-28-37-31 0-2 18 8 40 22 35 23 47 34 37 34-1 0-19-11-40-25z"/>
<path d="m8642 2535c0-16 2-22 5-12 2 9 2 23 0 30-3 6-5-1-5-18z"/>
<path d="m7710 2526c-5-15-15-36-20-47-6-10-8-19-6-19 9 0 48 82 42 87-3 3-10-6-16-21z"/>
<path d="m7760 2468c-13-35-35-74-49-88-15-14-21-21-14-17 7 5 16 7 20 5s24 12 43 31 27 29 17 21c-27-20-29-7-7 50 11 29 19 54 17 57-3 2-15-25-27-59z"/>
<path d="m8707 2500c3-19 12-53 19-75 13-38 13-38 7-5-3 19-12 53-19 75-13 38-13 38-7 5z"/>
<path d="m7950 2479c-35-31-35-31-3-9 18 11 35 25 38 30 10 16 2 11-35-21z"/>
<path d="m7821 2470c-8-19-16-48-18-64-2-17-13-41-26-55-12-13-17-21-10-18 6 4 14 1 16-5 4-9 6-9 6 1 1 8 11 26 24 39 12 14 16 22 8 17-11-6-13-2-7 21 7 28 17 40 67 77l24 19-27-16c-34-20-36-20-40 2-3 12-8 6-17-18z"/>
<path d="m14500 2470c0-20 5-30 15-30s15 10 15 30-5 30-15 30-15-10-15-30z"/>
<path d="m14570 2471c0-21 5-31 16-31s14 8 12 27c-4 39-28 42-28 4z"/>
<path d="m14637 2493c-4-3-7-17-7-30 0-17 5-23 16-21 8 2 15 6 15 11-1 4-1 16-1 27 0 20-11 26-23 13z"/>
<path d="m15240 2470c0-20 5-30 15-30s15 10 15 30-5 30-15 30-15-10-15-30z"/>
<path d="m15310 2470c0-20 5-30 15-30s15 10 15 30-5 30-15 30-15-10-15-30z"/>
<path d="m15377 2493c-4-3-7-17-7-30 0-16 6-23 20-23 16 0 20 7 20 30 0 28-17 40-33 23z"/>
<path d="m8652 2465c-1-16 5-64 13-105l14-75-6 65c-3 36-9 83-13 105-7 34-8 36-8 10z"/>
<path d="m7545 2341c-55-95-77-123-112-145-24-16-43-30-43-33s11 2 25 11c13 9 30 16 36 16s21 10 33 23c12 12 32 30 46 40 21 15 22 16 3 7-13-6-23-8-23-4s20 41 44 83c55 97 68 121 63 121-3 0-35-53-72-119z"/>
<path d="m7863 2414l-28-26 33 22c29 20 39 30 28 30-3 0-18-12-33-26z"/>
<path d="m7939 2413l-24-28 28 24c15 14 27 26 27 28 0 8-8 1-31-24z"/>
<path d="m7639 2377c-13-28-37-64-53-80-16-15-21-24-11-21 25 10-29-93-69-130-17-15-23-23-14-16 9 6 22 9 28 5 5-3 10-1 10 5s15 25 33 42c17 17 26 28 20 24-7-4-13-2-13 4 0 17 37 85 54 99 9 7 13 17 11 22-3 4 4 27 15 50 12 22 20 43 17 45-2 2-14-20-28-49z"/>
<path d="m14500 2400c0-20 5-30 15-30s15 10 15 30-5 30-15 30-15-10-15-30z"/>
<path d="m14570 2399c0-38 24-35 28 4 2 19-1 27-12 27s-16-10-16-31z"/>
<path d="m14630 2400c0-24 4-31 17-28 11 2 17 12 17 28s-6 26-17 28c-13 3-17-4-17-28z"/>
<path d="m15240 2400c0-20 5-30 15-30s15 10 15 30-5 30-15 30-15-10-15-30z"/>
<path d="m15310 2400c0-20 5-30 15-30s15 10 15 30-5 30-15 30-15-10-15-30z"/>
<path d="m15370 2400c0-23 4-30 20-30s20 7 20 30-4 30-20 30-20-7-20-30z"/>
<path d="m8821 2415c0-5 6-21 14-35s14-20 14-15c0 6-6 21-14 35s-14 21-14 15z"/>
<path d="m7492 2383c-30-44-36-57-25-50 12 7 55 77 48 77-2 0-12-12-23-27z"/>
<path d="m7884 2368l-19-23 23 19c12 11 22 21 22 23 0 8-8 2-26-19z"/>
<path d="m14500 2330c0-20 5-30 15-30s15 10 15 30-5 30-15 30-15-10-15-30z"/>
<path d="m14570 2330c0-21 4-30 13-27 6 2 12 14 12 27s-6 25-12 28c-9 2-13-7-13-28z"/>
<path d="m14632 2333c4-36 32-39 32-3 0 16-6 26-18 28-14 3-17-2-14-25z"/>
<path d="m15240 2330c0-20 5-30 15-30s15 10 15 30-5 30-15 30-15-10-15-30z"/>
<path d="m15310 2330c0-20 5-30 15-30s15 10 15 30-5 30-15 30-15-10-15-30z"/>
<path d="m15372 2333c2-17 10-29 21-31 13-3 17 3 17 27 0 25-4 31-21 31-16 0-20-5-17-27z"/>
<path d="m7700 2315c-7-21-24-42-45-55-18-11-39-28-46-37-8-10 2-5 22 10s39 27 42 27c13 0-27-77-56-110-18-19-24-28-15-21s22 10 28 6c5-3 10-2 10 4 0 5 12 24 28 42 15 18 21 30 15 25-31-18 0 58 37 94 14 14 21 22 16 18-18-14-27-8-21 12 3 11 4 20 1 20-2 0-10-16-16-35z"/>
<path d="m8751 2334c0-11 3-14 6-6 3 7 2 16-1 19-3 4-6-2-5-13z"/>
<path d="m7815 2316c-18-15-32-20-36-14s-10 1-14-12c-4-12-19-34-34-49-15-14-19-19-8-11 16 12 19 12 27 0s10-11 10 4c0 11 21 39 47 63 52 47 56 57 8 19z"/>
<path d="m8864 2316c16-46 90-205 93-202 4 4-84 207-94 215-3 4-3-2 1-13z"/>
<path d="m7387 2220c-45-66-80-108-107-125-22-14-40-28-40-31s10 2 22 10c27 19 42 21 33 4-4-7 2-2 14 12 11 14 32 36 48 49 15 13 22 20 14 15-21-11-9 15 37 84 47 69 54 82 49 82-2 0-34-45-70-100z"/>
<path d="m8766 2280c4-19 11-44 15-55 6-14 7-9 3 15-4 19-11 44-15 55-6 14-7 9-3-15z"/>
<path d="m14700 2290c0-5 7-10 15-10s15 5 15 10c0 6-7 10-15 10s-15-4-15-10z"/>
<path d="m15180 2290c0-5 5-10 10-10 6 0 10 5 10 10 0 6-4 10-10 10-5 0-10-4-10-10z"/>
<path d="m14500 2225c0-50 3-65 14-65s15 15 15 65-4 65-15 65-14-15-14-65z"/>
<path d="m14570 2224c0-48 3-65 13-62 19 7 20 128 1 128-11 0-14-15-14-66z"/>
<path d="m14632 2231c0-55 10-82 24-68 3 3 6 31 7 63 2 48-1 59-15 62-13 3-16-7-16-57z"/>
<path d="m15243 2228c1-39 7-63 15-66 9-3 12 14 12 62 0 51-3 66-14 66-12 0-14-14-13-62z"/>
<path d="m15311 2225c0-48 4-65 14-65s14 17 14 65-4 65-14 65-14-17-14-65z"/>
<path d="m15373 2228c2-49 5-63 17-63s15 14 17 63c2 55 0 62-17 62s-19-7-17-62z"/>
<path d="m14702 2213c4-39 28-42 28-4 0 21-5 31-16 31s-14-8-12-27z"/>
<path d="m15170 2216c0-26 14-41 29-32 13 8 0 56-15 56-8 0-14-10-14-24z"/>
<path d="m7895 2168l-50-53 53 50c48 46 57 55 49 55-1 0-25-24-52-52z"/>
<path d="m8791 2184c0-11 3-14 6-6 3 7 2 16-1 19-3 4-6-2-5-13z"/>
<path d="m8003 2168c-44-50-424-560-420-564 3-3 101 122 217 278 117 156 217 289 223 296 16 21 2 13-20-10z"/>
<path d="m7420 2123c-18-32-46-71-64-88-17-16-27-27-22-22 19 14 27 7 16-13-19-35-3-22 21 18 13 20 30 42 39 48 8 7 26 22 40 34l25 22-25-16c-38-25-41-20-13 29 13 25 23 45 20 45s-19-26-37-57z"/>
<path d="m14700 2145c0-16 6-25 15-25s15 9 15 25-6 25-15 25-15-9-15-25z"/>
<path d="m15170 2145c0-16 6-25 15-25s15 9 15 25-6 25-15 25-15-9-15-25z"/>
<path d="m14500 2125c0-16 6-25 15-25s15 9 15 25-6 25-15 25-15-9-15-25z"/>
<path d="m14570 2125c0-16 6-25 15-25s15 9 15 25-6 25-15 25-15-9-15-25z"/>
<path d="m14630 2124c0-19 4-25 18-22 24 5 25 48 1 48-14 0-19-7-19-26z"/>
<path d="m15240 2125c0-16 6-25 15-25s15 9 15 25-6 25-15 25-15-9-15-25z"/>
<path d="m15310 2125c0-16 6-25 15-25s15 9 15 25-6 25-15 25-15-9-15-25z"/>
<path d="m15370 2125c0-18 5-25 20-25s20 7 20 25-5 25-20 25-20-7-20-25z"/>
<path d="m8811 2114c0-11 3-14 6-6 3 7 2 16-1 19-3 4-6-2-5-13z"/>
<path d="m7536 2087c-39-31-40-32-33-7 6 24 5 24-8 6-8-11-15-25-15-30 0-6-25-35-57-64-32-30-41-41-21-25 21 15 41 28 45 29 9 1 141 124 133 124-3-1-23-15-44-33z"/>
<path d="m14706 2103c-12-13-6-53 9-53 9 0 15 9 15 24 0 26-12 40-24 29z"/>
<path d="m14770 2081c0-21 5-31 16-31s14 8 12 27c-4 39-28 42-28 4z"/>
<path d="m15110 2081c0-21 5-31 16-31s14 8 12 27c-4 39-28 42-28 4z"/>
<path d="m15177 2103c-13-13-7-53 8-53 10 0 15 10 15 30 0 29-9 38-23 23z"/>
<path d="m14500 2061c0-21 5-31 16-31s14 8 12 27c-4 39-28 42-28 4z"/>
<path d="m14570 2061c0-21 5-31 16-31s14 8 12 27c-4 39-28 42-28 4z"/>
<path d="m14637 2084c-4-4-7-18-7-31 0-18 5-24 17-21 11 2 17 12 17 27 0 25-14 37-27 25z"/>
<path d="m15247 2083c-13-13-7-53 8-53 10 0 15 10 15 30 0 29-9 38-23 23z"/>
<path d="m15316 2083c-12-13-6-53 9-53 9 0 15 9 15 24 0 26-12 40-24 29z"/>
<path d="m15377 2084c-4-4-7-18-7-31 0-17 6-23 21-23 16 0 20 5 17 27-3 26-18 39-31 27z"/>
<path d="m7116 1998c-32-33-53-57-47-54 22 14 9-7-84-130-76-102-111-138-175-185-44-32-80-61-80-64s24 13 54 35 58 39 63 38c5-2 27 15 48 37 22 22 56 53 75 68 33 27 34 27 3 7-18-12-33-19-33-15 0 19 187 249 220 271 42 28 54 42 20 24-22-12-27-1-8 18 7 7 10 12 8 12-3-1-31-28-64-62z"/>
<path d="m7263 2033c-9-16-22-35-27-43-9-12-8-13 4-3 17 13 54 73 46 73-3 0-13-12-23-27z"/>
<path d="m14700 2010c0-20 5-30 15-30s15 10 15 30-5 30-15 30-15-10-15-30z"/>
<path d="m14770 2011c0-21 5-31 16-31s14 8 12 27c-4 39-28 42-28 4z"/>
<path d="m15110 2011c0-21 5-31 16-31s14 8 12 27c-4 39-28 42-28 4z"/>
<path d="m15177 2034c-13-14-7-54 8-54 8 0 15 9 15 20s0 23 1 27c1 10-16 15-24 7z"/>
<path d="m14500 1991c0-21 5-31 16-31s14 8 12 27c-4 39-28 42-28 4z"/>
<path d="m14570 1991c0-21 5-31 16-31s14 8 12 27c-4 39-28 42-28 4z"/>
<path d="m14637 2014c-4-4-7-18-7-31 0-18 5-24 17-21 11 2 17 12 17 27 0 25-14 37-27 25z"/>
<path d="m15247 2013c-13-13-7-53 8-53 10 0 15 10 15 30 0 29-9 38-23 23z"/>
<path d="m15316 2013c-12-13-6-53 9-53 9 0 15 9 15 24 0 26-12 40-24 29z"/>
<path d="m15383 2013c-7-3-13-16-13-29 0-17 6-24 20-24 15 0 20 7 20 24 0 27-8 36-27 29z"/>
<path d="m7270 1969l-35-30 38 26c33 24 43 35 34 35-1 0-18-14-37-31z"/>
<path d="m7201 1937c-11-18-41-48-66-66s-45-35-45-37c0-3 14 4 30 16 37 27 38 20 2-33-37-54-44-67-39-67 3 0 24 30 48 68 24 37 55 77 68 90 14 12 25 32 26 42 2 27 0 25-24-13z"/>
<path d="m14700 1940c0-20 5-30 15-30s15 10 15 30-5 30-15 30-15-10-15-30z"/>
<path d="m14770 1940c0-20 5-30 15-30s15 10 15 30-5 30-15 30-15-10-15-30z"/>
<path d="m15110 1941c0-21 5-31 16-31s14 8 12 27c-4 39-28 42-28 4z"/>
<path d="m15177 1964c-4-4-7-18-7-31 0-18 5-24 17-21 11 2 17 12 17 27 0 25-14 37-27 25z"/>
<path d="m14500 1920c0-20 5-30 15-30s15 10 15 30-5 30-15 30-15-10-15-30z"/>
<path d="m14570 1920c0-21 4-30 13-27 6 2 12 14 12 27s-6 25-12 28c-9 2-13-7-13-28z"/>
<path d="m14637 1944c-13-14-7-54 8-54s16 3 19 37c1 17-16 28-27 17z"/>
<path d="m15240 1920c0-20 5-30 15-30s15 10 15 30-5 30-15 30-15-10-15-30z"/>
<path d="m15310 1920c0-20 5-30 15-30s15 10 15 30-5 30-15 30-15-10-15-30z"/>
<path d="m15377 1944c-4-4-7-18-7-31 0-17 6-23 21-23 16 0 20 5 17 27-3 26-18 39-31 27z"/>
<path d="m7013 1919c-35-22-46-37-15-20 22 13 58 40 52 41-3 0-20-10-37-21z"/>
<path d="m14700 1870c0-20 5-30 15-30s15 10 15 30-5 30-15 30-15-10-15-30z"/>
<path d="m14770 1870c0-20 5-30 15-30s15 10 15 30-5 30-15 30-15-10-15-30z"/>
<path d="m15110 1871c0-21 5-31 16-31s14 8 12 27c-4 39-28 42-28 4z"/>
<path d="m15174 1886c-7-20 2-46 16-46 5 0 10 9 10 20s0 23 1 27c1 15-21 14-27-1z"/>
<path d="m6934 1864c-18-14-18-15 4-4 12 6 22 13 22 15 0 8-5 6-26-11z"/>
<path d="m14500 1850c0-20 5-30 15-30s15 10 15 30-5 30-15 30-15-10-15-30z"/>
<path d="m14570 1850c0-20 5-30 15-30s15 10 15 30-5 30-15 30-15-10-15-30z"/>
<path d="m14630 1850c0-24 4-31 17-28 11 2 17 12 17 28s-6 26-17 28c-13 3-17-4-17-28z"/>
<path d="m15240 1850c0-20 5-30 15-30s15 10 15 30-5 30-15 30-15-10-15-30z"/>
<path d="m15310 1850c0-20 5-30 15-30s15 10 15 30-5 30-15 30-15-10-15-30z"/>
<path d="m15370 1850c0-23 4-30 20-30s20 7 20 30-4 30-20 30-20-7-20-30z"/>
<path d="m7040 1799l-35-31 32 22c29 19 50 40 41 40-2 0-19-14-38-31z"/>
<path d="m14700 1800c0-20 5-30 15-30s15 10 15 30-5 30-15 30-15-10-15-30z"/>
<path d="m14770 1799c0-38 24-35 28 4 2 19-1 27-12 27s-16-10-16-31z"/>
<path d="m15110 1799c0-38 24-35 28 4 2 19-1 27-12 27s-16-10-16-31z"/>
<path d="m15172 1803c4-39 28-42 28-4 0 21-5 31-16 31s-14-8-12-27z"/>
<path d="m14500 1780c0-20 5-30 15-30s15 10 15 30-5 30-15 30-15-10-15-30z"/>
<path d="m14570 1779c0-38 24-35 28 4 2 19-1 27-12 27s-16-10-16-31z"/>
<path d="m14632 1783c4-36 33-39 33-3 0 16-6 26-18 28-15 3-18-2-15-25z"/>
<path d="m15240 1780c0-20 5-30 15-30s15 10 15 30-5 30-15 30-15-10-15-30z"/>
<path d="m15310 1780c0-20 5-30 15-30s15 10 15 30-5 30-15 30-15-10-15-30z"/>
<path d="m15372 1783c2-17 10-29 21-31 13-3 17 3 17 27 0 25-4 31-21 31-16 0-20-5-17-27z"/>
<path d="m6759 1749l-24-20 28 17c15 9 27 18 27 20 0 8-8 4-31-17z"/>
<path d="m14700 1730c0-20 5-30 15-30s15 10 15 30-5 30-15 30-15-10-15-30z"/>
<path d="m14770 1729c0-38 24-35 28 4 2 19-1 27-12 27s-16-10-16-31z"/>
<path d="m15110 1729c0-38 24-35 28 4 2 19-1 27-12 27s-16-10-16-31z"/>
<path d="m15172 1733c4-39 28-42 28-4 0 21-5 31-16 31s-14-8-12-27z"/>
<path d="m7049 1704c-13-19-84-85-156-145-73-61-133-113-133-115 0-6 59 41 163 129 31 27 57 44 57 38 0-7-26-51-58-99-69-103-75-112-69-112 3 0 42 57 88 128 46 70 95 136 108 148 14 12 25 31 26 42 1 12 1 22 0 22-2 0-13-16-26-36z"/>
<path d="m14500 1710c0-20 5-30 15-30s15 10 15 30-5 30-15 30-15-10-15-30z"/>
<path d="m14570 1709c0-38 24-35 28 4 2 19-1 27-12 27s-16-10-16-31z"/>
<path d="m14632 1713c4-36 32-39 32-3 0 16-6 26-18 28-14 3-17-2-14-25z"/>
<path d="m15242 1713c4-39 28-42 28-4 0 21-5 31-16 31s-14-8-12-27z"/>
<path d="m15310 1710c0-20 5-30 15-30s15 10 15 30-5 30-15 30-15-10-15-30z"/>
<path d="m15372 1713c2-17 9-28 18-28s16 11 18 28c3 22-1 27-18 27s-21-5-18-27z"/>
<path d="m6663 1689c-35-22-46-37-15-20 22 13 58 40 52 41-3 0-20-10-37-21z"/>
<path d="m14702 1665c2-14 8-26 13-26 6 0 11 12 13 26 2 18-1 25-13 25s-15-7-13-25z"/>
<path d="m14770 1659c0-38 24-35 28 4 2 19-1 27-12 27s-16-10-16-31z"/>
<path d="m15110 1659c0-38 24-35 28 4 2 19-1 27-12 27s-16-10-16-31z"/>
<path d="m15172 1663c4-37 25-40 30-3 4 24 1 30-14 30s-19-6-16-27z"/>
<path d="m14570 1610c0-45 4-60 14-60s14 15 14 60-4 60-14 60-14-15-14-60z"/>
<path d="m14632 1610c0-51 3-61 16-58 23 4 22 112-1 116-12 3-15-8-15-58z"/>
<path d="m15242 1610c0-45 4-60 14-60s14 15 14 60-4 60-14 60-14-15-14-60z"/>
<path d="m15311 1610c1-43 4-60 14-60s13 17 14 60c0 45-4 60-14 60s-14-15-14-60z"/>
<path d="m15372 1610c0-51 3-60 18-60s18 9 18 60-3 60-18 60-18-9-18-60z"/>
<path d="m6537 1606c-73-50-110-80-77-61 34 19 160 106 160 110 0 7 1 8-83-49z"/>
<path d="m14700 1595c0-16 6-25 15-25s15 9 15 25-6 25-15 25-15-9-15-25z"/>
<path d="m14770 1595c0-16 6-25 15-25s15 9 15 25-6 25-15 25-15-9-15-25z"/>
<path d="m15110 1595c0-16 6-25 15-25s15 9 15 25-6 25-15 25-15-9-15-25z"/>
<path d="m15170 1595c0-15 6-25 14-25 7 0 16 11 18 25 4 19 1 25-13 25s-19-7-19-25z"/>
<path d="m6643 1504c-40-30-73-57-73-60 0-2 34 21 75 52 65 49 83 65 73 64-2 0-36-25-75-56z"/>
<path d="m14706 1553c-12-13-6-53 9-53 9 0 15 9 15 24 0 26-12 40-24 29z"/>
<path d="m14770 1531c0-21 5-31 16-31s14 8 12 27c-4 39-28 42-28 4z"/>
<path d="m15110 1531c0-21 5-31 16-31s14 8 12 27c-4 39-28 42-28 4z"/>
<path d="m15177 1553c-13-13-7-53 8-53 10 0 15 10 15 30 0 29-9 38-23 23z"/>
<path d="m6409 1519c-23-19-23-20-2-10 12 6 25 16 28 21 10 16-1 12-26-11z"/>
<path d="m14637 1534c-4-4-7-18-7-31 0-18 5-24 17-21 11 2 17 12 17 27 0 25-14 37-27 25z"/>
<path d="m15247 1533c-13-13-7-53 8-53 10 0 15 10 15 30 0 29-9 38-23 23z"/>
<path d="m15310 1510c0-20 5-30 15-30s15 10 15 30-5 30-15 30-15-10-15-30z"/>
<path d="m15377 1534c-4-4-7-18-7-31 0-17 6-23 21-23 16 0 20 5 17 27-3 26-18 39-31 27z"/>
<path d="m14700 1460c0-20 5-30 15-30s15 10 15 30-5 30-15 30-15-10-15-30z"/>
<path d="m14770 1461c0-21 5-31 16-31s14 8 12 27c-4 39-28 42-28 4z"/>
<path d="m15110 1461c0-21 5-31 16-31s14 8 12 27c-4 39-28 42-28 4z"/>
<path d="m15177 1483c-13-13-7-53 8-53 10 0 15 10 15 30 0 29-9 38-23 23z"/>
<path d="m6319 1459l-24-20 28 17c15 9 27 18 27 20 0 8-8 4-31-17z"/>
<path d="m15247 1463c-13-13-7-53 8-53 10 0 15 10 15 30 0 29-9 38-23 23z"/>
<path d="m15317 1463c-13-13-7-53 8-53 10 0 15 10 15 30 0 29-9 38-23 23z"/>
<path d="m15377 1464c-4-4-7-18-7-31 0-17 6-23 21-23 16 0 20 5 17 27-3 26-18 39-31 27z"/>
<path d="m6247 1415c-20-14-37-28-37-31 0-2 18 8 40 22 35 23 47 34 37 34-1 0-19-11-40-25z"/>
<path d="m6494 1394c-32-25-63-50-69-56-13-14 70 44 110 77 52 43 21 27-41-21z"/>
<path d="m14700 1390c0-20 5-30 15-30s15 10 15 30-5 30-15 30-15-10-15-30z"/>
<path d="m14770 1390c0-20 5-30 15-30s15 10 15 30-5 30-15 30-15-10-15-30z"/>
<path d="m15110 1390c0-20 5-30 15-30s15 10 15 30-5 30-15 30-15-10-15-30z"/>
<path d="m15170 1391c0-21 5-31 15-31 8 0 15 9 15 20s0 23 1 28c0 4-7 8-15 10-12 3-16-5-16-27z"/>
<path d="m15247 1393c-13-13-7-53 8-53 10 0 15 10 15 30 0 29-9 38-23 23z"/>
<path d="m15310 1370c0-20 5-30 15-30s15 10 15 30-5 30-15 30-15-10-15-30z"/>
<path d="m15377 1394c-4-4-7-18-7-31 0-17 6-23 21-23 16 0 20 5 17 27-3 26-18 39-31 27z"/>
<path d="m14770 1320c0-20 5-30 15-30s15 10 15 30-5 30-15 30-15-10-15-30z"/>
<path d="m15110 1321c0-21 5-31 16-31s14 8 12 27c-4 39-28 42-28 4z"/>
<path d="m15177 1344c-4-4-7-18-7-31 0-18 5-24 17-21 11 2 17 12 17 27 0 25-14 37-27 25z"/>
<path d="m6370 1299l-35-31 32 22c29 19 50 40 41 40-2 0-19-14-38-31z"/>
<path d="m15240 1300c0-20 5-30 15-30s15 10 15 30-5 30-15 30-15-10-15-30z"/>
<path d="m15310 1300c0-20 5-30 15-30s15 10 15 30-5 30-15 30-15-10-15-30z"/>
<path d="m15372 1303c2-17 9-28 18-28s16 11 18 28c3 22-1 27-18 27s-21-5-18-27z"/>
<path d="m14770 1249c0-38 24-35 28 4 2 19-1 27-12 27s-16-10-16-31z"/>
<path d="m15110 1249c0-38 24-35 28 4 2 19-1 27-12 27s-16-10-16-31z"/>
<path d="m15172 1253c4-39 28-42 28-4 0 21-5 31-16 31s-14-8-12-27z"/>
<path d="m15240 1230c0-20 5-30 15-30s15 10 15 30-5 30-15 30-15-10-15-30z"/>
<path d="m15310 1230c0-20 5-30 15-30s15 10 15 30-5 30-15 30-15-10-15-30z"/>
<path d="m15372 1233c2-17 9-28 18-28s16 11 18 28c3 22-1 27-18 27s-21-5-18-27z"/>
<path d="m14770 1179c0-38 24-35 28 4 2 19-1 27-12 27s-16-10-16-31z"/>
<path d="m15110 1179c0-38 24-35 28 4 2 19-1 27-12 27s-16-10-16-31z"/>
<path d="m15172 1183c4-39 28-42 28-4 0 21-5 31-16 31s-14-8-12-27z"/>
<path d="m15242 1163c4-39 28-42 28-4 0 21-5 31-16 31s-14-8-12-27z"/>
<path d="m15310 1160c0-20 5-30 15-30s15 10 15 30-5 30-15 30-15-10-15-30z"/>
<path d="m15372 1163c2-17 9-28 18-28s16 11 18 28c3 22-1 27-18 27s-21-5-18-27z"/>
<path d="m14770 1109c0-38 24-35 28 4 2 19-1 27-12 27s-16-10-16-31z"/>
<path d="m15110 1109c0-38 24-35 28 4 2 19-1 27-12 27s-16-10-16-31z"/>
<path d="m15172 1113c4-39 28-42 28-4 0 21-5 31-16 31s-14-8-12-27z"/>
<path d="m15240 1090c0-20 5-30 15-30s15 10 15 30-5 30-15 30-15-10-15-30z"/>
<path d="m15310 1090c0-20 5-30 15-30s15 10 15 30-5 30-15 30-15-10-15-30z"/>
<path d="m15372 1093c2-17 9-28 18-28s16 11 18 28c3 22-1 27-18 27s-21-5-18-27z"/>
<path d="m14770 1045c0-16 6-25 15-25s15 9 15 25-6 25-15 25-15-9-15-25z"/>
<path d="m15110 1045c0-16 6-25 15-25s15 9 15 25-6 25-15 25-15-9-15-25z"/>
<path d="m15170 1045c0-15 6-25 14-25 7 0 16 11 18 25 4 19 1 25-13 25s-19-7-19-25z"/>
<path d="m15242 990c0-45 4-60 14-60s14 15 14 60-4 60-14 60-14-15-14-60z"/>
<path d="m15311 990c0-45 4-60 14-60s14 15 14 60c-1 43-4 60-14 60s-13-17-14-60z"/>
<path d="m15372 990c0-51 3-60 18-60s18 9 18 60-3 60-18 60-18-9-18-60z"/>
<path d="m14770 975c0-16 6-25 15-25s15 9 15 25-6 25-15 25-15-9-15-25z"/>
<path d="m15110 975c0-16 6-25 15-25s15 9 15 25-6 25-15 25-15-9-15-25z"/>
<path d="m15170 975c0-15 6-25 14-25 7 0 16 11 18 25 4 19 1 25-13 25s-19-7-19-25z"/>
<path d="m14770 911c0-21 5-31 16-31s14 8 12 27c-4 39-28 42-28 4z"/>
<path d="m15110 911c0-21 5-31 16-31s14 8 12 27c-4 39-28 42-28 4z"/>
<path d="m15177 934c-13-14-7-54 8-54 8 0 15 9 15 20s0 23 1 27c1 10-16 15-24 7z"/>
<path d="m15247 913c-13-13-7-53 8-53 10 0 15 10 15 30 0 29-9 38-23 23z"/>
<path d="m15310 890c0-20 5-30 15-30s15 10 15 30-5 30-15 30-15-10-15-30z"/>
<path d="m15377 914c-4-4-7-18-7-31 0-17 6-23 21-23 16 0 20 5 17 27-3 26-18 39-31 27z"/>
<path d="m14770 840c0-20 5-30 15-30s15 10 15 30-5 30-15 30-15-10-15-30z"/>
<path d="m15110 839c0-38 24-35 28 4 2 19-1 27-12 27s-16-10-16-31z"/>
<path d="m15172 843c4-39 28-42 28-4 0 21-5 31-16 31s-14-8-12-27z"/>
<path d="m15240 820c0-20 5-30 15-30s15 10 15 30-5 30-15 30-15-10-15-30z"/>
<path d="m15310 820c0-20 5-30 15-30s15 10 15 30-5 30-15 30-15-10-15-30z"/>
<path d="m15377 843c-4-3-7-17-7-30 0-16 6-23 20-23 16 0 20 7 20 30 0 28-17 40-33 23z"/>
<path d="m14770 770c0-20 5-30 15-30s15 10 15 30-5 30-15 30-15-10-15-30z"/>
<path d="m15110 770c0-20 5-30 15-30s15 10 15 30-5 30-15 30-15-10-15-30z"/>
<path d="m15170 770c0-20 5-30 15-30s15 10 15 30-5 30-15 30-15-10-15-30z"/>
<path d="m15240 750c0-20 5-30 15-30s15 10 15 30-5 30-15 30-15-10-15-30z"/>
<path d="m15310 750c0-20 5-30 15-30s15 10 15 30-5 30-15 30-15-10-15-30z"/>
<path d="m15372 753c2-17 10-29 21-31 13-3 17 3 17 27 0 25-4 31-21 31-16 0-20-5-17-27z"/>
<path d="m14770 700c0-20 5-30 15-30s15 10 15 30-5 30-15 30-15-10-15-30z"/>
<path d="m15172 703c4-39 28-42 28-4 0 21-5 31-16 31s-14-8-12-27z"/>
<path d="m15240 680c0-20 5-30 15-30s15 10 15 30-5 30-15 30-15-10-15-30z"/>
<path d="m15310 680c0-20 5-30 15-30s15 10 15 30-5 30-15 30-15-10-15-30z"/>
<path d="m15372 683c2-17 9-28 18-28s16 11 18 28c3 22-1 27-18 27s-21-5-18-27z"/>
<path d="m14770 629c0-38 24-35 28 4 2 19-1 27-12 27s-16-10-16-31z"/>
<path d="m15172 633c4-39 28-42 28-4 0 21-5 31-16 31s-14-8-12-27z"/>
</g>
</svg>
