<?xml version="1.0" standalone="no"?>
<!DOCTYPE svg PUBLIC "-//W3C//DTD SVG 20010904//EN"
 "http://www.w3.org/TR/2001/REC-SVG-20010904/DTD/svg10.dtd">
<svg class="svg" version="1.0" xmlns="http://www.w3.org/2000/svg" viewBox="0 0 1694.000000 514.000000"
 preserveAspectRatio="xMidYMid meet">

<g transform="translate(0.000000,514.000000) scale(0.100000,-0.100000)"
fill="#000000" stroke="none">
<path d="M3950 4970 c0 -36 -3 -40 -24 -40 -60 0 -76 -27 -18 -32 l37 -3 3
-53 c2 -30 -8 -117 -23 -195 -38 -211 -33 -197 -60 -197 -13 0 -27 -4 -30 -10
-4 -6 5 -10 19 -10 16 0 26 -6 26 -15 0 -9 -9 -15 -25 -15 -14 0 -25 -4 -25
-10 0 -5 9 -10 20 -10 26 0 26 -12 -8 -195 l-28 -150 -37 -3 c-48 -4 -48 -22
-1 -22 45 0 42 -24 -4 -28 -41 -4 -42 -22 -1 -22 28 0 31 -3 25 -22 -3 -13
-13 -69 -23 -126 -16 -100 -17 -103 -45 -109 -16 -3 -28 -12 -29 -22 -1 -9 -1
-87 0 -175 l0 -158 62 -144 c40 -93 65 -140 70 -132 5 7 34 73 65 146 31 72
60 132 64 132 4 0 33 -61 66 -136 32 -75 63 -137 67 -138 5 0 35 59 66 132 32
73 61 135 64 139 4 3 7 -57 7 -135 0 -111 -3 -142 -13 -142 -24 0 -57 -45 -57
-77 0 -45 9 -62 41 -79 25 -13 29 -20 29 -59 0 -25 -4 -45 -10 -45 -5 0 -19
-9 -30 -20 -19 -19 -20 -33 -20 -430 l0 -411 25 -25 c15 -15 25 -36 25 -54 l0
-30 -265 0 -265 0 0 26 c0 16 12 37 30 54 l30 28 0 411 0 410 -30 23 c-25 18
-30 29 -30 65 0 37 4 45 24 53 31 11 46 39 46 82 0 36 -30 78 -55 78 -12 0
-15 21 -15 120 l0 120 -95 0 -95 0 0 -813 0 -813 -65 -64 c-36 -35 -65 -60
-65 -55 -1 6 0 170 0 365 1 195 -2 536 -6 758 l-7 402 -79 0 -78 0 0 125 0
125 -65 0 -65 0 0 150 0 150 -175 0 -175 0 -2 -357 -3 -358 -62 -3 -63 -3 0
-44 0 -45 -105 0 -105 0 0 -115 0 -115 -33 0 -34 0 -6 -367 c-4 -203 -7 -439
-7 -525 l0 -158 -85 0 -85 0 0 -190 0 -190 -100 0 -100 0 0 -40 0 -40 -175 0
-175 0 0 99 0 100 -52 3 -53 3 -2 445 -2 445 -148 5 -148 5 0 30 0 30 -67 3
-68 3 0 -546 0 -545 -25 0 c-25 0 -25 -1 -25 -80 l0 -80 -50 0 -50 0 0 -80 0
-80 -60 0 -60 0 0 -110 0 -110 -50 0 -50 0 0 -135 0 -135 -70 0 -70 0 0 -147
0 -148 -20 25 c-11 14 -43 70 -70 125 -43 85 -51 111 -56 175 l-5 75 30 -35
c19 -20 31 -28 31 -20 1 34 40 -34 40 -69 0 -27 3 -32 10 -21 5 8 10 38 10 67
0 45 -5 58 -32 89 -32 36 -32 37 -6 20 16 -10 34 -16 42 -13 14 6 44 -22 64
-58 10 -17 11 -15 12 20 0 22 -7 50 -15 62 -14 20 -13 22 2 25 15 3 13 7 -9
22 -40 26 -99 31 -136 12 -18 -9 -32 -12 -32 -7 0 13 46 41 80 47 36 8 31 20
-11 29 -23 5 -28 9 -18 16 10 6 6 9 -13 9 -19 0 -35 -10 -54 -34 l-27 -34 -24
29 c-27 32 -39 34 -96 18 -49 -13 -47 -29 4 -29 32 0 40 -3 35 -15 -3 -9 0
-15 9 -15 8 0 15 -4 15 -9 0 -5 -17 -8 -39 -7 -48 1 -88 -20 -107 -56 -17 -33
-18 -41 -2 -32 8 5 10 -5 6 -37 -4 -24 -3 -53 1 -64 7 -17 10 -14 20 18 7 21
16 36 19 33 3 -4 18 6 34 21 36 34 36 25 -1 -29 -34 -49 -48 -88 -32 -88 6 0
11 5 11 10 0 25 18 6 28 -29 7 -21 21 -50 33 -65 24 -31 45 -36 29 -7 -13 26
-13 61 1 61 7 0 9 11 6 26 -3 16 0 28 9 31 8 3 17 23 20 44 10 59 20 47 28
-31 3 -39 12 -87 20 -108 17 -45 93 -221 105 -242 7 -12 39 -16 170 -18 105
-2 161 1 161 8 0 6 35 10 90 10 53 0 90 -4 90 -10 0 -6 28 -10 65 -10 51 0 65
3 65 15 0 13 21 15 130 15 109 0 130 -2 130 -15 0 -14 112 -15 988 -15 l987 1
62 61 c34 34 65 59 68 56 3 -3 -22 -31 -56 -62 -55 -50 -60 -56 -38 -56 15 0
37 12 54 30 16 17 33 30 39 30 5 0 -3 -13 -19 -30 l-29 -30 3381 0 3381 0 4
153 c4 143 6 157 31 210 31 62 117 147 149 147 45 0 117 -69 156 -150 24 -51
27 -67 30 -208 l4 -152 2649 0 c2348 0 2649 2 2649 15 0 11 12 15 50 15 38 0
50 -4 50 -15 0 -13 27 -15 183 -15 l182 0 0 128 c1 159 21 251 76 351 35 62
43 71 51 57 6 -10 7 -31 4 -47 -3 -19 -2 -28 4 -24 19 12 10 -62 -10 -88 -11
-14 -20 -28 -20 -32 0 -3 -12 -17 -27 -31 -21 -19 -23 -23 -7 -15 13 6 32 7
50 1 l29 -8 -27 -1 c-34 -1 -59 -11 -53 -21 3 -4 -2 -25 -11 -45 -19 -47 -13
-53 22 -20 15 14 33 24 41 21 7 -3 15 -1 18 4 4 6 11 10 17 10 6 0 -1 -15 -16
-32 -21 -26 -106 -190 -106 -204 0 -2 9 -4 19 -4 15 0 23 13 36 57 21 73 46
122 78 151 l24 23 6 -28 c3 -16 0 -37 -9 -50 -21 -33 0 -28 29 7 34 40 51 39
43 -2 l-6 -33 25 30 c32 38 31 60 -1 90 -28 26 -26 32 7 15 16 -9 19 -7 19 14
0 25 -30 44 -50 31 -6 -3 -10 4 -10 18 0 25 -28 57 -49 57 -9 0 -8 -5 3 -15 8
-9 13 -22 10 -30 -4 -11 -9 -10 -25 6 -10 10 -27 19 -36 19 -14 0 -14 3 4 22
38 42 54 86 47 125 -5 26 -4 34 5 29 6 -4 11 -16 11 -27 0 -10 6 -19 14 -19
18 0 27 -39 20 -82 l-6 -33 26 28 c18 19 26 39 26 64 0 31 2 34 16 22 14 -12
14 -9 0 26 -20 47 -49 72 -93 81 -18 3 -33 10 -33 15 0 14 58 10 90 -6 36 -18
38 -8 8 31 -19 24 -20 27 -4 21 12 -5 16 -3 14 5 -6 17 -71 22 -96 9 -18 -10
-20 -6 -27 34 -5 40 -11 47 -42 60 -52 22 -71 19 -40 -5 18 -15 25 -29 25 -56
l0 -36 -27 26 c-16 15 -43 29 -62 32 -42 7 -91 -10 -84 -29 3 -7 -6 -24 -20
-37 l-25 -23 0 286 0 286 -32 3 c-28 2 -34 8 -36 31 -3 23 -8 27 -33 27 -25 0
-29 4 -29 29 0 21 6 30 21 34 42 11 13 32 -52 38 -54 4 -89 17 -219 82 l-155
77 -112 0 -113 0 0 -425 0 -425 -25 0 c-23 0 -25 -4 -26 -47 -1 -30 -4 -37 -6
-20 -6 37 -43 39 -43 2 0 -16 -6 -25 -15 -25 -9 0 -15 9 -15 25 0 16 -6 25
-15 25 -9 0 -15 -9 -15 -25 0 -25 -1 -25 -88 -25 l-88 0 3 70 c2 57 0 70 -12
70 -9 0 -15 -9 -15 -25 0 -22 -4 -25 -35 -25 l-35 0 0 710 0 711 102 257 c56
141 152 383 213 537 l111 280 -509 3 c-281 1 -512 1 -514 -1 -2 -2 55 -150
125 -328 71 -178 165 -418 210 -532 l82 -208 0 -760 0 -759 -65 0 -65 0 0 69
c0 58 -3 70 -17 74 -17 4 -17 5 0 6 12 1 17 10 17 30 0 20 -6 31 -17 34 -17 4
-17 5 0 6 20 1 25 56 5 64 -10 4 -10 6 0 6 6 1 12 14 12 30 0 16 -6 32 -12 34
-10 4 -10 6 0 6 6 1 12 12 12 25 0 13 -6 27 -12 30 -10 5 -10 7 0 12 15 7 16
54 1 54 -8 0 -8 4 -1 13 5 6 13 35 17 64 6 43 4 53 -12 62 -10 6 -12 11 -5 11
20 0 15 58 -5 63 -17 4 -17 5 0 6 22 1 25 61 2 61 -8 0 -15 -8 -15 -17 0 -10
-10 3 -23 27 -13 25 -20 50 -17 55 3 6 5 19 5 30 0 19 -4 21 -51 24 -17 1 -20
6 -16 30 5 34 -10 46 -37 30 -15 -10 -22 -9 -36 4 -9 9 -12 17 -7 17 6 0 11
27 11 60 0 46 -3 60 -15 60 -11 0 -14 -15 -14 -62 -1 -52 -3 -59 -12 -43 -20
37 -50 64 -79 70 -35 8 -86 -18 -101 -50 -6 -14 -15 -25 -20 -25 -4 0 -8 470
-8 1045 l0 1045 -515 0 -515 0 -2 -1252 -3 -1253 -55 0 c-51 0 -55 2 -58 25
-2 14 -10 29 -18 33 -12 7 -14 142 -14 877 l0 870 -470 0 -470 0 0 -597 1
-598 23 -17 c22 -16 24 -16 34 5 5 12 13 30 16 40 3 10 12 17 19 14 8 -2 13
-37 14 -118 l1 -114 -19 27 c-25 34 -77 52 -111 39 -31 -12 -63 -51 -80 -97
-12 -35 -22 -42 -33 -24 -9 14 -40 12 -53 -3 -7 -8 -31 -11 -71 -9 l-61 4 0
359 0 359 -65 0 -65 0 -2 713 -3 712 -355 3 c-195 2 -365 0 -377 -3 l-23 -5 0
-710 0 -710 -60 0 -60 0 0 -360 0 -360 -35 0 -35 0 0 415 0 415 25 0 c22 0 25
4 25 35 0 30 -3 35 -24 35 -22 0 -25 5 -28 43 -3 42 -3 42 -45 45 l-43 3 0
135 c0 127 1 134 20 134 16 0 20 7 20 35 0 28 -4 35 -20 35 -19 0 -20 7 -20
165 0 158 1 165 20 165 17 0 20 7 20 40 0 33 -3 40 -20 40 -18 0 -20 7 -20 70
0 56 -3 70 -15 70 -10 0 -15 10 -15 30 0 25 -4 30 -25 30 -17 0 -26 7 -30 23
-7 27 0 222 10 285 6 34 4 42 -8 42 -10 0 -17 14 -22 43 -11 74 -36 149 -61
186 -13 20 -24 48 -24 64 0 20 -7 30 -25 37 -24 9 -25 13 -25 92 -1 57 -5 89
-15 102 -11 14 -15 47 -15 113 0 76 -3 93 -15 93 -12 0 -15 -18 -15 -99 0 -75
-4 -101 -15 -111 -11 -9 -15 -35 -15 -101 0 -88 0 -89 -25 -89 -21 0 -25 -5
-25 -27 0 -16 -16 -60 -36 -99 -25 -49 -37 -89 -41 -134 -5 -50 -10 -64 -25
-67 -20 -6 -26 -61 -8 -79 7 -7 10 -61 8 -140 -3 -125 -4 -129 -25 -132 -17
-3 -23 -10 -23 -29 0 -16 -7 -27 -20 -30 -18 -5 -20 -14 -20 -74 0 -62 -2 -69
-20 -69 -17 0 -20 -7 -20 -40 0 -33 3 -40 20 -40 19 0 20 -7 20 -165 0 -158
-1 -165 -20 -165 -16 0 -20 -7 -20 -35 0 -28 4 -35 20 -35 19 0 20 -7 20 -135
l0 -135 -45 0 -45 0 0 -45 c0 -38 -3 -45 -20 -45 -16 0 -20 -7 -20 -35 0 -28
4 -35 20 -35 20 0 20 -7 20 -830 0 -456 -2 -830 -4 -830 -2 0 -62 69 -133 153
-71 83 -259 305 -417 492 -206 242 -296 356 -313 395 -89 200 -157 349 -160
346 -2 -2 30 -82 72 -177 86 -199 93 -201 -100 26 -60 71 -115 143 -122 160
-6 16 -12 24 -12 16 -1 -10 -9 -7 -28 10 -24 21 -23 19 4 -13 28 -33 48 -83
69 -173 8 -37 4 -33 -71 68 -32 43 -60 76 -62 73 -2 -2 31 -52 75 -111 73 -99
82 -115 107 -207 14 -55 25 -102 23 -104 -3 -2 -50 68 -106 155 -100 155 -102
160 -106 225 -2 36 -6 69 -10 73 -3 3 -6 16 -6 29 0 12 -6 21 -14 20 -7 0 -28
16 -45 38 -23 29 -31 49 -31 80 l0 41 35 -40 c21 -24 35 -52 36 -70 1 -19 3
-23 6 -11 4 16 9 14 41 -15 34 -33 34 -32 -6 17 -24 28 -42 61 -42 75 0 16 -3
20 -8 11 -6 -9 -16 -4 -37 18 -24 25 -30 41 -35 102 l-7 73 -2 -60 -2 -60 -34
40 c-19 22 -35 44 -35 49 0 5 -7 14 -15 20 -12 9 -14 21 -9 54 3 23 10 39 15
36 5 -3 9 8 9 24 0 26 17 88 37 132 4 10 9 1 14 -25 6 -32 7 -28 4 20 -4 64 2
105 16 105 4 0 10 -15 12 -32 3 -18 3 -8 1 22 -2 37 0 50 6 40 8 -12 10 -11
10 5 1 12 13 -5 30 -40 38 -80 38 -62 0 22 -17 36 -30 73 -30 83 0 9 11 50 25
90 23 69 32 120 20 120 -3 0 -32 -13 -65 -30 -66 -33 -81 -51 -107 -123 -17
-48 -25 -55 -131 -124 -63 -41 -117 -73 -122 -71 -4 2 -44 45 -87 96 l-79 93
-18 93 c-19 102 -31 120 -109 164 -35 20 -67 28 -67 18 0 -3 7 -37 15 -77 14
-66 14 -74 -1 -90 -9 -10 -13 -23 -8 -30 4 -7 3 -10 -3 -6 -7 4 -157 -188
-353 -451 -189 -251 -347 -463 -353 -469 -5 -7 -7 -13 -4 -13 2 0 161 209 353
465 192 255 350 462 353 460 2 -3 -21 -42 -51 -87 -72 -109 -94 -145 -81 -133
6 6 45 62 88 125 42 63 74 104 70 91 -5 -16 -4 -21 4 -17 16 10 3 -21 -63
-152 -31 -62 -56 -115 -55 -119 0 -5 29 49 65 120 72 142 94 166 58 60 -6 -16
-5 -16 9 2 23 28 21 7 -4 -77 -11 -39 -18 -72 -16 -74 2 -3 10 16 17 41 15 55
27 64 34 28 22 -113 45 -276 41 -284 -4 -5 -1 -9 4 -9 18 0 13 -22 -11 -49
-13 -14 -16 -20 -8 -14 25 23 40 15 39 -19 0 -28 -12 -44 -84 -108 -46 -41
-84 -79 -84 -84 -1 -4 35 26 80 68 44 42 85 76 90 76 5 0 9 -12 9 -27 0 -18
-14 -42 -42 -73 l-43 -45 46 44 47 43 7 -42 c6 -33 3 -46 -12 -63 -16 -19 -16
-20 0 -8 24 19 29 11 34 -61 l5 -63 -112 -240 c-62 -132 -159 -339 -215 -460
-56 -121 -128 -274 -160 -340 -31 -66 -64 -137 -72 -157 -8 -21 -16 -38 -17
-38 -10 0 -161 31 -163 34 -8 7 200 652 218 678 10 15 16 33 13 42 -9 24 75
277 105 313 14 17 60 69 101 114 41 45 65 77 53 71 -12 -7 -23 -16 -25 -21 -5
-14 -130 -142 -134 -138 -2 2 3 25 12 51 9 26 14 49 12 51 -3 3 -17 -30 -32
-73 -22 -65 -38 -90 -98 -155 -39 -43 -72 -76 -75 -74 -2 3 15 51 37 108 35
87 50 113 98 162 31 31 62 55 69 52 7 -2 13 2 13 9 0 7 31 44 68 82 37 38 44
47 14 19 -40 -38 -55 -47 -61 -37 -6 10 -10 8 -14 -10 -6 -24 -113 -136 -122
-127 -2 3 5 29 16 58 11 30 18 55 16 58 -3 2 -17 -30 -32 -71 -26 -71 -34 -81
-128 -168 -108 -100 -112 -98 -50 26 19 37 33 70 31 72 -2 2 -29 -48 -61 -110
-58 -116 -90 -154 -246 -292 -49 -43 -49 -43 19 76 20 36 56 99 80 140 23 41
59 91 80 110 20 19 29 29 20 22 -27 -20 -31 -14 -14 20 23 45 7 28 -25 -26
-15 -25 -65 -77 -118 -121 -51 -42 -93 -79 -93 -82 0 -2 33 23 73 56 41 34 77
61 81 61 8 0 -40 -88 -129 -235 -53 -89 -79 -119 -221 -253 -89 -84 -165 -152
-168 -152 -4 0 11 26 32 58 56 82 93 142 88 142 -2 0 -42 -58 -89 -128 -72
-109 -165 -218 -198 -230 -17 -7 -119 20 -119 30 0 21 192 268 249 320 31 29
47 44 34 34 -47 -40 -31 -6 48 99 45 59 76 105 70 101 -6 -4 -54 -65 -107
-136 -95 -130 -157 -189 -370 -354 l-62 -47 -68 12 c-104 17 -105 19 -28 77
92 67 145 115 74 66 -30 -21 -81 -57 -112 -80 l-57 -42 -78 17 c-76 15 -78 17
-81 47 -3 29 3 35 123 113 69 46 125 85 125 88 0 6 -55 -27 -148 -89 -113 -76
-103 -87 -99 118 2 99 5 188 8 199 3 18 -2 20 -44 23 l-49 3 4 102 3 102 -272
3 -273 2 0 27 c0 18 10 35 28 49 l27 22 3 407 c2 355 1 411 -13 431 -8 13 -22
24 -30 24 -13 0 -15 -39 -15 -272 0 -150 -4 -268 -8 -262 -19 21 -82 253 -84
309 -2 45 -7 60 -18 60 -11 0 -16 -17 -20 -70 -7 -92 -78 -323 -102 -331 -21
-6 -23 -21 -5 -43 9 -12 11 -64 9 -199 l-3 -184 -54 52 c-53 49 -142 100 -177
100 -15 0 -18 10 -18 69 0 46 4 71 13 75 9 3 8 8 -4 18 -24 19 -69 113 -69
143 0 14 -4 25 -10 25 -5 0 -10 -8 -10 -19 0 -27 -57 -148 -72 -153 -11 -4
-11 -8 0 -21 8 -10 12 -36 10 -74 -3 -50 -6 -58 -24 -61 -20 -3 -21 3 -27 104
-4 59 -7 277 -7 484 l0 378 -44 35 c-41 34 -48 36 -127 39 l-84 3 -3 348 -2
347 -103 0 c-56 0 -107 4 -113 8 -6 4 -19 52 -28 107 -10 55 -20 110 -23 123
-4 19 -1 22 26 22 41 0 40 18 -1 22 -46 4 -49 28 -4 28 48 0 46 18 -1 22 l-37
3 -28 150 c-37 205 -36 190 -10 193 30 5 28 22 -3 22 -16 0 -25 6 -25 15 0 9
10 15 26 15 14 0 23 4 19 10 -3 6 -17 10 -31 10 -13 0 -24 2 -24 4 0 2 -12 64
-26 137 -15 74 -27 172 -28 219 l-1 85 38 3 c57 5 41 32 -19 32 -21 0 -24 4
-24 40 0 22 -4 40 -10 40 -5 0 -10 -18 -10 -40z m6486 -1355 c8 -19 14 -57 14
-85 l0 -51 -62 3 -63 3 -3 34 c-5 53 6 96 33 125 21 23 28 25 46 16 11 -7 27
-27 35 -45z m-6086 -10 c0 -24 -3 -25 -55 -25 -52 0 -55 1 -55 25 0 24 3 25
55 25 52 0 55 -1 55 -25z m6830 -55 c0 -16 -7 -20 -35 -20 -28 0 -35 4 -35 20
0 16 7 20 35 20 28 0 35 -4 35 -20z m100 0 c0 -17 -7 -20 -40 -20 -33 0 -40 3
-40 20 0 17 7 20 40 20 33 0 40 -3 40 -20z m90 0 c0 -16 -7 -20 -35 -20 -28 0
-35 4 -35 20 0 16 7 20 35 20 28 0 35 -4 35 -20z m90 0 c0 -16 -7 -20 -35 -20
-28 0 -35 4 -35 20 0 16 7 20 35 20 28 0 35 -4 35 -20z m100 0 c0 -17 -7 -20
-40 -20 -33 0 -40 3 -40 20 0 17 7 20 40 20 33 0 40 -3 40 -20z m90 0 c0 -16
-7 -20 -35 -20 -28 0 -35 4 -35 20 0 16 7 20 35 20 28 0 35 -4 35 -20z m-7300
-25 c0 -24 -3 -25 -55 -25 -52 0 -55 1 -55 25 0 24 3 25 55 25 52 0 55 -1 55
-25z m-2 -82 c-3 -26 -6 -28 -53 -28 -47 0 -50 2 -53 28 -3 27 -3 27 53 27 56
0 56 0 53 -27z m6740 -20 c3 -20 -1 -23 -32 -23 -28 0 -36 4 -36 18 0 26 10
33 40 30 17 -2 26 -10 28 -25z m90 0 c3 -20 -1 -23 -32 -23 -28 0 -36 4 -36
18 0 26 10 33 40 30 17 -2 26 -10 28 -25z m97 2 c0 -15 -8 -21 -29 -23 -33 -4
-51 10 -42 33 9 25 71 16 71 -10z m93 -2 c3 -20 -1 -23 -32 -23 -28 0 -36 4
-36 18 0 26 10 33 40 30 17 -2 26 -10 28 -25z m187 2 c0 -15 -8 -21 -29 -23
-33 -4 -51 10 -42 33 9 25 71 16 71 -10z m93 -2 c3 -20 -1 -23 -32 -23 -28 0
-36 4 -36 18 0 26 10 33 40 30 17 -2 26 -10 28 -25z m-558 -123 c0 -16 -7 -20
-35 -20 -28 0 -35 4 -35 20 0 16 7 20 35 20 28 0 35 -4 35 -20z m90 0 c0 -16
-7 -20 -35 -20 -28 0 -35 4 -35 20 0 16 7 20 35 20 28 0 35 -4 35 -20z m98 3
c-2 -13 -13 -18 -38 -18 -25 0 -36 5 -38 18 -3 14 4 17 38 17 34 0 41 -3 38
-17z m92 -3 c0 -16 -7 -20 -35 -20 -28 0 -35 4 -35 20 0 16 7 20 35 20 28 0
35 -4 35 -20z m90 0 c0 -16 -7 -20 -35 -20 -28 0 -35 4 -35 20 0 16 7 20 35
20 28 0 35 -4 35 -20z m95 0 c0 -10 -12 -16 -37 -18 -33 -3 -38 0 -38 18 0 18
5 21 38 18 25 -2 37 -8 37 -18z m95 0 c0 -16 -7 -20 -35 -20 -28 0 -35 4 -35
20 0 16 7 20 35 20 28 0 35 -4 35 -20z m-8480 -10 c0 -17 -7 -20 -40 -20 -33
0 -40 3 -40 20 0 17 7 20 40 20 33 0 40 -3 40 -20z m0 -55 c0 -11 -11 -15 -40
-15 -29 0 -40 4 -40 15 0 11 11 15 40 15 29 0 40 -4 40 -15z m0 -55 c0 -17 -7
-20 -40 -20 -33 0 -40 3 -40 20 0 17 7 20 40 20 33 0 40 -3 40 -20z m7915 -5
c0 -15 -8 -21 -32 -23 -30 -3 -33 -1 -33 23 0 24 3 26 33 23 24 -2 32 -8 32
-23z m190 0 c0 -15 -8 -21 -29 -23 -33 -4 -51 10 -42 33 9 25 71 16 71 -10z
m90 0 c0 -15 -8 -21 -32 -23 -30 -3 -33 -1 -33 23 0 24 3 26 33 23 24 -2 32
-8 32 -23z m95 0 c0 -21 -5 -25 -29 -25 -17 0 -33 5 -36 10 -13 21 4 40 35 40
25 0 30 -4 30 -25z m95 0 c0 -15 -8 -21 -29 -23 -33 -4 -51 10 -42 33 9 25 71
16 71 -10z m90 0 c0 -15 -8 -21 -32 -23 -30 -3 -33 -1 -33 23 0 24 3 26 33 23
24 -2 32 -8 32 -23z m-8475 -50 c0 -11 -11 -15 -40 -15 -29 0 -40 4 -40 15 0
11 11 15 40 15 29 0 40 -4 40 -15z m0 -50 c0 -11 -11 -15 -40 -15 -29 0 -40 4
-40 15 0 11 11 15 40 15 29 0 40 -4 40 -15z m7920 -25 c0 -16 -7 -20 -35 -20
-28 0 -35 4 -35 20 0 16 7 20 35 20 28 0 35 -4 35 -20z m90 0 c0 -16 -7 -20
-35 -20 -28 0 -35 4 -35 20 0 16 7 20 35 20 28 0 35 -4 35 -20z m98 3 c-2 -13
-13 -18 -38 -18 -25 0 -36 5 -38 18 -3 14 4 17 38 17 34 0 41 -3 38 -17z m92
-3 c0 -16 -7 -20 -35 -20 -28 0 -35 4 -35 20 0 16 7 20 35 20 28 0 35 -4 35
-20z m188 3 c-2 -13 -13 -18 -38 -18 -25 0 -36 5 -38 18 -3 14 4 17 38 17 34
0 41 -3 38 -17z m92 -3 c0 -16 -7 -20 -35 -20 -28 0 -35 4 -35 20 0 16 7 20
35 20 28 0 35 -4 35 -20z m-1345 -40 l0 -45 -40 0 c-38 0 -40 2 -43 33 -5 53
3 64 45 60 38 -3 38 -3 38 -48z m113 -2 l3 -48 -40 0 -41 0 0 51 0 50 38 -3
c37 -3 37 -3 40 -50z m-7248 17 c0 -11 -11 -15 -40 -15 -29 0 -40 4 -40 15 0
11 11 15 40 15 29 0 40 -4 40 -15z m0 -55 c0 -17 -7 -20 -40 -20 -33 0 -40 3
-40 20 0 17 7 20 40 20 33 0 40 -3 40 -20z m10238 -2 c-6 -18 -28 -21 -28 -4
0 9 7 16 16 16 9 0 14 -5 12 -12z m-2318 -38 c0 -16 -7 -20 -35 -20 -28 0 -35
4 -35 20 0 16 7 20 35 20 28 0 35 -4 35 -20z m90 0 c0 -16 -7 -20 -35 -20 -28
0 -35 4 -35 20 0 16 7 20 35 20 28 0 35 -4 35 -20z m190 0 c0 -16 -7 -20 -35
-20 -28 0 -35 4 -35 20 0 16 7 20 35 20 28 0 35 -4 35 -20z m90 0 c0 -16 -7
-20 -35 -20 -28 0 -35 4 -35 20 0 16 7 20 35 20 28 0 35 -4 35 -20z m98 -2 c3
-15 -4 -18 -37 -18 -39 0 -53 14 -34 34 14 14 68 1 71 -16z m92 2 c0 -16 -7
-20 -35 -20 -28 0 -35 4 -35 20 0 16 7 20 35 20 28 0 35 -4 35 -20z m-8480
-15 c0 -11 -11 -15 -40 -15 -29 0 -40 4 -40 15 0 11 11 15 40 15 29 0 40 -4
40 -15z m0 -55 c0 -17 -7 -20 -40 -20 -33 0 -40 3 -40 20 0 17 7 20 40 20 33
0 40 -3 40 -20z m5290 -44 c0 -22 -129 -142 -148 -138 -10 2 -19 8 -20 13 -2
5 -10 16 -18 23 -12 13 -10 18 17 36 16 12 33 19 36 16 4 -3 18 1 32 10 22 14
20 10 -9 -21 l-35 -39 40 32 c22 17 54 42 70 56 36 30 35 30 35 12z m-5290
-11 c0 -11 -11 -15 -40 -15 -29 0 -40 4 -40 15 0 11 11 15 40 15 29 0 40 -4
40 -15z m8010 -5 c0 -16 -7 -20 -35 -20 -28 0 -35 4 -35 20 0 16 7 20 35 20
28 0 35 -4 35 -20z m98 3 c-2 -13 -13 -18 -38 -18 -25 0 -36 5 -38 18 -3 14 4
17 38 17 34 0 41 -3 38 -17z m92 -3 c0 -16 -7 -20 -35 -20 -28 0 -35 4 -35 20
0 16 7 20 35 20 28 0 35 -4 35 -20z m90 0 c0 -16 -7 -20 -35 -20 -28 0 -35 4
-35 20 0 16 7 20 35 20 28 0 35 -4 35 -20z m190 0 c0 -16 -7 -20 -35 -20 -28
0 -35 4 -35 20 0 16 7 20 35 20 28 0 35 -4 35 -20z m-8480 -45 c0 -11 -11 -15
-40 -15 -29 0 -40 4 -40 15 0 11 11 15 40 15 29 0 40 -4 40 -15z m5020 -44
c-1 -10 -6 -7 -15 9 -19 33 -18 50 0 26 8 -11 15 -27 15 -35z m5280 19 c0 -16
-4 -30 -10 -30 -5 0 -10 14 -10 30 0 17 5 30 10 30 6 0 10 -13 10 -30z m620
-1 c0 -38 -24 -35 -28 4 -2 19 1 27 12 27 11 0 16 -10 16 -31z m-10920 -29 c0
-17 -7 -20 -40 -20 -33 0 -40 3 -40 20 0 17 7 20 40 20 33 0 40 -3 40 -20z
m5198 -10 c-7 -10 -14 -17 -17 -15 -4 4 18 35 25 35 2 0 -1 -9 -8 -20z m30 0
c-7 -11 -17 -20 -22 -20 -5 0 -1 9 9 20 10 11 20 20 22 20 2 0 -2 -9 -9 -20z
m2782 -11 c0 -17 -5 -20 -32 -17 -22 2 -34 9 -36 21 -3 14 4 17 32 17 30 0 36
-4 36 -21z m98 4 c-2 -13 -13 -18 -38 -18 -25 0 -36 5 -38 18 -3 14 4 17 38
17 34 0 41 -3 38 -17z m90 0 c-2 -12 -14 -19 -36 -21 -27 -3 -32 0 -32 17 0
17 6 21 36 21 28 0 35 -3 32 -17z m92 -4 c0 -17 -5 -20 -32 -17 -22 2 -34 9
-36 21 -3 14 4 17 32 17 30 0 36 -4 36 -21z m98 4 c-2 -13 -13 -18 -38 -18
-25 0 -36 5 -38 18 -3 14 4 17 38 17 34 0 41 -3 38 -17z m90 0 c-2 -12 -14
-19 -36 -21 -27 -3 -32 0 -32 17 0 17 6 21 36 21 28 0 35 -3 32 -17z m-8478
-33 c0 -17 -7 -20 -40 -20 -33 0 -40 3 -40 20 0 17 7 20 40 20 33 0 40 -3 40
-20z m9095 -1 c10 -15 -1 -23 -20 -15 -9 3 -13 10 -10 16 8 13 22 13 30 -1z
m765 -4 c0 -8 -7 -15 -15 -15 -8 0 -15 7 -15 15 0 8 7 15 15 15 8 0 15 -7 15
-15z m-700 -5 c0 -5 -7 -10 -15 -10 -8 0 -15 5 -15 10 0 6 7 10 15 10 8 0 15
-4 15 -10z m640 0 c0 -5 -7 -10 -15 -10 -8 0 -15 5 -15 10 0 6 7 10 15 10 8 0
15 -4 15 -10z m880 -740 l0 -750 -85 0 -85 0 0 750 0 750 85 0 85 0 0 -750z
m-10680 695 c0 -11 -11 -15 -40 -15 -29 0 -40 4 -40 15 0 11 11 15 40 15 29 0
40 -4 40 -15z m9860 -31 c0 -15 -6 -24 -15 -24 -15 0 -21 40 -9 53 12 11 24
-3 24 -29z m-760 0 c0 -33 -33 -30 -38 4 -3 17 2 22 17 22 16 0 21 -6 21 -26z
m60 1 c0 -16 -6 -25 -15 -25 -9 0 -15 9 -15 25 0 16 6 25 15 25 9 0 15 -9 15
-25z m640 0 c0 -16 -6 -25 -15 -25 -9 0 -15 9 -15 25 0 16 6 25 15 25 9 0 15
-9 15 -25z m-1880 -5 c0 -16 -7 -20 -35 -20 -28 0 -35 4 -35 20 0 16 7 20 35
20 28 0 35 -4 35 -20z m90 0 c0 -16 -7 -20 -35 -20 -28 0 -35 4 -35 20 0 16 7
20 35 20 28 0 35 -4 35 -20z m98 -2 c3 -14 -4 -18 -32 -18 -36 0 -52 12 -41
31 11 17 69 6 73 -13z m92 2 c0 -16 -7 -20 -35 -20 -28 0 -35 4 -35 20 0 16 7
20 35 20 28 0 35 -4 35 -20z m185 0 c0 -10 -12 -16 -37 -18 -33 -3 -38 0 -38
18 0 18 5 21 38 18 25 -2 37 -8 37 -18z m95 0 c0 -16 -7 -20 -35 -20 -28 0
-35 4 -35 20 0 16 7 20 35 20 28 0 35 -4 35 -20z m-3444 -16 c5 -18 0 -32 -17
-50 -35 -37 -46 -8 -11 31 19 21 21 24 4 11 -16 -14 -25 -17 -34 -8 -17 17 -1
42 26 42 19 0 27 -7 32 -26z m-5036 -4 c0 -17 -7 -20 -40 -20 -33 0 -40 3 -40
20 0 17 7 20 40 20 33 0 40 -3 40 -20z m5070 10 c0 -5 -4 -10 -10 -10 -5 0
-10 5 -10 10 0 6 5 10 10 10 6 0 10 -4 10 -10z m38 -11 c-2 -6 -8 -10 -13 -10
-5 0 -11 4 -13 10 -2 6 4 11 13 11 9 0 15 -5 13 -11z m67 -25 c9 -14 14 -33
10 -42 -5 -13 -11 -9 -31 23 -29 49 -32 37 -3 -15 17 -30 19 -44 12 -66 l-10
-29 -16 30 c-20 37 -22 25 -3 -14 14 -26 12 -71 -3 -71 -4 0 -15 25 -25 56
-10 31 -19 54 -22 52 -2 -2 6 -33 18 -69 23 -71 20 -102 -12 -140 l-20 -24
-18 21 c-10 12 -24 53 -32 92 l-13 71 28 33 c16 18 32 32 37 31 4 -2 8 6 8 17
0 26 17 26 25 -1 4 -11 9 -18 12 -16 2 3 -1 15 -7 27 -9 18 -8 25 6 41 23 26
38 24 59 -7z m-92 2 c6 -16 -2 -28 -14 -20 -12 7 -11 34 0 34 5 0 11 -6 14
-14z m4015 -19 c2 -19 -1 -27 -13 -27 -19 0 -30 24 -21 46 9 23 31 11 34 -19z
m62 3 c0 -20 -5 -30 -15 -30 -10 0 -15 10 -15 30 0 20 5 30 15 30 10 0 15 -10
15 -30z m60 0 c0 -20 -5 -30 -15 -30 -10 0 -15 10 -15 30 0 20 5 30 15 30 10
0 15 -10 15 -30z m515 0 c0 -13 -6 -25 -12 -27 -9 -3 -13 6 -13 27 0 21 4 30
13 28 6 -3 12 -15 12 -28z m65 0 c0 -20 -5 -30 -15 -30 -10 0 -15 10 -15 30 0
20 5 30 15 30 10 0 15 -10 15 -30z m60 0 c0 -20 -5 -30 -15 -30 -10 0 -15 10
-15 30 0 20 5 30 15 30 10 0 15 -10 15 -30z m-4800 -17 c0 -18 -38 -73 -51
-73 -17 0 -9 54 12 77 23 24 39 22 39 -4z m-5060 2 c0 -11 -11 -15 -40 -15
-29 0 -40 4 -40 15 0 11 11 15 40 15 29 0 40 -4 40 -15z m9297 -83 c1 -48 -1
-62 -13 -62 -11 0 -14 15 -14 66 0 48 3 65 13 62 7 -3 13 -27 14 -66z m360 0
c2 -49 0 -62 -12 -62 -12 0 -15 14 -15 66 0 48 3 65 13 62 7 -3 13 -28 14 -66z
m-1742 33 c0 -15 -8 -21 -32 -23 -30 -3 -33 -1 -33 23 0 24 3 26 33 23 24 -2
32 -8 32 -23z m95 0 c0 -21 -5 -25 -29 -25 -17 0 -33 5 -36 10 -13 21 4 40 35
40 25 0 30 -4 30 -25z m95 0 c0 -15 -8 -21 -29 -23 -33 -4 -51 10 -42 33 9 25
71 16 71 -10z m90 0 c0 -15 -8 -21 -32 -23 -30 -3 -33 -1 -33 23 0 24 3 26 33
23 24 -2 32 -8 32 -23z m95 0 c0 -21 -5 -25 -29 -25 -17 0 -33 5 -36 10 -13
21 4 40 35 40 25 0 30 -4 30 -25z m95 0 c0 -15 -8 -21 -29 -23 -33 -4 -51 10
-42 33 9 25 71 16 71 -10z m90 0 c0 -15 -8 -21 -32 -23 -30 -3 -33 -1 -33 23
0 24 3 26 33 23 24 -2 32 -8 32 -23z m622 -67 c-2 -75 -5 -93 -17 -93 -12 0
-15 17 -16 85 -1 92 1 100 21 100 10 0 13 -21 12 -92z m61 -3 c0 -75 -3 -95
-14 -95 -11 0 -14 20 -14 95 0 75 3 95 14 95 11 0 14 -20 14 -95z m60 0 c0
-75 -3 -95 -14 -95 -11 0 -14 20 -14 95 0 75 3 95 14 95 11 0 14 -20 14 -95z
m519 3 c-1 -63 -6 -93 -14 -96 -10 -3 -13 20 -13 92 0 76 3 96 14 96 11 0 14
-19 13 -92z m61 -3 c0 -73 -3 -95 -13 -95 -10 0 -14 23 -14 95 -1 75 2 95 13
95 11 0 14 -20 14 -95z m61 0 c0 -72 -4 -95 -14 -95 -10 0 -13 22 -13 95 0 75
3 95 14 95 11 0 14 -20 13 -95z m-9859 70 c0 -11 -11 -15 -40 -15 -29 0 -40 4
-40 15 0 11 11 15 40 15 29 0 40 -4 40 -15z m5356 -52 c-3 -8 -2 -12 3 -8 5 3
25 -14 45 -37 26 -30 36 -51 36 -75 0 -18 -2 -33 -4 -33 -9 0 -76 101 -76 115
0 8 -6 14 -12 13 -8 -2 -14 10 -16 31 -3 31 -2 33 13 21 9 -7 14 -19 11 -27z
m-5356 -3 c0 -17 -7 -20 -40 -20 -33 0 -40 3 -40 20 0 17 7 20 40 20 33 0 40
-3 40 -20z m5308 -43 c-2 -33 3 -49 20 -67 12 -13 22 -34 22 -47 0 -14 4 -21
10 -18 18 11 89 -115 96 -171 3 -29 4 -58 2 -65 -4 -13 -98 143 -98 163 0 5
-11 24 -25 42 -14 18 -25 43 -25 55 0 12 -4 20 -9 17 -4 -3 -13 5 -19 18 -8
17 -7 30 3 49 7 14 11 28 8 31 -6 6 4 36 11 36 3 0 5 -19 4 -43z m40 -10 c2
-8 19 -33 39 -54 20 -21 44 -56 54 -78 10 -22 21 -39 24 -37 8 4 65 -67 66
-82 0 -6 4 -32 8 -58 4 -27 5 -48 2 -48 -15 2 -81 124 -82 153 0 25 -2 28 -8
13 -7 -17 -14 -11 -49 42 -23 33 -42 70 -42 82 0 12 -4 19 -9 15 -12 -7 -31
27 -31 55 0 25 23 22 28 -3z m-5348 -2 c0 -11 -11 -15 -40 -15 -29 0 -40 4
-40 15 0 11 11 15 40 15 29 0 40 -4 40 -15z m7920 -15 c0 -16 -7 -20 -35 -20
-28 0 -35 4 -35 20 0 16 7 20 35 20 28 0 35 -4 35 -20z m188 3 c-2 -13 -13
-18 -38 -18 -25 0 -36 5 -38 18 -3 14 4 17 38 17 34 0 41 -3 38 -17z m92 -3
c0 -16 -7 -20 -35 -20 -28 0 -35 4 -35 20 0 16 7 20 35 20 28 0 35 -4 35 -20z
m90 0 c0 -16 -7 -20 -35 -20 -28 0 -35 4 -35 20 0 16 7 20 35 20 28 0 35 -4
35 -20z m98 3 c-2 -13 -13 -18 -38 -18 -25 0 -36 5 -38 18 -3 14 4 17 38 17
34 0 41 -3 38 -17z m92 -3 c0 -16 -7 -20 -35 -20 -28 0 -35 4 -35 20 0 16 7
20 35 20 28 0 35 -4 35 -20z m818 -40 c0 -45 -4 -60 -14 -60 -10 0 -14 15 -14
60 0 45 4 60 14 60 10 0 14 -15 14 -60z m361 0 c-1 -45 -4 -60 -15 -60 -10 0
-14 15 -14 60 0 46 3 60 14 60 12 0 15 -14 15 -60z m576 25 c0 -16 -6 -30 -12
-32 -9 -3 -13 7 -13 32 0 25 4 35 13 33 6 -3 12 -17 12 -33z m615 -1 c0 -24
-4 -34 -12 -32 -24 8 -22 68 2 68 5 0 10 -16 10 -36z m-10850 -19 c0 -11 -11
-15 -40 -15 -29 0 -40 4 -40 15 0 11 11 15 40 15 29 0 40 -4 40 -15z m5288
-40 c7 -14 12 -32 12 -40 0 -8 3 -15 8 -15 4 0 15 -15 25 -33 14 -25 17 -51
15 -112 l-3 -80 -22 48 c-15 31 -23 70 -24 105 -1 49 -3 52 -8 22 l-7 -35 -22
43 c-20 38 -21 47 -11 82 14 47 21 49 37 15z m3810 -36 c0 -50 -3 -60 -16 -57
-13 3 -17 16 -18 61 -2 49 1 57 16 57 15 0 18 -9 18 -61z m60 1 c0 -45 -4 -60
-14 -60 -10 0 -14 15 -14 60 0 45 4 60 14 60 10 0 14 -15 14 -60z m60 0 c0
-45 -4 -60 -14 -60 -10 0 -14 15 -14 60 0 45 4 60 14 60 10 0 14 -15 14 -60z
m520 0 c0 -45 -4 -60 -14 -60 -10 0 -14 15 -14 60 0 45 4 60 14 60 10 0 14
-15 14 -60z m60 0 c0 -44 -4 -60 -13 -60 -10 0 -14 16 -14 60 1 43 4 60 14 60
9 0 13 -17 13 -60z m61 0 c0 -45 -4 -60 -14 -60 -10 0 -14 15 -14 60 1 43 4
60 14 60 10 0 13 -17 14 -60z m-9859 20 c0 -17 -7 -20 -40 -20 -33 0 -40 3
-40 20 0 17 7 20 40 20 33 0 40 -3 40 -20z m7088 -33 l3 -48 -43 3 c-41 3 -43
5 -46 36 -5 53 3 64 45 60 38 -3 38 -3 41 -51z m337 3 l0 -45 -42 -3 -43 -3 0
44 c0 53 5 59 50 55 34 -3 35 -4 35 -48z m1875 -20 c0 -20 -5 -30 -15 -30 -10
0 -15 10 -15 30 0 20 5 30 15 30 10 0 15 -10 15 -30z m360 0 c0 -20 -5 -30
-15 -30 -10 0 -15 10 -15 30 0 20 5 30 15 30 10 0 15 -10 15 -30z m-9660 -5
c0 -11 -11 -15 -40 -15 -29 0 -40 4 -40 15 0 11 11 15 40 15 29 0 40 -4 40
-15z m10300 -15 c0 -16 -4 -30 -10 -30 -5 0 -10 14 -10 30 0 17 5 30 10 30 6
0 10 -13 10 -30z m620 0 c0 -20 -5 -30 -15 -30 -15 0 -21 40 -8 53 14 15 23 6
23 -23z m-5642 -120 c-3 -33 -5 -31 -26 33 -12 38 -19 73 -16 79 11 17 45 -74
42 -112z m-5278 85 c0 -11 -11 -15 -40 -15 -29 0 -40 4 -40 15 0 11 11 15 40
15 29 0 40 -4 40 -15z m9098 -80 c-1 -83 -3 -96 -17 -93 -13 3 -16 18 -17 88
-1 92 0 100 21 100 10 0 13 -21 13 -95z m60 0 c0 -75 -3 -95 -14 -95 -11 0
-14 20 -14 95 0 75 3 95 14 95 11 0 14 -20 14 -95z m60 0 c0 -75 -3 -95 -14
-95 -11 0 -14 20 -14 95 0 75 3 95 14 95 11 0 14 -20 14 -95z m80 35 c0 -43
-4 -60 -13 -60 -10 0 -13 17 -14 60 0 44 4 60 14 60 9 0 13 -16 13 -60z m361
0 c-1 -45 -4 -60 -15 -60 -10 0 -14 15 -14 60 0 46 3 60 14 60 12 0 15 -14 15
-60z m76 -35 c0 -62 -4 -90 -12 -92 -10 -4 -13 19 -13 92 0 73 3 96 13 93 8
-3 12 -31 12 -93z m63 0 c0 -75 -3 -95 -14 -95 -11 0 -14 20 -13 95 0 72 4 95
14 95 10 0 13 -22 13 -95z m60 0 c0 -72 -3 -95 -13 -95 -10 0 -13 23 -13 95 0
72 3 95 13 95 10 0 13 -23 13 -95z m-2540 26 c2 -12 1 -34 -2 -47 -5 -20 -13
-24 -46 -24 l-40 0 0 51 0 50 43 -3 c35 -3 43 -7 45 -27z m560 12 c-2 -13 -15
-19 -46 -21 -37 -3 -42 -1 -42 17 0 18 6 21 46 21 38 0 45 -3 42 -17z m-7878
-13 c0 -17 -7 -20 -40 -20 -33 0 -40 3 -40 20 0 17 7 20 40 20 33 0 40 -3 40
-20z m1635 -10 c8 -16 15 -40 15 -55 0 -23 -4 -25 -40 -25 -35 0 -40 3 -40 24
0 36 21 86 36 86 7 0 20 -13 29 -30z m3788 -65 c43 -79 44 -82 51 -205 4 -69
4 -122 1 -118 -4 4 -30 58 -58 120 -48 106 -51 119 -55 208 -2 64 0 92 7 85 5
-5 30 -46 54 -90z m-7213 45 c0 -19 -7 -20 -124 -20 -119 0 -146 6 -131 30 4
6 58 10 131 10 117 0 124 -1 124 -20z m7305 -46 c30 -45 40 -74 51 -142 12
-76 12 -104 0 -91 -2 2 -24 43 -50 90 -39 73 -46 94 -46 142 0 31 2 57 4 57 2
0 20 -25 41 -56z m2995 36 c0 -17 -7 -20 -45 -20 -38 0 -45 3 -45 20 0 17 7
20 45 20 38 0 45 -3 45 -20z m-8510 -15 c0 -11 -11 -15 -40 -15 -29 0 -40 4
-40 15 0 11 11 15 40 15 29 0 40 -4 40 -15z m7878 -2 c-2 -13 -15 -19 -46 -21
-37 -3 -42 -1 -42 17 0 18 6 21 46 21 38 0 45 -3 42 -17z m-2791 -105 c40
-175 43 -141 -66 -667 -55 -266 -102 -485 -103 -487 -5 -4 -319 54 -326 61 -4
4 40 126 153 420 40 102 225 586 251 655 37 97 54 133 61 126 3 -3 17 -52 30
-108z m239 64 c16 -37 19 -60 15 -107 l-6 -59 -22 70 c-23 69 -30 144 -15 144
4 0 16 -22 28 -48z m3974 8 c0 -20 -5 -30 -15 -30 -10 0 -15 10 -15 30 0 20 5
30 15 30 10 0 15 -10 15 -30z m360 0 c0 -20 -5 -30 -15 -30 -10 0 -15 10 -15
30 0 20 5 30 15 30 10 0 15 -10 15 -30z m-11450 5 c0 -13 -18 -15 -127 -13
-90 2 -128 7 -131 16 -3 9 27 12 127 12 111 0 131 -2 131 -15z m7646 -170 c69
-82 137 -172 149 -200 63 -138 119 -264 132 -295 15 -35 15 -35 -5 -15 -11 11
-105 136 -210 278 -162 218 -195 268 -212 324 -11 36 -20 72 -20 81 0 22 7 15
166 -173z m-5856 150 c0 -11 -11 -15 -40 -15 -29 0 -40 4 -40 15 0 11 11 15
40 15 29 0 40 -4 40 -15z m8510 -5 c0 -17 -7 -20 -45 -20 -38 0 -45 3 -45 20
0 17 7 20 45 20 38 0 45 -3 45 -20z m-630 -20 c0 -17 -7 -20 -45 -20 -38 0
-45 3 -45 20 0 17 7 20 45 20 38 0 45 -3 45 -20z m2420 -5 c0 -14 -4 -25 -10
-25 -5 0 -10 11 -10 25 0 14 5 25 10 25 6 0 10 -11 10 -25z m620 0 c0 -16 -6
-25 -15 -25 -9 0 -15 9 -15 25 0 16 6 25 15 25 9 0 15 -9 15 -25z m-12710 0
c0 -13 -21 -15 -130 -15 -109 0 -130 2 -130 15 0 13 21 15 130 15 109 0 130
-2 130 -15z m8878 -32 l-3 -48 -40 0 c-38 0 -40 2 -43 33 -5 52 3 62 48 62
l41 0 -3 -47z m230 18 c2 -12 1 -34 -2 -47 -5 -20 -13 -24 -46 -24 l-40 0 0
51 0 50 43 -3 c35 -3 43 -7 45 -27z m-2941 12 c-3 -5 -24 -57 -47 -118 -43
-110 -44 -110 -183 -263 -77 -84 -142 -151 -144 -148 -2 2 35 82 84 178 88
175 88 175 186 267 88 82 116 105 104 84z m4721 -20 c-2 -17 -9 -28 -18 -28
-9 0 -16 11 -18 28 -3 22 1 27 18 27 17 0 21 -5 18 -27z m62 -3 c0 -20 -5 -30
-15 -30 -10 0 -15 10 -15 30 0 20 5 30 15 30 10 0 15 -10 15 -30z m60 0 c0
-20 -5 -30 -15 -30 -10 0 -15 10 -15 30 0 20 5 30 15 30 10 0 15 -10 15 -30z
m78 -30 c0 -45 -4 -60 -14 -60 -10 0 -14 15 -14 60 0 45 4 60 14 60 10 0 14
-15 14 -60z m361 0 c-1 -45 -4 -60 -15 -60 -10 0 -14 15 -14 60 0 46 3 60 14
60 12 0 15 -14 15 -60z m79 33 c-4 -39 -28 -42 -28 -4 0 21 5 31 16 31 11 0
14 -8 12 -27z m62 -3 c0 -20 -5 -30 -15 -30 -10 0 -15 10 -15 30 0 20 5 30 15
30 10 0 15 -10 15 -30z m60 0 c0 -20 -5 -30 -15 -30 -10 0 -15 10 -15 30 0 20
5 30 15 30 10 0 15 -10 15 -30z m-9860 0 c0 -17 -7 -20 -40 -20 -33 0 -40 3
-40 20 0 17 7 20 40 20 33 0 40 -3 40 -20z m8510 -20 c0 -17 -7 -20 -45 -20
-38 0 -45 3 -45 20 0 17 7 20 45 20 38 0 45 -3 45 -20z m-10300 -5 c0 -13 -21
-15 -130 -15 -109 0 -130 2 -130 15 0 13 21 15 130 15 109 0 130 -2 130 -15z
m7453 -122 c46 -71 93 -145 106 -165 19 -33 121 -376 121 -410 0 -7 -66 106
-146 251 -122 221 -147 274 -155 325 -5 34 -11 76 -14 94 -3 17 -3 32 0 32 3
0 43 -57 88 -127z m2215 110 c-2 -13 -15 -19 -46 -21 -37 -3 -42 -1 -42 17 0
18 6 21 46 21 38 0 45 -3 42 -17z m-2435 -168 c42 -96 44 -107 56 -254 6 -84
10 -155 7 -158 -2 -2 -38 101 -79 229 -70 217 -75 237 -70 298 l6 65 18 -40
c10 -22 38 -85 62 -140z m104 65 c37 -70 42 -87 67 -264 15 -104 25 -191 22
-193 -5 -5 -22 32 -91 192 -37 85 -45 117 -54 209 -6 60 -11 123 -11 140 0 29
1 29 13 11 8 -11 32 -54 54 -95z m-5547 85 c0 -11 -11 -15 -40 -15 -29 0 -40
4 -40 15 0 11 11 15 40 15 29 0 40 -4 40 -15z m9100 -11 c0 -33 -33 -30 -38 4
-3 17 2 22 17 22 16 0 21 -6 21 -26z m58 -34 c0 -44 -4 -60 -13 -60 -10 0 -14
16 -14 60 1 43 4 60 14 60 9 0 13 -17 13 -60z m62 35 c0 -14 -6 -25 -12 -26
-10 0 -10 -2 0 -6 18 -7 16 -63 -3 -63 -12 0 -15 13 -15 60 0 47 3 60 15 60 9
0 15 -9 15 -25z m517 -32 c-3 -80 -26 -84 -26 -4 1 45 4 61 14 61 11 0 14 -14
12 -57z m61 -3 c0 -44 -4 -60 -13 -60 -10 0 -14 16 -14 60 1 43 4 60 14 60 9
0 13 -17 13 -60z m61 0 c0 -45 -4 -60 -14 -60 -10 0 -14 15 -14 60 1 43 4 60
14 60 10 0 13 -17 14 -60z m-5435 -57 c-53 -178 -66 -204 -177 -350 -58 -78
-111 -144 -116 -148 -6 -3 -1 16 9 42 11 26 51 128 89 225 68 173 71 180 143
258 40 44 76 80 79 80 3 0 -9 -48 -27 -107z m-6214 77 c0 -19 -7 -20 -124 -20
-73 0 -127 4 -131 10 -15 24 12 30 131 30 117 0 124 -1 124 -20z m10300 -10
c0 -17 -7 -20 -45 -20 -38 0 -45 3 -45 20 0 17 7 20 45 20 38 0 45 -3 45 -20z
m-8510 -15 c0 -11 -11 -15 -40 -15 -29 0 -40 4 -40 15 0 11 11 15 40 15 29 0
40 -4 40 -15z m7880 -5 c0 -17 -7 -20 -45 -20 -38 0 -45 3 -45 20 0 17 7 20
45 20 38 0 45 -3 45 -20z m2360 -10 c0 -20 -5 -30 -15 -30 -10 0 -15 10 -15
30 0 20 5 30 15 30 10 0 15 -10 15 -30z m610 0 c0 -16 -5 -30 -10 -30 -14 0
-24 26 -16 45 10 26 26 16 26 -15z m-1550 -10 c0 -20 -5 -30 -15 -30 -10 0
-15 10 -15 30 0 20 5 30 15 30 10 0 15 -10 15 -30z m360 0 c0 -20 -5 -30 -15
-30 -10 0 -15 10 -15 30 0 20 5 30 15 30 10 0 15 -10 15 -30z m-2462 -27 c-3
-48 -3 -48 -40 -51 -40 -3 -40 -3 -40 53 0 14 0 30 1 35 1 6 19 10 42 10 l40
0 -3 -47z m-8988 22 c0 -13 -18 -15 -127 -13 -90 2 -128 7 -131 16 -3 9 27 12
127 12 111 0 131 -2 131 -15z m7631 -103 c48 -64 145 -196 216 -292 l130 -175
118 -265 c64 -146 130 -294 146 -329 60 -132 35 -100 -160 204 -35 55 -158
245 -273 422 -115 178 -213 334 -218 347 -19 50 -58 206 -52 206 4 -1 46 -53
93 -118z m-5841 78 c0 -17 -7 -20 -40 -20 -33 0 -40 3 -40 20 0 17 7 20 40 20
33 0 40 -3 40 -20z m8510 -5 c0 -11 -12 -15 -45 -15 -33 0 -45 4 -45 15 0 11
12 15 45 15 33 0 45 -4 45 -15z m-630 -15 c0 -17 -7 -20 -45 -20 -38 0 -45 3
-45 20 0 17 7 20 45 20 38 0 45 -3 45 -20z m-9670 -5 c0 -13 -21 -15 -130 -15
-109 0 -130 2 -130 15 0 13 21 15 130 15 109 0 130 -2 130 -15z m10948 -80 c0
-76 -2 -95 -14 -95 -11 0 -14 19 -14 95 0 74 3 95 14 95 10 0 13 -22 14 -95z
m60 0 c0 -76 -2 -95 -14 -95 -11 0 -14 19 -14 95 0 74 3 95 14 95 10 0 13 -22
14 -95z m80 35 c0 -45 -4 -60 -14 -60 -10 0 -14 15 -14 60 0 45 4 60 14 60 10
0 14 -15 14 -60z m361 0 c-1 -45 -4 -60 -15 -60 -10 0 -14 15 -14 60 0 46 3
60 14 60 12 0 15 -14 15 -60z m78 -32 c-1 -63 -6 -93 -14 -96 -10 -3 -13 20
-13 92 0 76 3 96 14 96 11 0 14 -19 13 -92z m61 -3 c0 -73 -3 -95 -13 -95 -10
0 -14 23 -14 95 -1 74 2 95 13 95 10 0 13 -22 14 -95z m61 0 c0 -72 -4 -95
-14 -95 -10 0 -14 23 -14 95 -1 78 2 95 14 95 12 0 15 -17 14 -95z m-9859 50
c0 -11 -11 -15 -40 -15 -29 0 -40 4 -40 15 0 11 11 15 40 15 29 0 40 -4 40
-15z m4041 -176 l-90 -184 -152 -165 c-136 -148 -180 -188 -179 -163 1 4 65
119 143 254 l142 246 110 101 c61 55 111 99 113 98 1 -2 -38 -86 -87 -187z
m-5831 156 c0 -13 -21 -15 -130 -15 -119 0 -142 4 -123 23 3 4 62 7 130 7 103
0 123 -2 123 -15z m6967 -157 l41 -173 -14 -150 c-8 -82 -13 -166 -12 -185 2
-19 9 34 17 118 8 83 17 152 20 152 4 0 28 -91 54 -202 40 -173 47 -218 47
-306 0 -101 0 -102 -22 -98 -13 3 -48 10 -80 16 l-56 11 3 82 4 82 -9 -74 c-6
-41 -12 -76 -15 -79 -4 -5 -203 26 -216 34 -6 3 37 220 132 674 17 80 35 173
42 208 6 34 14 62 17 62 4 0 25 -78 47 -172z m3333 152 c0 -17 -7 -20 -45 -20
-38 0 -45 3 -45 20 0 17 7 20 45 20 38 0 45 -3 45 -20z m-630 -10 c0 -17 -7
-20 -45 -20 -38 0 -45 3 -45 20 0 17 7 20 45 20 38 0 45 -3 45 -20z m-7880
-20 c0 -17 -7 -20 -40 -20 -33 0 -40 3 -40 20 0 17 7 20 40 20 33 0 40 -3 40
-20z m4267 13 c-3 -5 -44 -109 -92 -233 -85 -222 -88 -226 -181 -351 l-94
-126 -53 9 c-28 5 -54 12 -57 14 -2 3 38 90 90 193 79 159 103 199 155 252 33
35 98 106 144 157 74 81 102 108 88 85z m1501 -283 l151 -275 76 -279 c42
-153 74 -280 73 -282 -7 -6 -97 18 -106 29 -5 7 -67 144 -138 306 -70 161
-130 289 -131 284 -2 -6 53 -137 122 -293 69 -155 125 -287 125 -293 0 -10
-48 -6 -137 13 l-51 11 -7 52 c-4 29 -20 146 -37 262 -16 115 -27 225 -24 244
3 19 -1 45 -8 60 -17 33 -78 459 -63 440 2 -2 72 -128 155 -279z m1660 233 c3
-38 0 -43 -22 -49 -49 -12 -61 -3 -64 49 l-3 48 43 -3 c43 -3 43 -3 46 -45z
m-9218 12 c0 -13 -18 -15 -127 -13 -90 2 -128 7 -131 16 -3 9 27 12 127 12
111 0 131 -2 131 -15z m10300 -15 c0 -17 -7 -20 -45 -20 -38 0 -45 3 -45 20 0
17 7 20 45 20 38 0 45 -3 45 -20z m-630 -10 c0 -17 -7 -20 -45 -20 -38 0 -45
3 -45 20 0 17 7 20 45 20 38 0 45 -3 45 -20z m1418 -40 c0 -45 -4 -60 -14 -60
-10 0 -14 15 -14 60 0 45 4 60 14 60 10 0 14 -15 14 -60z m361 0 c-1 -45 -4
-60 -15 -60 -10 0 -14 15 -14 60 0 46 3 60 14 60 12 0 15 -14 15 -60z m-3419
-189 c85 -101 207 -245 270 -320 63 -76 163 -194 223 -263 114 -135 130 -168
77 -168 l-30 0 0 -80 c0 -44 -4 -80 -9 -80 -5 0 -73 87 -152 193 -78 105 -203
274 -278 375 -113 151 -146 204 -194 310 -56 121 -103 229 -114 262 -7 21 30
-20 207 -229z m4000 209 c0 -20 -5 -30 -15 -30 -10 0 -15 10 -15 30 0 20 5 30
15 30 10 0 15 -10 15 -30z m610 0 c0 -16 -5 -30 -10 -30 -14 0 -24 26 -16 45
10 26 26 16 26 -15z m-12640 -5 c0 -13 -21 -15 -130 -15 -109 0 -130 2 -130
15 0 13 21 15 130 15 109 0 130 -2 130 -15z m9990 -15 c0 -17 -7 -20 -45 -20
-38 0 -45 3 -45 20 0 17 7 20 45 20 38 0 45 -3 45 -20z m-7985 -104 c-60 -57
-112 -102 -114 -100 -5 5 203 203 214 203 6 0 -39 -46 -100 -103z m8295 84 c0
-17 -7 -20 -45 -20 -38 0 -45 3 -45 20 0 17 7 20 45 20 38 0 45 -3 45 -20z
m530 -20 c26 -48 -1 -120 -44 -120 -34 0 -49 24 -49 77 0 77 60 105 93 43z
m2218 12 c15 -19 16 -86 2 -113 -16 -29 -64 -25 -78 6 -21 45 -10 106 21 127
13 8 39 -1 55 -20z m-5675 -134 c61 -140 68 -164 86 -288 42 -281 63 -442 58
-446 -2 -2 -48 121 -102 273 -96 275 -98 279 -106 403 -5 69 -10 144 -13 168
-2 23 0 42 3 42 4 0 37 -69 74 -152z m2297 132 c0 -17 -7 -20 -45 -20 -38 0
-45 3 -45 20 0 17 7 20 45 20 38 0 45 -3 45 -20z m1280 16 c0 -2 -7 -6 -15
-10 -8 -3 -15 -1 -15 4 0 6 7 10 15 10 8 0 15 -2 15 -4z m60 -20 c0 -14 -4
-28 -10 -31 -5 -3 -10 0 -10 9 0 8 -3 21 -6 30 -4 11 -1 16 10 16 10 0 16 -9
16 -24z m517 -136 c0 -128 -2 -160 -13 -160 -11 0 -14 32 -14 160 0 129 3 160
14 160 11 0 13 -31 13 -160z m60 58 c0 -94 1 -103 18 -103 17 0 18 9 18 103
-1 80 2 102 12 102 11 0 14 -24 14 -111 -1 -62 3 -114 8 -118 9 -7 33 -71 33
-88 0 -6 -8 -10 -17 -8 -10 2 -39 4 -65 4 l-47 1 0 160 c-1 131 2 160 13 160
11 0 14 -21 13 -102z m-11587 77 c0 -13 -21 -15 -130 -15 -119 0 -142 4 -123
23 3 4 62 7 130 7 103 0 123 -2 123 -15z m2565 -243 c-3 -8 -16 -12 -32 -10
-27 3 -28 6 -31 62 -2 43 2 70 17 102 12 24 21 47 21 52 0 4 6 14 13 21 10 10
13 -10 15 -100 1 -62 0 -119 -3 -127z m69 175 c21 -49 26 -75 24 -122 -3 -59
-3 -60 -33 -60 l-30 0 -3 123 c-1 69 1 122 7 122 5 0 21 -28 35 -63z m1566
-62 l0 -125 -31 0 -31 0 4 78 c4 69 35 172 53 172 3 0 5 -56 5 -125z m66 70
c18 -42 24 -73 24 -125 l0 -70 -30 0 -30 0 0 125 c0 69 2 125 6 125 3 0 16
-25 30 -55z m3695 -477 c186 -287 333 -524 326 -525 -7 -2 -61 7 -122 20
l-110 22 -168 305 c-178 323 -169 301 -247 597 -12 43 -23 87 -27 98 -3 11 -2
17 2 13 3 -3 159 -242 346 -530z m-1920 216 c-50 -158 -93 -290 -96 -293 -6
-5 -146 16 -154 24 -2 3 5 29 17 58 11 28 33 84 48 122 19 50 62 117 148 233
66 89 122 158 124 153 2 -5 -38 -139 -87 -297z m3067 268 c4 -44 -13 -64 -52
-60 -29 3 -31 5 -34 51 l-3 48 43 -3 c41 -3 43 -5 46 -36z m882 18 c0 -17 -7
-20 -45 -20 -38 0 -45 3 -45 20 0 17 7 20 45 20 38 0 45 -3 45 -20z m-7985
-94 c-60 -57 -112 -102 -114 -100 -6 5 202 203 214 203 6 1 -39 -46 -100 -103z
m-2005 79 c0 -13 -21 -15 -130 -15 -119 0 -142 4 -123 23 3 4 62 7 130 7 103
0 123 -2 123 -15z m10300 -5 c0 -17 -7 -20 -45 -20 -38 0 -45 3 -45 20 0 17 7
20 45 20 38 0 45 -3 45 -20z m790 -10 c0 -20 -5 -30 -15 -30 -10 0 -15 10 -15
30 0 20 5 30 15 30 10 0 15 -10 15 -30z m360 0 c0 -20 -5 -30 -15 -30 -10 0
-15 10 -15 30 0 20 5 30 15 30 10 0 15 -10 15 -30z m-5930 -222 c-67 -117
-125 -216 -129 -220 -8 -9 -132 11 -145 23 -19 17 59 110 221 261 92 86 169
155 171 153 2 -2 -51 -100 -118 -217z m-3510 102 c-58 -54 -109 -99 -115 -99
-5 -1 38 44 95 99 58 54 110 99 115 99 6 1 -37 -44 -95 -99z m7980 80 c0 -17
-7 -20 -45 -20 -38 0 -45 3 -45 20 0 17 7 20 45 20 38 0 45 -3 45 -20z m-9990
-5 c0 -13 -18 -15 -127 -13 -90 2 -128 7 -131 16 -3 9 27 12 127 12 111 0 131
-2 131 -15z m11090 -22 c-1 -27 -1 -27 -15 -9 -19 25 -19 36 0 36 10 0 15 -10
15 -27z m358 -98 c0 -99 -3 -125 -14 -125 -11 0 -13 25 -13 125 1 96 4 125 14
125 10 0 13 -29 13 -125z m-1780 88 c-2 -13 -15 -19 -46 -21 -37 -3 -42 -1
-42 17 0 18 6 21 46 21 38 0 45 -3 42 -17z m-9668 -18 c0 -13 -21 -15 -130
-15 -109 0 -130 2 -130 15 0 13 21 15 130 15 109 0 130 -2 130 -15z m2010 -82
c-57 -54 -108 -99 -114 -101 -6 -2 36 42 94 97 58 55 109 100 113 101 5 0 -37
-44 -93 -97z m7980 67 c0 -17 -7 -20 -45 -20 -38 0 -45 3 -45 20 0 17 7 20 45
20 38 0 45 -3 45 -20z m-1110 -36 l0 -45 -42 3 c-39 3 -43 6 -46 31 -6 46 4
57 48 57 l40 0 0 -46z m-5413 4 c86 -52 81 -192 -8 -240 -92 -49 -189 15 -189
127 0 57 17 87 64 116 41 25 90 24 133 -3z m6833 7 c0 -11 -12 -15 -45 -15
-33 0 -45 4 -45 15 0 11 12 15 45 15 33 0 45 -4 45 -15z m1916 -26 c0 -19 4
-43 7 -54 6 -19 3 -20 -53 -17 -33 2 -60 7 -60 12 0 21 32 80 40 75 6 -4 17 1
26 10 23 23 38 14 40 -26z m-12216 16 c0 -13 -21 -15 -130 -15 -109 0 -130 2
-130 15 0 13 21 15 130 15 109 0 130 -2 130 -15z m2010 -92 c-56 -54 -107 -99
-114 -101 -6 -2 39 44 99 101 61 58 112 104 113 102 2 -2 -42 -48 -98 -102z
m7660 92 c0 -11 -12 -15 -45 -15 -33 0 -45 4 -45 15 0 11 12 15 45 15 33 0 45
-4 45 -15z m-4467 -17 c-6 -7 -45 -59 -87 -115 -43 -57 -83 -103 -91 -103 -29
0 -76 13 -73 21 4 11 241 208 252 209 5 0 4 -6 -1 -12z m4787 -18 c0 -17 -7
-20 -45 -20 -38 0 -45 3 -45 20 0 17 7 20 45 20 38 0 45 -3 45 -20z m-4352
-149 l-73 -151 -50 6 c-27 3 -54 10 -59 14 -5 5 49 72 120 149 71 77 130 139
131 137 2 -2 -29 -71 -69 -155z m-5638 129 c0 -19 -7 -20 -124 -20 -73 0 -127
4 -131 10 -15 24 12 30 131 30 117 0 124 -1 124 -20z m2015 -91 c-53 -52 -104
-98 -113 -102 -10 -5 32 39 93 97 60 57 111 103 113 101 2 -1 -40 -45 -93 -96z
m8285 81 c0 -17 -7 -20 -45 -20 -38 0 -45 3 -45 20 0 17 7 20 45 20 38 0 45
-3 45 -20z m-630 -5 c0 -11 -12 -15 -45 -15 -33 0 -45 4 -45 15 0 11 12 15 45
15 33 0 45 -4 45 -15z m-7100 -105 l0 -100 -35 0 -35 0 0 100 0 100 35 0 35 0
0 -100z m90 0 l0 -100 -35 0 -35 0 0 100 0 100 35 0 35 0 0 -100z m1540 0 l0
-100 -30 0 -30 0 0 100 0 100 30 0 30 0 0 -100z m90 0 l0 -100 -30 0 -30 0 0
100 0 100 30 0 30 0 0 -100z m-4290 65 c0 -13 -21 -15 -130 -15 -109 0 -130 2
-130 15 0 13 21 15 130 15 109 0 130 -2 130 -15z m2102 -14 c-7 -4 -49 -43
-95 -87 -45 -44 -91 -85 -102 -93 -11 -7 29 34 90 92 60 58 112 104 114 101 3
-3 0 -9 -7 -13z m7003 -26 c0 -40 0 -40 -42 -43 l-43 -3 0 46 0 46 43 -3 c42
-3 42 -3 42 -43z m5480 25 c0 -24 -89 -21 -93 3 -3 16 3 18 45 15 35 -2 48 -7
48 -18z m-4285 -10 c0 -17 -7 -20 -45 -20 -38 0 -45 3 -45 20 0 17 7 20 45 20
38 0 45 -3 45 -20z m-630 -10 c0 -17 -7 -20 -45 -20 -38 0 -45 3 -45 20 0 17
7 20 45 20 38 0 45 -3 45 -20z m-9670 -15 c0 -13 -21 -15 -130 -15 -109 0
-130 2 -130 15 0 13 21 15 130 15 109 0 130 -2 130 -15z m9990 -5 c0 -17 -7
-20 -45 -20 -38 0 -45 3 -45 20 0 17 7 20 45 20 38 0 45 -3 45 -20z m-7920
-46 c-25 -25 -76 -73 -115 -106 -48 -41 -36 -27 39 46 109 106 160 146 76 60z
m12520 31 c0 -11 -12 -15 -50 -15 -38 0 -50 4 -50 15 0 11 12 15 50 15 38 0
50 -4 50 -15z m-8779 -100 c-29 -76 -40 -95 -56 -95 -50 0 -50 16 1 81 48 63
86 109 89 109 2 0 -14 -43 -34 -95z m2502 -273 c274 -369 253 -339 245 -347
-4 -4 -57 4 -118 17 l-112 23 -34 75 c-119 266 -256 577 -261 590 -9 27 45
-42 280 -358z m1987 348 c0 -17 -7 -20 -45 -20 -38 0 -45 3 -45 20 0 17 7 20
45 20 38 0 45 -3 45 -20z m-10300 -5 c0 -13 -21 -15 -130 -15 -109 0 -130 2
-130 15 0 13 21 15 130 15 109 0 130 -2 130 -15z m9990 -25 c0 -17 -7 -20 -45
-20 -38 0 -45 3 -45 20 0 17 7 20 45 20 38 0 45 -3 45 -20z m-7984 -95 c-60
-58 -112 -103 -114 -100 -3 3 -3 6 -1 8 2 1 50 46 107 100 56 53 106 97 110
97 4 -1 -42 -48 -102 -105z m3228 80 c-15 -23 -34 -33 -34 -18 0 10 32 43 42
43 5 0 1 -11 -8 -25z m9356 10 c0 -11 -12 -15 -50 -15 -38 0 -50 4 -50 15 0
11 12 15 50 15 38 0 50 -4 50 -15z m-14590 -20 c0 -13 -21 -15 -130 -15 -119
0 -142 4 -123 23 3 4 62 7 130 7 103 0 123 -2 123 -15z m8990 -40 l0 -45 -38
0 c-21 0 -41 2 -43 4 -3 3 -3 23 -1 45 4 40 5 41 43 41 l39 0 0 -45z m228 3
c-3 -43 -3 -43 -45 -46 l-43 -3 0 45 0 46 46 0 45 0 -3 -42z m1082 22 c0 -17
-7 -20 -45 -20 -38 0 -45 3 -45 20 0 17 7 20 45 20 38 0 45 -3 45 -20z m-630
-10 c0 -17 -7 -20 -45 -20 -38 0 -45 3 -45 20 0 17 7 20 45 20 38 0 45 -3 45
-20z m4918 -12 c3 -15 -4 -18 -47 -18 -36 0 -51 4 -51 13 0 23 12 28 55 25 29
-2 41 -8 43 -20z m-12509 -24 c-50 -53 -193 -181 -188 -169 6 14 207 205 216
205 4 0 -9 -16 -28 -36z m7911 16 c0 -17 -7 -20 -45 -20 -38 0 -45 3 -45 20 0
17 7 20 45 20 38 0 45 -3 45 -20z m-2102 -227 c147 -267 150 -273 131 -273
-20 1 -140 27 -143 31 -5 7 -126 457 -126 468 0 6 2 11 4 11 2 0 63 -107 134
-237z m-7888 212 c0 -13 -18 -15 -127 -13 -90 2 -128 7 -131 16 -3 9 27 12
127 12 111 0 131 -2 131 -15z m550 -15 c0 -23 -4 -30 -20 -30 -16 0 -20 7 -20
30 0 23 4 30 20 30 16 0 20 -7 20 -30z m120 0 c0 -23 -4 -30 -20 -30 -16 0
-20 7 -20 30 0 23 4 30 20 30 16 0 20 -7 20 -30z m80 0 c0 -23 -4 -30 -20 -30
-16 0 -20 7 -20 30 0 23 4 30 20 30 16 0 20 -7 20 -30z m9550 -10 c0 -17 -7
-20 -45 -20 -38 0 -45 3 -45 20 0 17 7 20 45 20 38 0 45 -3 45 -20z m460 -170
l0 -190 -50 0 -50 0 0 118 c0 64 5 134 10 154 10 33 67 108 84 108 3 0 6 -85
6 -190z m80 154 c46 -52 50 -71 50 -215 l0 -129 -50 0 -50 0 0 190 c0 105 4
190 9 190 5 0 23 -16 41 -36z m490 -154 l0 -190 -56 0 -56 0 4 133 c2 83 9
141 17 157 16 30 71 90 83 90 4 0 8 -85 8 -190z m73 151 c47 -52 57 -93 57
-228 l0 -113 -55 0 -55 0 0 190 c0 105 4 190 9 190 5 0 25 -18 44 -39z m487
-151 l0 -190 -56 0 -56 0 4 133 c2 83 9 141 17 157 16 30 71 90 83 90 4 0 8
-85 8 -190z m73 151 c47 -52 57 -93 57 -228 l0 -113 -55 0 -55 0 0 190 c0 105
4 190 9 190 5 0 25 -18 44 -39z m477 -151 l0 -190 -50 0 -50 0 0 118 c0 64 5
134 10 154 10 33 67 108 84 108 3 0 6 -85 6 -190z m80 154 c17 -20 35 -47 40
-59 7 -19 13 -179 11 -267 -1 -15 -10 -18 -51 -18 l-50 0 0 190 c0 105 4 190
9 190 5 0 23 -16 41 -36z m490 -154 l0 -190 -55 0 -55 0 0 113 c0 61 5 129 11
150 10 37 72 117 90 117 5 0 9 -85 9 -190z m73 151 c47 -52 57 -93 57 -228 l0
-113 -55 0 -55 0 0 190 c0 105 4 190 9 190 5 0 25 -18 44 -39z m-3413 9 c0
-17 -7 -20 -45 -20 -38 0 -45 3 -45 20 0 17 7 20 45 20 38 0 45 -3 45 -20z
m4915 0 c0 -18 -72 -27 -87 -12 -19 19 3 33 45 30 29 -2 42 -8 42 -18z
m-12496 -16 c-39 -43 -203 -190 -198 -179 6 14 206 205 215 205 4 0 -3 -12
-17 -26z m-2089 1 c0 -13 -21 -15 -130 -15 -109 0 -130 2 -130 15 0 13 21 15
130 15 109 0 130 -2 130 -15z m9990 -5 c0 -17 -7 -20 -45 -20 -38 0 -45 3 -45
20 0 17 7 20 45 20 38 0 45 -3 45 -20z m4600 -35 c0 -11 -12 -15 -50 -15 -38
0 -50 4 -50 15 0 11 12 15 50 15 38 0 50 -4 50 -15z m-14590 -10 c0 -13 -21
-15 -130 -15 -119 0 -142 4 -123 23 3 4 62 7 130 7 103 0 123 -2 123 -15z
m498 -12 c-2 -17 -10 -29 -20 -31 -14 -3 -18 3 -18 27 0 25 4 31 21 31 16 0
20 -5 17 -27z m52 -3 c0 -23 -4 -30 -20 -30 -16 0 -20 7 -20 30 0 23 4 30 20
30 16 0 20 -7 20 -30z m70 0 c0 -23 -4 -30 -20 -30 -16 0 -20 7 -20 30 0 23 4
30 20 30 16 0 20 -7 20 -30z m50 0 c0 -23 -4 -30 -20 -30 -16 0 -20 7 -20 30
0 23 4 30 20 30 16 0 20 -7 20 -30z m80 0 c0 -23 -4 -30 -20 -30 -16 0 -20 7
-20 30 0 23 4 30 20 30 16 0 20 -7 20 -30z m1255 -74 c-60 -57 -112 -102 -114
-100 -5 5 203 203 214 203 6 0 -39 -46 -100 -103z m7100 59 c0 -40 0 -40 -42
-43 l-43 -3 0 46 0 46 43 -3 c42 -3 42 -3 42 -43z m565 25 c0 -17 -7 -20 -45
-20 -38 0 -45 3 -45 20 0 17 7 20 45 20 38 0 45 -3 45 -20z m320 -20 c0 -17
-7 -20 -45 -20 -38 0 -45 3 -45 20 0 17 7 20 45 20 38 0 45 -3 45 -20z m-9990
-25 c0 -13 -21 -15 -130 -15 -119 0 -142 4 -123 23 3 4 62 7 130 7 103 0 123
-2 123 -15z m14590 0 c0 -11 -12 -15 -50 -15 -38 0 -50 4 -50 15 0 11 12 15
50 15 38 0 50 -4 50 -15z m-12585 -99 c-60 -57 -112 -102 -114 -100 -6 6 202
203 214 203 6 0 -39 -46 -100 -103z m8295 84 c0 -17 -7 -20 -45 -20 -38 0 -45
3 -45 20 0 17 7 20 45 20 38 0 45 -3 45 -20z m-630 -10 c0 -17 -7 -20 -45 -20
-38 0 -45 3 -45 20 0 17 7 20 45 20 38 0 45 -3 45 -20z m-10060 -5 c0 -12 -17
-15 -90 -15 -73 0 -90 3 -90 15 0 12 17 15 90 15 73 0 90 -3 90 -15z m7543
-68 c15 -70 14 -79 -9 -70 -10 4 -14 24 -14 76 0 39 2 68 5 66 2 -3 11 -35 18
-72z m2837 53 c0 -17 -7 -20 -45 -20 -38 0 -45 3 -45 20 0 17 7 20 45 20 38 0
45 -3 45 -20z m4313 5 c-2 -11 -61 -23 -80 -17 -7 2 -13 11 -13 19 0 11 11 13
48 11 26 -2 46 -7 45 -13z m-13805 -28 c3 -22 -1 -27 -17 -27 -17 0 -21 6 -21
31 0 24 4 30 18 27 10 -2 18 -14 20 -31z m122 3 c0 -23 -4 -30 -20 -30 -16 0
-20 7 -20 30 0 23 4 30 20 30 16 0 20 -7 20 -30z m50 0 c0 -23 -4 -30 -20 -30
-16 0 -20 7 -20 30 0 23 4 30 20 30 16 0 20 -7 20 -30z m80 0 c0 -23 -4 -30
-20 -30 -16 0 -20 7 -20 30 0 23 4 30 20 30 16 0 20 -7 20 -30z m13840 4 c0
-10 -14 -14 -50 -14 -37 0 -50 4 -50 14 0 9 12 16 28 18 41 5 72 -3 72 -18z
m-14590 1 c0 -13 -18 -15 -127 -13 -90 2 -128 7 -131 16 -3 9 27 12 127 12
111 0 131 -2 131 -15z m2005 -99 c-60 -57 -112 -102 -115 -99 -6 6 202 202
215 202 6 1 -39 -46 -100 -103z m8295 74 c0 -17 -7 -20 -45 -20 -38 0 -45 3
-45 20 0 17 7 20 45 20 38 0 45 -3 45 -20z m-10690 -5 c0 -12 -17 -15 -90 -15
-73 0 -90 3 -90 15 0 12 17 15 90 15 73 0 90 -3 90 -15z m5084 -5 c44 -6 81
-11 82 -13 2 -3 -172 -237 -191 -257 -13 -13 -15 4 -15 138 l0 152 23 -5 c12
-2 58 -9 101 -15z m4184 -33 l3 -48 -43 3 c-42 3 -43 4 -46 42 -4 45 9 57 53
54 28 -3 30 -6 33 -51z m330 44 c8 -5 12 -23 10 -47 -3 -38 -4 -39 -45 -42
l-43 -3 0 44 c0 24 3 47 7 50 9 10 55 8 71 -2z m462 -11 c0 -17 -7 -20 -45
-20 -38 0 -45 3 -45 20 0 17 7 20 45 20 38 0 45 -3 45 -20z m4634 -5 c-4 -10
-20 -15 -50 -15 -32 0 -44 4 -44 15 0 11 12 15 50 15 40 0 48 -3 44 -15z
m-14304 -10 c0 -13 -21 -15 -130 -15 -109 0 -130 2 -130 15 0 13 21 15 130 15
109 0 130 -2 130 -15z m2570 -110 l0 -125 -35 0 -35 0 0 63 c0 50 6 77 30 125
16 34 32 62 35 62 3 0 5 -56 5 -125z m69 46 c12 -33 21 -82 21 -115 l0 -56
-35 0 -35 0 0 126 c0 143 10 152 49 45z m1561 -46 l0 -125 -30 0 -30 0 0 64
c0 58 11 102 42 164 6 12 13 22 15 22 2 0 3 -56 3 -125z m10385 105 c0 -11
-13 -16 -47 -18 -36 -2 -48 0 -48 11 0 23 12 28 55 25 28 -2 40 -8 40 -18z
m-10311 -58 c9 -24 16 -71 16 -107 l0 -65 -30 0 -30 0 0 122 c0 103 2 120 14
108 7 -8 21 -34 30 -58z m646 52 c36 -3 68 -8 72 -10 4 -3 -30 -62 -76 -131
l-84 -127 -123 -27 c-68 -16 -127 -28 -131 -29 -21 -1 -3 44 44 106 163 218
179 235 206 230 15 -3 56 -8 92 -12z m5070 1 c0 -11 -12 -15 -45 -15 -33 0
-45 4 -45 15 0 11 12 15 45 15 33 0 45 -4 45 -15z m-7986 -99 c-60 -57 -111
-102 -114 -99 -6 6 201 202 214 203 6 0 -39 -47 -100 -104z m-2394 79 c0 -12
-17 -15 -90 -15 -73 0 -90 3 -90 15 0 12 17 15 90 15 73 0 90 -3 90 -15z m888
-28 c3 -22 -1 -27 -17 -27 -17 0 -21 6 -21 31 0 24 4 30 18 27 10 -2 18 -14
20 -31z m52 3 c0 -23 -4 -30 -20 -30 -16 0 -20 7 -20 30 0 23 4 30 20 30 16 0
20 -7 20 -30z m70 0 c0 -23 -4 -30 -20 -30 -16 0 -20 7 -20 30 0 23 4 30 20
30 16 0 20 -7 20 -30z m50 0 c0 -23 -4 -30 -20 -30 -16 0 -20 7 -20 30 0 23 4
30 20 30 16 0 20 -7 20 -30z m80 0 c0 -23 -4 -30 -20 -30 -16 0 -20 7 -20 30
0 23 4 30 20 30 16 0 20 -7 20 -30z m4408 14 c23 -4 42 -9 42 -13 -1 -3 -22
-42 -49 -86 l-48 -80 -118 -27 c-66 -15 -121 -25 -124 -23 -2 3 16 35 40 72
25 38 61 92 79 121 l35 54 50 -6 c27 -4 69 -9 93 -12z m5142 -4 c0 -17 -7 -20
-45 -20 -38 0 -45 3 -45 20 0 17 7 20 45 20 38 0 45 -3 45 -20z m4003 14 c16
-17 -8 -34 -49 -34 -42 0 -57 14 -37 33 8 9 77 9 86 1z m-4665 -26 c3 -14 -3
-18 -27 -18 -25 0 -31 4 -31 21 0 16 5 20 27 17 17 -2 29 -10 31 -20z m-4238
-22 c0 -6 -10 -29 -23 -50 -22 -39 -24 -40 -127 -62 -58 -13 -109 -23 -114
-24 -11 0 -2 20 43 98 l39 68 91 -10 c55 -5 91 -13 91 -20z m-5400 9 c0 -13
-18 -15 -127 -13 -90 2 -128 7 -131 16 -3 9 27 12 127 12 111 0 131 -2 131
-15z m-390 -10 c0 -12 -17 -15 -90 -15 -73 0 -90 3 -90 15 0 12 17 15 90 15
73 0 90 -3 90 -15z m2400 -82 c-57 -54 -108 -99 -114 -101 -6 -2 36 42 94 97
58 55 109 100 113 101 5 0 -37 -44 -93 -97z m3526 75 c52 -6 94 -14 94 -17 0
-7 -243 -62 -248 -56 -7 6 39 85 49 85 5 0 53 -5 105 -12z m8768 -6 c11 -19
-13 -33 -50 -30 -27 2 -40 8 -42 21 -3 14 4 17 42 17 25 0 47 -4 50 -8z m676
-1 c0 -5 -17 -11 -37 -15 -21 -3 -50 -12 -65 -20 -26 -14 -28 -13 -28 4 0 10
7 23 16 28 20 11 114 13 114 3z m-14980 -26 c0 -13 -21 -15 -130 -15 -109 0
-130 2 -130 15 0 13 21 15 130 15 109 0 130 -2 130 -15z m9638 -7 c3 -14 -3
-18 -27 -18 -25 0 -31 4 -31 21 0 16 5 20 27 17 17 -2 29 -10 31 -20z m662 12
c0 -5 -20 -10 -45 -10 -25 0 -45 5 -45 10 0 6 20 10 45 10 25 0 45 -4 45 -10z
m4288 -12 c3 -15 -4 -18 -47 -18 -36 0 -51 4 -51 13 0 23 12 28 55 25 29 -2
41 -8 43 -20z m-14978 -3 c0 -12 -17 -15 -90 -15 -73 0 -90 3 -90 15 0 12 17
15 90 15 73 0 90 -3 90 -15z m2400 -92 c-56 -54 -107 -99 -114 -101 -6 -2 39
44 99 101 61 58 112 104 113 102 2 -2 -42 -48 -98 -102z m-1512 64 c3 -22 -1
-27 -17 -27 -17 0 -21 6 -21 31 0 24 4 30 18 27 10 -2 18 -14 20 -31z m52 3
c0 -23 -4 -30 -20 -30 -16 0 -20 7 -20 30 0 23 4 30 20 30 16 0 20 -7 20 -30z
m70 0 c0 -23 -4 -30 -20 -30 -16 0 -20 7 -20 30 0 23 4 30 20 30 16 0 20 -7
20 -30z m50 0 c0 -23 -4 -30 -20 -30 -16 0 -20 7 -20 30 0 23 4 30 20 30 16 0
20 -7 20 -30z m80 0 c0 -23 -4 -30 -20 -30 -16 0 -20 7 -20 30 0 23 4 30 20
30 16 0 20 -7 20 -30z m-420 5 c0 -13 -18 -15 -127 -13 -90 2 -128 7 -131 16
-3 9 27 12 127 12 111 0 131 -2 131 -15z m13974 -3 c11 -19 -13 -33 -50 -30
-27 2 -40 8 -42 21 -3 14 4 17 42 17 25 0 47 -4 50 -8z m-14304 -17 c0 -13
-21 -15 -130 -15 -119 0 -142 4 -123 23 3 4 62 7 130 7 103 0 123 -2 123 -15z
m14880 11 c0 -2 -7 -19 -15 -37 l-14 -34 -1 38 c0 26 4 37 15 37 8 0 15 -2 15
-4z m147 -24 c-31 -36 -79 -140 -92 -197 -7 -33 -23 -96 -34 -139 -12 -44 -21
-99 -21 -123 0 -32 -4 -43 -15 -43 -13 0 -15 28 -15 192 0 105 3 188 7 184 4
-3 12 8 17 26 6 18 18 33 26 33 8 0 21 10 28 23 8 13 19 21 27 19 7 -3 25 8
40 23 29 30 57 31 32 2z m-442 -2 c0 -18 -72 -27 -87 -12 -19 19 3 33 45 30
29 -2 42 -8 42 -18z m-14975 -5 c0 -13 -14 -15 -87 -13 -58 2 -88 7 -91 16 -3
9 19 12 87 12 75 0 91 -3 91 -15z m2500 11 c0 -3 -6 -11 -14 -18 -8 -7 -55
-53 -105 -102 -50 -49 -94 -87 -97 -84 -4 4 205 208 214 208 1 0 2 -2 2 -4z
m4625 -56 c226 -28 429 -52 451 -55 37 -5 42 -9 48 -37 11 -56 0 -59 -174 -41
-119 11 -223 13 -450 9 -162 -4 -319 -9 -347 -12 -65 -7 -66 -4 -22 113 30 77
33 82 58 77 14 -2 211 -27 436 -54z m2903 38 c3 -14 -3 -18 -27 -18 -25 0 -31
4 -31 21 0 16 5 20 27 17 17 -2 29 -10 31 -20z m-9308 -3 c0 -13 -21 -15 -130
-15 -109 0 -130 2 -130 15 0 13 21 15 130 15 109 0 130 -2 130 -15z m-330 -25
c0 -6 -50 -10 -130 -10 -80 0 -130 4 -130 10 0 6 50 10 130 10 80 0 130 -4
130 -10z m-390 -15 c0 -12 -17 -15 -90 -15 -73 0 -90 3 -90 15 0 12 17 15 90
15 73 0 90 -3 90 -15z m885 -20 c0 -20 -6 -31 -17 -33 -15 -3 -18 4 -18 33 0
29 3 36 18 33 11 -2 17 -13 17 -33z m50 0 c0 -20 -6 -31 -17 -33 -15 -3 -18 4
-18 33 0 29 3 36 18 33 11 -2 17 -13 17 -33z m75 -1 c0 -28 -3 -35 -17 -32
-12 2 -19 14 -21 36 -3 27 0 32 17 32 17 0 21 -6 21 -36z m50 0 c0 -28 -3 -35
-17 -32 -31 6 -29 68 2 68 11 0 15 -10 15 -36z m78 4 c-2 -22 -9 -34 -20 -36
-15 -3 -18 4 -18 32 0 30 4 36 21 36 17 0 20 -5 17 -32z m13842 17 c0 -31 -92
-33 -98 -2 -3 14 4 17 47 17 38 0 51 -4 51 -15z m-14260 -10 c0 -13 -21 -15
-130 -15 -119 0 -142 4 -123 23 3 4 62 7 130 7 103 0 123 -2 123 -15z m1678
-90 c-59 -58 -111 -105 -115 -104 -5 0 41 47 102 105 60 57 112 104 115 104 3
0 -43 -48 -102 -105z m3932 88 c0 -3 -43 -100 -97 -215 -75 -163 -100 -208
-115 -208 -22 0 -78 27 -78 38 0 4 -4 13 -9 20 -6 10 -17 4 -43 -22 -31 -31
-42 -36 -83 -36 -41 0 -52 5 -79 33 l-31 33 -31 -33 c-27 -28 -38 -33 -79 -33
-40 0 -52 5 -80 33 l-33 33 -36 -33 c-30 -27 -44 -33 -82 -33 -40 0 -51 5 -78
33 l-31 33 -31 -33 c-27 -28 -38 -33 -79 -33 -40 0 -52 5 -80 33 l-33 33 -36
-34 c-32 -28 -43 -33 -79 -30 l-42 3 -3 98 c-1 53 1 97 5 97 11 0 1019 172
1223 209 121 21 140 23 140 14z m3690 -13 c0 -15 -7 -20 -25 -20 -24 0 -34 18
-18 33 15 15 43 7 43 -13z m4672 11 c4 -1 5 -8 2 -16 -8 -21 -94 -21 -94 -1 0
15 31 25 65 20 11 -1 23 -3 27 -3z m-14302 -26 c0 -13 -18 -15 -127 -13 -90 2
-128 7 -131 16 -3 9 27 12 127 12 111 0 131 -2 131 -15z m2570 -90 l0 -105
-35 0 -35 0 0 98 c0 54 3 102 7 105 3 4 19 7 35 7 l28 0 0 -105z m88 -2 l3
-103 -36 0 -35 0 0 106 0 105 33 -3 32 -3 3 -102z m1542 2 l0 -105 -30 0 -30
0 0 105 0 105 30 0 30 0 0 -105z m90 0 l0 -105 -30 0 -30 0 0 105 0 105 30 0
30 0 0 -105z m-4680 80 c0 -12 -17 -15 -90 -15 -73 0 -90 3 -90 15 0 12 17 15
90 15 73 0 90 -3 90 -15z m720 -15 c0 -19 -7 -20 -124 -20 -119 0 -146 6 -131
30 4 6 58 10 131 10 117 0 124 -1 124 -20z m14260 5 c0 -11 -12 -15 -50 -15
-38 0 -50 4 -50 15 0 11 12 15 50 15 38 0 50 -4 50 -15z m-12530 -51 c-30 -30
-82 -78 -115 -106 -33 -27 -11 -2 49 56 116 112 158 144 66 50z m7844 32 c17
-13 39 -38 49 -55 l18 -31 -106 0 -106 0 15 29 c16 31 71 81 88 81 6 0 25 -11
42 -24z m933 -21 c24 -25 43 -50 43 -55 0 -6 -43 -10 -106 -10 l-106 0 17 28
c22 35 75 82 94 82 8 0 34 -20 58 -45z m547 21 c17 -13 39 -38 49 -55 l18 -31
-105 0 c-72 0 -106 4 -106 11 0 16 84 99 100 99 7 0 27 -11 44 -24z m560 0
c17 -13 39 -38 49 -55 l18 -31 -105 0 c-63 0 -106 4 -106 10 0 15 85 100 100
100 7 0 27 -11 44 -24z m550 0 c17 -13 39 -38 49 -55 l18 -31 -104 0 c-100 0
-105 1 -100 20 6 22 77 90 95 90 6 0 25 -11 42 -24z m561 6 c26 -22 65 -72 65
-83 0 -5 -45 -9 -100 -9 -55 0 -100 3 -100 8 0 13 34 59 60 81 30 25 49 26 75
3z m922 -8 c18 -14 40 -38 48 -55 l16 -29 -106 0 c-62 0 -105 4 -105 10 0 15
85 100 100 100 7 0 28 -11 47 -26z m317 10 c30 -12 5 -34 -40 -34 -42 0 -57
14 -37 33 8 9 56 9 77 1z m-14294 -19 c0 -13 -21 -15 -130 -15 -109 0 -130 2
-130 15 0 13 21 15 130 15 109 0 130 -2 130 -15z m-390 -10 c0 -12 -17 -15
-90 -15 -73 0 -90 3 -90 15 0 12 17 15 90 15 73 0 90 -3 90 -15z m885 -20 c0
-20 -6 -31 -17 -33 -15 -3 -18 4 -18 33 0 29 3 36 18 33 11 -2 17 -13 17 -33z
m50 0 c0 -20 -6 -31 -17 -33 -15 -3 -18 4 -18 33 0 29 3 36 18 33 11 -2 17
-13 17 -33z m75 -1 c0 -28 -3 -35 -17 -32 -31 6 -29 68 2 68 11 0 15 -10 15
-36z m50 0 c0 -28 -3 -35 -17 -32 -31 6 -29 68 2 68 11 0 15 -10 15 -36z m78
4 c-2 -22 -9 -34 -20 -36 -15 -3 -18 4 -18 32 0 30 4 36 21 36 17 0 20 -5 17
-32z m13840 0 c3 -15 -4 -18 -47 -18 -36 0 -51 4 -51 13 0 23 12 28 55 25 29
-2 41 -8 43 -20z m-14258 -3 c0 -13 -21 -15 -130 -15 -109 0 -130 2 -130 15 0
13 21 15 130 15 109 0 130 -2 130 -15z m7540 -15 c135 -17 346 -43 470 -58
l225 -28 3 -71 c3 -76 -2 -82 -65 -83 -19 0 -23 -6 -23 -30 0 -28 -3 -30 -35
-30 -44 0 -81 17 -100 46 l-14 23 -35 -35 c-29 -29 -41 -34 -81 -34 -40 0 -52
5 -81 34 -32 32 -35 33 -44 15 -34 -62 -155 -64 -195 -3 l-14 23 -35 -35 c-29
-29 -41 -34 -79 -34 -82 0 -86 6 -173 288 -16 52 -40 51 276 12z m-5800 -26
c-25 -25 -76 -73 -115 -106 -50 -43 -39 -30 38 46 107 105 163 149 77 60z
m-2070 21 c0 -13 -21 -15 -130 -15 -109 0 -130 2 -130 15 0 13 21 15 130 15
109 0 130 -2 130 -15z m14303 9 c15 -16 -8 -34 -43 -34 -39 0 -56 12 -45 30 7
11 78 14 88 4z m-14693 -29 c0 -12 -15 -15 -74 -15 -77 0 -106 6 -106 21 0 5
41 9 90 9 73 0 90 -3 90 -15z m720 -10 c0 -13 -21 -15 -130 -15 -119 0 -142 4
-123 23 3 4 62 7 130 7 103 0 123 -2 123 -15z m9300 -4 c0 -13 -7 -18 -25 -18
-18 0 -25 5 -25 18 0 14 7 19 25 19 18 0 25 -5 25 -19z m4958 -3 c3 -15 -4
-18 -47 -18 -45 0 -51 3 -51 21 0 18 5 20 47 17 36 -2 49 -7 51 -20z m-14590
-20 c3 -16 -8 -18 -122 -18 -72 0 -127 4 -131 10 -16 25 11 31 128 28 107 -3
122 -5 125 -20z m2007 -83 c-60 -57 -111 -102 -114 -100 -2 3 -2 6 0 8 2 1 50
46 107 100 56 53 106 97 110 97 4 -1 -42 -48 -103 -105z m-1507 62 c2 -18 -2
-29 -13 -34 -25 -9 -37 22 -26 65 1 2 9 2 19 0 10 -2 18 -14 20 -31z m47 -2
c0 -20 -6 -31 -17 -33 -15 -3 -18 4 -18 33 0 29 3 36 18 33 11 -2 17 -13 17
-33z m75 0 c0 -28 -4 -35 -20 -35 -15 0 -20 7 -20 28 0 32 7 42 27 42 8 0 13
-13 13 -35z m50 0 c0 -28 -4 -35 -20 -35 -15 0 -20 7 -20 28 0 32 7 42 27 42
8 0 13 -13 13 -35z m13630 14 c0 -18 -5 -20 -42 -17 -31 2 -44 8 -46 21 -3 14
4 17 42 17 40 0 46 -3 46 -21z m-14690 -4 c0 -12 -17 -15 -90 -15 -73 0 -90 3
-90 15 0 12 17 15 90 15 73 0 90 -3 90 -15z m720 -10 c0 -13 -21 -15 -130 -15
-119 0 -142 4 -123 23 3 4 62 7 130 7 103 0 123 -2 123 -15z m9520 -70 l0 -85
-50 0 -50 0 0 85 0 85 50 0 50 0 0 -85z m130 0 l0 -85 -50 0 -50 0 0 85 0 85
50 0 50 0 0 -85z m780 0 l0 -85 -50 0 -50 0 0 85 0 85 50 0 50 0 0 -85z m130
0 l0 -85 -50 0 -50 0 0 85 0 85 50 0 50 0 0 -85z m440 0 l0 -85 -50 0 -50 0 0
85 0 85 50 0 50 0 0 -85z m130 0 l0 -85 -55 0 -55 0 0 85 0 85 55 0 55 0 0
-85z m430 0 l0 -85 -50 0 -50 0 0 85 0 85 50 0 50 0 0 -85z m130 0 l0 -85 -55
0 -55 0 0 85 0 85 55 0 55 0 0 -85z m420 0 l0 -85 -50 0 -50 0 0 85 0 85 50 0
50 0 0 -85z m130 0 l0 -85 -50 0 -50 0 0 85 0 85 50 0 50 0 0 -85z m440 0 l0
-85 -55 0 -55 0 0 85 0 85 55 0 55 0 0 -85z m130 0 l0 -85 -55 0 -55 0 0 85 0
85 55 0 55 0 0 -85z m780 0 l0 -85 -55 0 -55 0 0 63 c0 100 4 107 61 107 l49
0 0 -85z m130 1 l0 -84 -39 -4 c-22 -2 -45 -2 -50 0 -7 2 -11 37 -11 88 l0 84
50 0 50 0 0 -84z m-4420 49 c0 -9 -9 -15 -25 -15 -16 0 -25 6 -25 15 0 9 9 15
25 15 16 0 25 -6 25 -15z m-9630 -10 c0 -13 -18 -15 -127 -13 -90 2 -128 7
-131 16 -3 9 27 12 127 12 111 0 131 -2 131 -15z m2110 11 c0 -2 -50 -50 -112
-107 -61 -57 -109 -99 -107 -94 5 13 205 205 213 205 3 0 6 -2 6 -4z m-2500
-21 c0 -12 -17 -15 -90 -15 -73 0 -90 3 -90 15 0 12 17 15 90 15 73 0 90 -3
90 -15z m14694 0 c-4 -10 -20 -15 -50 -15 -32 0 -44 4 -44 15 0 11 12 15 50
15 40 0 48 -3 44 -15z m-7349 -16 c83 -12 203 -45 228 -64 25 -18 14 -51 -26
-76 -55 -33 -131 -21 -162 27 l-14 23 -35 -35 c-29 -29 -41 -34 -81 -34 -40 0
-52 5 -79 32 l-33 33 -30 -32 c-25 -27 -38 -33 -71 -33 -50 0 -87 16 -107 46
l-14 23 -35 -35 c-29 -29 -41 -34 -81 -34 -39 0 -52 5 -78 32 -18 18 -35 31
-39 30 -11 -3 -10 66 1 73 58 35 466 51 656 24z m-6625 -4 c0 -13 -18 -15
-127 -13 -90 2 -128 7 -131 16 -3 9 27 12 127 12 111 0 131 -2 131 -15z
m14260 -10 c0 -11 -12 -15 -50 -15 -38 0 -50 4 -50 15 0 11 12 15 50 15 38 0
50 -4 50 -15z m-14590 -10 c0 -13 -21 -15 -130 -15 -109 0 -130 2 -130 15 0
13 21 15 130 15 109 0 130 -2 130 -15z m495 -20 c0 -40 -30 -47 -38 -8 -6 34
0 45 21 41 11 -2 17 -13 17 -33z m50 0 c0 -20 -6 -31 -17 -33 -15 -3 -18 4
-18 33 0 29 3 36 18 33 11 -2 17 -13 17 -33z m75 0 c0 -28 -4 -35 -20 -35 -15
0 -20 7 -20 28 0 32 7 42 27 42 8 0 13 -13 13 -35z m50 -1 c0 -28 -3 -35 -17
-32 -31 6 -29 68 2 68 11 0 15 -10 15 -36z m80 1 c0 -28 -4 -35 -20 -35 -16 0
-20 7 -20 35 0 28 4 35 20 35 16 0 20 -7 20 -35z m-1140 10 c0 -12 -17 -15
-90 -15 -73 0 -90 3 -90 15 0 12 17 15 90 15 73 0 90 -3 90 -15z m2415 -70
c-49 -46 -91 -82 -93 -80 -5 5 162 164 173 164 6 0 -30 -38 -80 -84z m7605 65
c0 -15 -7 -20 -25 -20 -18 0 -25 5 -25 20 0 15 7 20 25 20 18 0 25 -5 25 -20z
m4673 14 c16 -17 -8 -34 -49 -34 -42 0 -57 14 -37 33 8 9 77 9 86 1z m-13973
-29 c0 -13 -21 -15 -130 -15 -109 0 -130 2 -130 15 0 13 21 15 130 15 109 0
130 -2 130 -15z m14258 -17 c3 -15 -4 -18 -47 -18 -36 0 -51 4 -51 13 0 23 12
28 55 25 29 -2 41 -8 43 -20z m-14588 -3 c0 -13 -21 -15 -130 -15 -109 0 -130
2 -130 15 0 13 21 15 130 15 109 0 130 -2 130 -15z m-390 -20 c0 -12 -17 -15
-90 -15 -73 0 -90 3 -90 15 0 12 17 15 90 15 73 0 90 -3 90 -15z m14693 9 c15
-16 -8 -34 -43 -34 -39 0 -56 12 -45 30 7 11 78 14 88 4z m-13973 -19 c0 -13
-21 -15 -130 -15 -119 0 -142 4 -123 23 3 4 62 7 130 7 103 0 123 -2 123 -15z
m9300 -5 c0 -15 -7 -20 -25 -20 -18 0 -25 5 -25 20 0 15 7 20 25 20 18 0 25
-5 25 -20z m-9630 -20 c0 -19 -7 -20 -124 -20 -73 0 -127 4 -131 10 -15 24 12
30 131 30 117 0 124 -1 124 -20z m495 -15 c0 -20 -6 -31 -17 -33 -15 -3 -18 4
-18 33 0 29 3 36 18 33 11 -2 17 -13 17 -33z m125 0 c0 -28 -4 -35 -20 -35
-15 0 -20 7 -20 28 0 32 7 42 27 42 8 0 13 -13 13 -35z m50 0 c0 -28 -4 -35
-20 -35 -15 0 -20 7 -20 28 0 32 7 42 27 42 8 0 13 -13 13 -35z m78 -3 c3 -27
0 -32 -17 -32 -16 0 -21 6 -21 28 0 53 33 56 38 4z m13840 16 c3 -15 -4 -18
-47 -18 -36 0 -51 4 -51 13 0 23 12 28 55 25 29 -2 41 -8 43 -20z m-14978 -13
c0 -12 -17 -15 -90 -15 -73 0 -90 3 -90 15 0 12 17 15 90 15 73 0 90 -3 90
-15z m720 -15 c0 -6 -50 -10 -130 -10 -80 0 -130 4 -130 10 0 6 50 10 130 10
80 0 130 -4 130 -10z"/>
<path d="M8299 2739 l-24 -20 28 17 c15 9 27 18 27 20 0 8 -8 4 -31 -17z"/>
<path d="M8353 910 c0 -30 2 -43 4 -27 2 15 2 39 0 55 -2 15 -4 2 -4 -28z"/>
<path d="M5580 4971 c0 -37 -2 -40 -32 -43 -46 -4 -49 -28 -4 -28 l36 0 0 -77
c0 -43 -9 -127 -20 -188 -11 -60 -23 -127 -26 -147 -6 -34 -10 -38 -35 -38
-34 0 -39 -17 -7 -22 32 -5 35 -28 4 -28 -14 0 -26 -4 -26 -10 0 -5 9 -10 20
-10 26 0 26 1 -10 -185 -16 -86 -30 -159 -30 -161 0 -2 -16 -4 -35 -4 -19 0
-35 -4 -35 -10 0 -5 14 -10 30 -10 20 0 30 -5 30 -15 0 -10 -10 -15 -30 -15
-16 0 -30 -4 -30 -10 0 -5 10 -10 23 -10 13 0 26 -2 29 -5 2 -3 -7 -67 -22
-142 -25 -135 -26 -138 -53 -141 -34 -4 -36 -22 -2 -22 14 0 25 -4 25 -10 0
-5 -11 -10 -25 -10 -16 0 -25 -6 -25 -15 0 -9 9 -15 21 -15 17 0 20 -5 16 -22
-3 -13 -13 -66 -22 -119 l-17 -97 50 -113 c28 -63 57 -132 66 -153 9 -22 18
-37 20 -35 2 2 32 71 67 152 34 81 65 144 69 140 4 -4 34 -70 66 -145 32 -76
61 -138 65 -138 3 0 34 66 69 146 l63 145 -17 102 c-10 56 -20 110 -22 120 -4
12 0 17 15 17 27 0 37 19 14 26 -45 15 -48 18 -23 22 39 6 48 22 13 22 -37 0
-35 -4 -63 149 -26 146 -26 141 10 141 17 0 30 5 30 10 0 6 -16 10 -35 10 -24
0 -35 5 -35 15 0 11 11 15 36 15 21 0 33 4 29 10 -3 6 -22 10 -41 10 -19 0
-34 2 -34 6 0 9 -51 298 -57 322 -4 17 -1 22 16 22 12 0 21 5 21 10 0 6 -12
10 -26 10 -31 0 -28 23 4 28 31 5 27 20 -5 24 -26 3 -27 6 -55 153 -18 96 -27
175 -26 220 l3 70 33 3 c42 4 37 26 -6 30 -30 3 -32 6 -32 43 0 28 -4 39 -15
39 -11 0 -15 -11 -15 -39z"/>
<path d="M3910 3048 c-24 -26 -27 -84 -4 -116 22 -32 76 -30 103 4 60 76 -34
182 -99 112z"/>
<path d="M5330 2990 c0 -89 12 -102 50 -53 25 32 22 83 -6 114 -34 38 -44 24
-44 -61z"/>
<path d="M5551 3044 c-43 -55 -17 -134 44 -134 40 0 75 37 75 80 0 40 -35 80
-70 80 -19 0 -36 -9 -49 -26z"/>
<path d="M5828 3060 c-9 -6 -22 -26 -28 -45 -10 -30 -9 -40 7 -68 11 -18 29
-33 41 -35 22 -3 23 -1 20 74 -3 79 -10 91 -40 74z"/>
<path d="M7876 2920 c-15 -27 -25 -50 -22 -50 6 0 57 92 53 97 -2 2 -16 -19
-31 -47z"/>
<path d="M7825 2830 c-9 -16 -13 -30 -11 -30 3 0 12 14 21 30 9 17 13 30 11
30 -3 0 -12 -13 -21 -30z"/>
<path d="M7906 2845 c-9 -26 -7 -32 5 -12 6 10 9 21 6 23 -2 3 -7 -2 -11 -11z"/>
<path d="M3920 2790 c-19 -19 -20 -33 -20 -428 0 -450 0 -452 60 -452 23 0 33
7 45 30 14 26 15 84 13 431 l-3 401 -24 19 c-30 24 -46 24 -71 -1z"/>
<path d="M5560 2790 c-19 -19 -20 -33 -20 -428 0 -450 0 -452 60 -452 60 0 60
3 60 448 l0 403 -25 24 c-29 30 -49 31 -75 5z"/>
<path d="M5830 2790 c-19 -19 -20 -31 -20 -433 0 -388 1 -415 18 -430 10 -10
24 -17 30 -17 15 0 17 886 2 895 -5 3 -18 -3 -30 -15z"/>
<path d="M7871 2754 c-12 -31 -20 -58 -18 -61 2 -2 14 22 26 53 12 31 20 59
17 61 -2 2 -14 -21 -25 -53z"/>
<path d="M7757 2713 c-56 -99 -69 -123 -64 -123 3 0 28 42 57 93 66 115 62
107 56 107 -2 0 -24 -35 -49 -77z"/>
<path d="M7713 2718 c-20 -26 -26 -41 -15 -34 12 7 36 46 29 46 -3 0 -9 -6
-14 -12z"/>
<path d="M8652 2705 c0 -21 25 -107 27 -90 0 6 -6 33 -13 60 -8 28 -14 41 -14
30z"/>
<path d="M8622 2675 c0 -16 2 -22 5 -12 2 9 2 23 0 30 -3 6 -5 -1 -5 -18z"/>
<path d="M7780 2671 c-15 -30 -32 -77 -24 -68 9 9 44 87 39 87 -2 0 -9 -9 -15
-19z"/>
<path d="M7875 2635 c-9 -31 -15 -58 -12 -61 2 -2 11 21 20 53 9 31 15 59 12
61 -2 2 -11 -21 -20 -53z"/>
<path d="M8701 2685 c0 -5 6 -21 14 -35 8 -14 14 -20 14 -15 0 6 -6 21 -14 35
-8 14 -14 21 -14 15z"/>
<path d="M7614 2568 c-37 -57 -73 -113 -82 -125 -8 -13 -12 -23 -9 -23 3 0 36
46 73 103 37 56 73 112 82 125 8 12 12 22 9 22 -3 0 -36 -46 -73 -102z"/>
<path d="M7816 2614 c-21 -62 -14 -68 9 -9 9 26 15 48 12 51 -3 3 -12 -16 -21
-42z"/>
<path d="M14570 2615 c0 -9 5 -15 11 -13 6 2 11 8 11 13 0 5 -5 11 -11 13 -6
2 -11 -4 -11 -13z"/>
<path d="M15317 2623 c-12 -11 -8 -23 8 -23 8 0 15 7 15 15 0 16 -12 20 -23 8z"/>
<path d="M8632 2600 c0 -14 2 -19 5 -12 2 6 2 18 0 25 -3 6 -5 1 -5 -13z"/>
<path d="M8744 2590 c8 -30 59 -140 63 -137 2 3 -12 38 -32 78 -19 41 -33 67
-31 59z"/>
<path d="M7668 2558 c-8 -13 -23 -39 -32 -58 -15 -31 -15 -33 -1 -15 19 23 58
95 51 95 -2 0 -10 -10 -18 -22z"/>
<path d="M8593 2520 c0 -36 2 -50 4 -32 2 17 2 47 0 65 -2 17 -4 3 -4 -33z"/>
<path d="M14500 2540 c0 -20 5 -30 15 -30 10 0 15 10 15 30 0 20 -5 30 -15 30
-10 0 -15 -10 -15 -30z"/>
<path d="M14570 2541 c0 -21 5 -31 16 -31 11 0 14 8 12 27 -4 39 -28 42 -28 4z"/>
<path d="M15310 2540 c0 -20 5 -30 15 -30 10 0 15 10 15 30 0 20 -5 30 -15 30
-10 0 -15 -10 -15 -30z"/>
<path d="M15377 2564 c-4 -4 -7 -18 -7 -31 0 -17 6 -23 21 -23 16 0 20 5 17
27 -3 26 -18 39 -31 27z"/>
<path d="M7947 2535 c-20 -14 -37 -28 -37 -31 0 -2 18 8 40 22 35 23 47 34 37
34 -1 0 -19 -11 -40 -25z"/>
<path d="M8642 2535 c0 -16 2 -22 5 -12 2 9 2 23 0 30 -3 6 -5 -1 -5 -18z"/>
<path d="M7710 2526 c-5 -15 -15 -36 -20 -47 -6 -10 -8 -19 -6 -19 9 0 48 82
42 87 -3 3 -10 -6 -16 -21z"/>
<path d="M7760 2468 c-13 -35 -35 -74 -49 -88 -15 -14 -21 -21 -14 -17 7 5 16
7 20 5 4 -2 24 12 43 31 19 19 27 29 17 21 -27 -20 -29 -7 -7 50 11 29 19 54
17 57 -3 2 -15 -25 -27 -59z"/>
<path d="M8707 2500 c3 -19 12 -53 19 -75 13 -38 13 -38 7 -5 -3 19 -12 53
-19 75 -13 38 -13 38 -7 5z"/>
<path d="M7950 2479 c-35 -31 -35 -31 -3 -9 18 11 35 25 38 30 10 16 2 11 -35
-21z"/>
<path d="M7821 2470 c-8 -19 -16 -48 -18 -64 -2 -17 -13 -41 -26 -55 -12 -13
-17 -21 -10 -18 6 4 14 1 16 -5 4 -9 6 -9 6 1 1 8 11 26 24 39 12 14 16 22 8
17 -11 -6 -13 -2 -7 21 7 28 17 40 67 77 l24 19 -27 -16 c-34 -20 -36 -20 -40
2 -3 12 -8 6 -17 -18z"/>
<path d="M14500 2470 c0 -20 5 -30 15 -30 10 0 15 10 15 30 0 20 -5 30 -15 30
-10 0 -15 -10 -15 -30z"/>
<path d="M14570 2471 c0 -21 5 -31 16 -31 11 0 14 8 12 27 -4 39 -28 42 -28 4z"/>
<path d="M14637 2493 c-4 -3 -7 -17 -7 -30 0 -17 5 -23 16 -21 8 2 15 6 15 11
-1 4 -1 16 -1 27 0 20 -11 26 -23 13z"/>
<path d="M15240 2470 c0 -20 5 -30 15 -30 10 0 15 10 15 30 0 20 -5 30 -15 30
-10 0 -15 -10 -15 -30z"/>
<path d="M15310 2470 c0 -20 5 -30 15 -30 10 0 15 10 15 30 0 20 -5 30 -15 30
-10 0 -15 -10 -15 -30z"/>
<path d="M15377 2493 c-4 -3 -7 -17 -7 -30 0 -16 6 -23 20 -23 16 0 20 7 20
30 0 28 -17 40 -33 23z"/>
<path d="M8652 2465 c-1 -16 5 -64 13 -105 l14 -75 -6 65 c-3 36 -9 83 -13
105 -7 34 -8 36 -8 10z"/>
<path d="M7545 2341 c-55 -95 -77 -123 -112 -145 -24 -16 -43 -30 -43 -33 0
-3 11 2 25 11 13 9 30 16 36 16 6 0 21 10 33 23 12 12 32 30 46 40 21 15 22
16 3 7 -13 -6 -23 -8 -23 -4 0 4 20 41 44 83 55 97 68 121 63 121 -3 0 -35
-53 -72 -119z"/>
<path d="M7863 2414 l-28 -26 33 22 c29 20 39 30 28 30 -3 0 -18 -12 -33 -26z"/>
<path d="M7939 2413 l-24 -28 28 24 c15 14 27 26 27 28 0 8 -8 1 -31 -24z"/>
<path d="M7639 2377 c-13 -28 -37 -64 -53 -80 -16 -15 -21 -24 -11 -21 25 10
-29 -93 -69 -130 -17 -15 -23 -23 -14 -16 9 6 22 9 28 5 5 -3 10 -1 10 5 0 6
15 25 33 42 17 17 26 28 20 24 -7 -4 -13 -2 -13 4 0 17 37 85 54 99 9 7 13 17
11 22 -3 4 4 27 15 50 12 22 20 43 17 45 -2 2 -14 -20 -28 -49z"/>
<path d="M14500 2400 c0 -20 5 -30 15 -30 10 0 15 10 15 30 0 20 -5 30 -15 30
-10 0 -15 -10 -15 -30z"/>
<path d="M14570 2399 c0 -38 24 -35 28 4 2 19 -1 27 -12 27 -11 0 -16 -10 -16
-31z"/>
<path d="M14630 2400 c0 -24 4 -31 17 -28 11 2 17 12 17 28 0 16 -6 26 -17 28
-13 3 -17 -4 -17 -28z"/>
<path d="M15240 2400 c0 -20 5 -30 15 -30 10 0 15 10 15 30 0 20 -5 30 -15 30
-10 0 -15 -10 -15 -30z"/>
<path d="M15310 2400 c0 -20 5 -30 15 -30 10 0 15 10 15 30 0 20 -5 30 -15 30
-10 0 -15 -10 -15 -30z"/>
<path d="M15370 2400 c0 -23 4 -30 20 -30 16 0 20 7 20 30 0 23 -4 30 -20 30
-16 0 -20 -7 -20 -30z"/>
<path d="M8821 2415 c0 -5 6 -21 14 -35 8 -14 14 -20 14 -15 0 6 -6 21 -14 35
-8 14 -14 21 -14 15z"/>
<path d="M7492 2383 c-30 -44 -36 -57 -25 -50 12 7 55 77 48 77 -2 0 -12 -12
-23 -27z"/>
<path d="M7884 2368 l-19 -23 23 19 c12 11 22 21 22 23 0 8 -8 2 -26 -19z"/>
<path d="M14500 2330 c0 -20 5 -30 15 -30 10 0 15 10 15 30 0 20 -5 30 -15 30
-10 0 -15 -10 -15 -30z"/>
<path d="M14570 2330 c0 -21 4 -30 13 -27 6 2 12 14 12 27 0 13 -6 25 -12 28
-9 2 -13 -7 -13 -28z"/>
<path d="M14632 2333 c4 -36 32 -39 32 -3 0 16 -6 26 -18 28 -14 3 -17 -2 -14
-25z"/>
<path d="M15240 2330 c0 -20 5 -30 15 -30 10 0 15 10 15 30 0 20 -5 30 -15 30
-10 0 -15 -10 -15 -30z"/>
<path d="M15310 2330 c0 -20 5 -30 15 -30 10 0 15 10 15 30 0 20 -5 30 -15 30
-10 0 -15 -10 -15 -30z"/>
<path d="M15372 2333 c2 -17 10 -29 21 -31 13 -3 17 3 17 27 0 25 -4 31 -21
31 -16 0 -20 -5 -17 -27z"/>
<path d="M7700 2315 c-7 -21 -24 -42 -45 -55 -18 -11 -39 -28 -46 -37 -8 -10
2 -5 22 10 20 15 39 27 42 27 13 0 -27 -77 -56 -110 -18 -19 -24 -28 -15 -21
9 7 22 10 28 6 5 -3 10 -2 10 4 0 5 12 24 28 42 15 18 21 30 15 25 -31 -18 0
58 37 94 14 14 21 22 16 18 -18 -14 -27 -8 -21 12 3 11 4 20 1 20 -2 0 -10
-16 -16 -35z"/>
<path d="M8751 2334 c0 -11 3 -14 6 -6 3 7 2 16 -1 19 -3 4 -6 -2 -5 -13z"/>
<path d="M7815 2316 c-18 -15 -32 -20 -36 -14 -4 6 -10 1 -14 -12 -4 -12 -19
-34 -34 -49 -15 -14 -19 -19 -8 -11 16 12 19 12 27 0 8 -12 10 -11 10 4 0 11
21 39 47 63 52 47 56 57 8 19z"/>
<path d="M8864 2316 c16 -46 90 -205 93 -202 4 4 -84 207 -94 215 -3 4 -3 -2
1 -13z"/>
<path d="M7387 2220 c-45 -66 -80 -108 -107 -125 -22 -14 -40 -28 -40 -31 0
-3 10 2 22 10 27 19 42 21 33 4 -4 -7 2 -2 14 12 11 14 32 36 48 49 15 13 22
20 14 15 -21 -11 -9 15 37 84 47 69 54 82 49 82 -2 0 -34 -45 -70 -100z"/>
<path d="M8766 2280 c4 -19 11 -44 15 -55 6 -14 7 -9 3 15 -4 19 -11 44 -15
55 -6 14 -7 9 -3 -15z"/>
<path d="M14700 2290 c0 -5 7 -10 15 -10 8 0 15 5 15 10 0 6 -7 10 -15 10 -8
0 -15 -4 -15 -10z"/>
<path d="M15180 2290 c0 -5 5 -10 10 -10 6 0 10 5 10 10 0 6 -4 10 -10 10 -5
0 -10 -4 -10 -10z"/>
<path d="M14500 2225 c0 -50 3 -65 14 -65 11 0 15 15 15 65 0 50 -4 65 -15 65
-11 0 -14 -15 -14 -65z"/>
<path d="M14570 2224 c0 -48 3 -65 13 -62 19 7 20 128 1 128 -11 0 -14 -15
-14 -66z"/>
<path d="M14632 2231 c0 -55 10 -82 24 -68 3 3 6 31 7 63 2 48 -1 59 -15 62
-13 3 -16 -7 -16 -57z"/>
<path d="M15243 2228 c1 -39 7 -63 15 -66 9 -3 12 14 12 62 0 51 -3 66 -14 66
-12 0 -14 -14 -13 -62z"/>
<path d="M15311 2225 c0 -48 4 -65 14 -65 10 0 14 17 14 65 0 48 -4 65 -14 65
-10 0 -14 -17 -14 -65z"/>
<path d="M15373 2228 c2 -49 5 -63 17 -63 12 0 15 14 17 63 2 55 0 62 -17 62
-17 0 -19 -7 -17 -62z"/>
<path d="M14702 2213 c4 -39 28 -42 28 -4 0 21 -5 31 -16 31 -11 0 -14 -8 -12
-27z"/>
<path d="M15170 2216 c0 -26 14 -41 29 -32 13 8 0 56 -15 56 -8 0 -14 -10 -14
-24z"/>
<path d="M7895 2168 l-50 -53 53 50 c48 46 57 55 49 55 -1 0 -25 -24 -52 -52z"/>
<path d="M8791 2184 c0 -11 3 -14 6 -6 3 7 2 16 -1 19 -3 4 -6 -2 -5 -13z"/>
<path d="M8003 2168 c-44 -50 -424 -560 -420 -564 3 -3 101 122 217 278 117
156 217 289 223 296 16 21 2 13 -20 -10z"/>
<path d="M7420 2123 c-18 -32 -46 -71 -64 -88 -17 -16 -27 -27 -22 -22 19 14
27 7 16 -13 -19 -35 -3 -22 21 18 13 20 30 42 39 48 8 7 26 22 40 34 l25 22
-25 -16 c-38 -25 -41 -20 -13 29 13 25 23 45 20 45 -3 0 -19 -26 -37 -57z"/>
<path d="M14700 2145 c0 -16 6 -25 15 -25 9 0 15 9 15 25 0 16 -6 25 -15 25
-9 0 -15 -9 -15 -25z"/>
<path d="M15170 2145 c0 -16 6 -25 15 -25 9 0 15 9 15 25 0 16 -6 25 -15 25
-9 0 -15 -9 -15 -25z"/>
<path d="M14500 2125 c0 -16 6 -25 15 -25 9 0 15 9 15 25 0 16 -6 25 -15 25
-9 0 -15 -9 -15 -25z"/>
<path d="M14570 2125 c0 -16 6 -25 15 -25 9 0 15 9 15 25 0 16 -6 25 -15 25
-9 0 -15 -9 -15 -25z"/>
<path d="M14630 2124 c0 -19 4 -25 18 -22 24 5 25 48 1 48 -14 0 -19 -7 -19
-26z"/>
<path d="M15240 2125 c0 -16 6 -25 15 -25 9 0 15 9 15 25 0 16 -6 25 -15 25
-9 0 -15 -9 -15 -25z"/>
<path d="M15310 2125 c0 -16 6 -25 15 -25 9 0 15 9 15 25 0 16 -6 25 -15 25
-9 0 -15 -9 -15 -25z"/>
<path d="M15370 2125 c0 -18 5 -25 20 -25 15 0 20 7 20 25 0 18 -5 25 -20 25
-15 0 -20 -7 -20 -25z"/>
<path d="M8811 2114 c0 -11 3 -14 6 -6 3 7 2 16 -1 19 -3 4 -6 -2 -5 -13z"/>
<path d="M7536 2087 c-39 -31 -40 -32 -33 -7 6 24 5 24 -8 6 -8 -11 -15 -25
-15 -30 0 -6 -25 -35 -57 -64 -32 -30 -41 -41 -21 -25 21 15 41 28 45 29 9 1
141 124 133 124 -3 -1 -23 -15 -44 -33z"/>
<path d="M14706 2103 c-12 -13 -6 -53 9 -53 9 0 15 9 15 24 0 26 -12 40 -24
29z"/>
<path d="M14770 2081 c0 -21 5 -31 16 -31 11 0 14 8 12 27 -4 39 -28 42 -28 4z"/>
<path d="M15110 2081 c0 -21 5 -31 16 -31 11 0 14 8 12 27 -4 39 -28 42 -28 4z"/>
<path d="M15177 2103 c-13 -13 -7 -53 8 -53 10 0 15 10 15 30 0 29 -9 38 -23
23z"/>
<path d="M14500 2061 c0 -21 5 -31 16 -31 11 0 14 8 12 27 -4 39 -28 42 -28 4z"/>
<path d="M14570 2061 c0 -21 5 -31 16 -31 11 0 14 8 12 27 -4 39 -28 42 -28 4z"/>
<path d="M14637 2084 c-4 -4 -7 -18 -7 -31 0 -18 5 -24 17 -21 11 2 17 12 17
27 0 25 -14 37 -27 25z"/>
<path d="M15247 2083 c-13 -13 -7 -53 8 -53 10 0 15 10 15 30 0 29 -9 38 -23
23z"/>
<path d="M15316 2083 c-12 -13 -6 -53 9 -53 9 0 15 9 15 24 0 26 -12 40 -24
29z"/>
<path d="M15377 2084 c-4 -4 -7 -18 -7 -31 0 -17 6 -23 21 -23 16 0 20 5 17
27 -3 26 -18 39 -31 27z"/>
<path d="M7116 1998 c-32 -33 -53 -57 -47 -54 22 14 9 -7 -84 -130 -76 -102
-111 -138 -175 -185 -44 -32 -80 -61 -80 -64 0 -3 24 13 54 35 30 22 58 39 63
38 5 -2 27 15 48 37 22 22 56 53 75 68 33 27 34 27 3 7 -18 -12 -33 -19 -33
-15 0 19 187 249 220 271 42 28 54 42 20 24 -22 -12 -27 -1 -8 18 7 7 10 12 8
12 -3 -1 -31 -28 -64 -62z"/>
<path d="M7263 2033 c-9 -16 -22 -35 -27 -43 -9 -12 -8 -13 4 -3 17 13 54 73
46 73 -3 0 -13 -12 -23 -27z"/>
<path d="M14700 2010 c0 -20 5 -30 15 -30 10 0 15 10 15 30 0 20 -5 30 -15 30
-10 0 -15 -10 -15 -30z"/>
<path d="M14770 2011 c0 -21 5 -31 16 -31 11 0 14 8 12 27 -4 39 -28 42 -28 4z"/>
<path d="M15110 2011 c0 -21 5 -31 16 -31 11 0 14 8 12 27 -4 39 -28 42 -28 4z"/>
<path d="M15177 2034 c-13 -14 -7 -54 8 -54 8 0 15 9 15 20 0 11 0 23 1 27 1
10 -16 15 -24 7z"/>
<path d="M14500 1991 c0 -21 5 -31 16 -31 11 0 14 8 12 27 -4 39 -28 42 -28 4z"/>
<path d="M14570 1991 c0 -21 5 -31 16 -31 11 0 14 8 12 27 -4 39 -28 42 -28 4z"/>
<path d="M14637 2014 c-4 -4 -7 -18 -7 -31 0 -18 5 -24 17 -21 11 2 17 12 17
27 0 25 -14 37 -27 25z"/>
<path d="M15247 2013 c-13 -13 -7 -53 8 -53 10 0 15 10 15 30 0 29 -9 38 -23
23z"/>
<path d="M15316 2013 c-12 -13 -6 -53 9 -53 9 0 15 9 15 24 0 26 -12 40 -24
29z"/>
<path d="M15383 2013 c-7 -3 -13 -16 -13 -29 0 -17 6 -24 20 -24 15 0 20 7 20
24 0 27 -8 36 -27 29z"/>
<path d="M7270 1969 l-35 -30 38 26 c33 24 43 35 34 35 -1 0 -18 -14 -37 -31z"/>
<path d="M7201 1937 c-11 -18 -41 -48 -66 -66 -25 -18 -45 -35 -45 -37 0 -3
14 4 30 16 37 27 38 20 2 -33 -37 -54 -44 -67 -39 -67 3 0 24 30 48 68 24 37
55 77 68 90 14 12 25 32 26 42 2 27 0 25 -24 -13z"/>
<path d="M14700 1940 c0 -20 5 -30 15 -30 10 0 15 10 15 30 0 20 -5 30 -15 30
-10 0 -15 -10 -15 -30z"/>
<path d="M14770 1940 c0 -20 5 -30 15 -30 10 0 15 10 15 30 0 20 -5 30 -15 30
-10 0 -15 -10 -15 -30z"/>
<path d="M15110 1941 c0 -21 5 -31 16 -31 11 0 14 8 12 27 -4 39 -28 42 -28 4z"/>
<path d="M15177 1964 c-4 -4 -7 -18 -7 -31 0 -18 5 -24 17 -21 11 2 17 12 17
27 0 25 -14 37 -27 25z"/>
<path d="M14500 1920 c0 -20 5 -30 15 -30 10 0 15 10 15 30 0 20 -5 30 -15 30
-10 0 -15 -10 -15 -30z"/>
<path d="M14570 1920 c0 -21 4 -30 13 -27 6 2 12 14 12 27 0 13 -6 25 -12 28
-9 2 -13 -7 -13 -28z"/>
<path d="M14637 1944 c-13 -14 -7 -54 8 -54 15 0 16 3 19 37 1 17 -16 28 -27
17z"/>
<path d="M15240 1920 c0 -20 5 -30 15 -30 10 0 15 10 15 30 0 20 -5 30 -15 30
-10 0 -15 -10 -15 -30z"/>
<path d="M15310 1920 c0 -20 5 -30 15 -30 10 0 15 10 15 30 0 20 -5 30 -15 30
-10 0 -15 -10 -15 -30z"/>
<path d="M15377 1944 c-4 -4 -7 -18 -7 -31 0 -17 6 -23 21 -23 16 0 20 5 17
27 -3 26 -18 39 -31 27z"/>
<path d="M7013 1919 c-35 -22 -46 -37 -15 -20 22 13 58 40 52 41 -3 0 -20 -10
-37 -21z"/>
<path d="M14700 1870 c0 -20 5 -30 15 -30 10 0 15 10 15 30 0 20 -5 30 -15 30
-10 0 -15 -10 -15 -30z"/>
<path d="M14770 1870 c0 -20 5 -30 15 -30 10 0 15 10 15 30 0 20 -5 30 -15 30
-10 0 -15 -10 -15 -30z"/>
<path d="M15110 1871 c0 -21 5 -31 16 -31 11 0 14 8 12 27 -4 39 -28 42 -28 4z"/>
<path d="M15174 1886 c-7 -20 2 -46 16 -46 5 0 10 9 10 20 0 11 0 23 1 27 1
15 -21 14 -27 -1z"/>
<path d="M6934 1864 c-18 -14 -18 -15 4 -4 12 6 22 13 22 15 0 8 -5 6 -26 -11z"/>
<path d="M14500 1850 c0 -20 5 -30 15 -30 10 0 15 10 15 30 0 20 -5 30 -15 30
-10 0 -15 -10 -15 -30z"/>
<path d="M14570 1850 c0 -20 5 -30 15 -30 10 0 15 10 15 30 0 20 -5 30 -15 30
-10 0 -15 -10 -15 -30z"/>
<path d="M14630 1850 c0 -24 4 -31 17 -28 11 2 17 12 17 28 0 16 -6 26 -17 28
-13 3 -17 -4 -17 -28z"/>
<path d="M15240 1850 c0 -20 5 -30 15 -30 10 0 15 10 15 30 0 20 -5 30 -15 30
-10 0 -15 -10 -15 -30z"/>
<path d="M15310 1850 c0 -20 5 -30 15 -30 10 0 15 10 15 30 0 20 -5 30 -15 30
-10 0 -15 -10 -15 -30z"/>
<path d="M15370 1850 c0 -23 4 -30 20 -30 16 0 20 7 20 30 0 23 -4 30 -20 30
-16 0 -20 -7 -20 -30z"/>
<path d="M7040 1799 l-35 -31 32 22 c29 19 50 40 41 40 -2 0 -19 -14 -38 -31z"/>
<path d="M14700 1800 c0 -20 5 -30 15 -30 10 0 15 10 15 30 0 20 -5 30 -15 30
-10 0 -15 -10 -15 -30z"/>
<path d="M14770 1799 c0 -38 24 -35 28 4 2 19 -1 27 -12 27 -11 0 -16 -10 -16
-31z"/>
<path d="M15110 1799 c0 -38 24 -35 28 4 2 19 -1 27 -12 27 -11 0 -16 -10 -16
-31z"/>
<path d="M15172 1803 c4 -39 28 -42 28 -4 0 21 -5 31 -16 31 -11 0 -14 -8 -12
-27z"/>
<path d="M14500 1780 c0 -20 5 -30 15 -30 10 0 15 10 15 30 0 20 -5 30 -15 30
-10 0 -15 -10 -15 -30z"/>
<path d="M14570 1779 c0 -38 24 -35 28 4 2 19 -1 27 -12 27 -11 0 -16 -10 -16
-31z"/>
<path d="M14632 1783 c4 -36 33 -39 33 -3 0 16 -6 26 -18 28 -15 3 -18 -2 -15
-25z"/>
<path d="M15240 1780 c0 -20 5 -30 15 -30 10 0 15 10 15 30 0 20 -5 30 -15 30
-10 0 -15 -10 -15 -30z"/>
<path d="M15310 1780 c0 -20 5 -30 15 -30 10 0 15 10 15 30 0 20 -5 30 -15 30
-10 0 -15 -10 -15 -30z"/>
<path d="M15372 1783 c2 -17 10 -29 21 -31 13 -3 17 3 17 27 0 25 -4 31 -21
31 -16 0 -20 -5 -17 -27z"/>
<path d="M6759 1749 l-24 -20 28 17 c15 9 27 18 27 20 0 8 -8 4 -31 -17z"/>
<path d="M14700 1730 c0 -20 5 -30 15 -30 10 0 15 10 15 30 0 20 -5 30 -15 30
-10 0 -15 -10 -15 -30z"/>
<path d="M14770 1729 c0 -38 24 -35 28 4 2 19 -1 27 -12 27 -11 0 -16 -10 -16
-31z"/>
<path d="M15110 1729 c0 -38 24 -35 28 4 2 19 -1 27 -12 27 -11 0 -16 -10 -16
-31z"/>
<path d="M15172 1733 c4 -39 28 -42 28 -4 0 21 -5 31 -16 31 -11 0 -14 -8 -12
-27z"/>
<path d="M7049 1704 c-13 -19 -84 -85 -156 -145 -73 -61 -133 -113 -133 -115
0 -6 59 41 163 129 31 27 57 44 57 38 0 -7 -26 -51 -58 -99 -69 -103 -75 -112
-69 -112 3 0 42 57 88 128 46 70 95 136 108 148 14 12 25 31 26 42 1 12 1 22
0 22 -2 0 -13 -16 -26 -36z"/>
<path d="M14500 1710 c0 -20 5 -30 15 -30 10 0 15 10 15 30 0 20 -5 30 -15 30
-10 0 -15 -10 -15 -30z"/>
<path d="M14570 1709 c0 -38 24 -35 28 4 2 19 -1 27 -12 27 -11 0 -16 -10 -16
-31z"/>
<path d="M14632 1713 c4 -36 32 -39 32 -3 0 16 -6 26 -18 28 -14 3 -17 -2 -14
-25z"/>
<path d="M15242 1713 c4 -39 28 -42 28 -4 0 21 -5 31 -16 31 -11 0 -14 -8 -12
-27z"/>
<path d="M15310 1710 c0 -20 5 -30 15 -30 10 0 15 10 15 30 0 20 -5 30 -15 30
-10 0 -15 -10 -15 -30z"/>
<path d="M15372 1713 c2 -17 9 -28 18 -28 9 0 16 11 18 28 3 22 -1 27 -18 27
-17 0 -21 -5 -18 -27z"/>
<path d="M6663 1689 c-35 -22 -46 -37 -15 -20 22 13 58 40 52 41 -3 0 -20 -10
-37 -21z"/>
<path d="M14702 1665 c2 -14 8 -26 13 -26 6 0 11 12 13 26 2 18 -1 25 -13 25
-12 0 -15 -7 -13 -25z"/>
<path d="M14770 1659 c0 -38 24 -35 28 4 2 19 -1 27 -12 27 -11 0 -16 -10 -16
-31z"/>
<path d="M15110 1659 c0 -38 24 -35 28 4 2 19 -1 27 -12 27 -11 0 -16 -10 -16
-31z"/>
<path d="M15172 1663 c4 -37 25 -40 30 -3 4 24 1 30 -14 30 -15 0 -19 -6 -16
-27z"/>
<path d="M14570 1610 c0 -45 4 -60 14 -60 10 0 14 15 14 60 0 45 -4 60 -14 60
-10 0 -14 -15 -14 -60z"/>
<path d="M14632 1610 c0 -51 3 -61 16 -58 23 4 22 112 -1 116 -12 3 -15 -8
-15 -58z"/>
<path d="M15242 1610 c0 -45 4 -60 14 -60 10 0 14 15 14 60 0 45 -4 60 -14 60
-10 0 -14 -15 -14 -60z"/>
<path d="M15311 1610 c1 -43 4 -60 14 -60 10 0 13 17 14 60 0 45 -4 60 -14 60
-10 0 -14 -15 -14 -60z"/>
<path d="M15372 1610 c0 -51 3 -60 18 -60 15 0 18 9 18 60 0 51 -3 60 -18 60
-15 0 -18 -9 -18 -60z"/>
<path d="M6537 1606 c-73 -50 -110 -80 -77 -61 34 19 160 106 160 110 0 7 1 8
-83 -49z"/>
<path d="M14700 1595 c0 -16 6 -25 15 -25 9 0 15 9 15 25 0 16 -6 25 -15 25
-9 0 -15 -9 -15 -25z"/>
<path d="M14770 1595 c0 -16 6 -25 15 -25 9 0 15 9 15 25 0 16 -6 25 -15 25
-9 0 -15 -9 -15 -25z"/>
<path d="M15110 1595 c0 -16 6 -25 15 -25 9 0 15 9 15 25 0 16 -6 25 -15 25
-9 0 -15 -9 -15 -25z"/>
<path d="M15170 1595 c0 -15 6 -25 14 -25 7 0 16 11 18 25 4 19 1 25 -13 25
-14 0 -19 -7 -19 -25z"/>
<path d="M6643 1504 c-40 -30 -73 -57 -73 -60 0 -2 34 21 75 52 65 49 83 65
73 64 -2 0 -36 -25 -75 -56z"/>
<path d="M14706 1553 c-12 -13 -6 -53 9 -53 9 0 15 9 15 24 0 26 -12 40 -24
29z"/>
<path d="M14770 1531 c0 -21 5 -31 16 -31 11 0 14 8 12 27 -4 39 -28 42 -28 4z"/>
<path d="M15110 1531 c0 -21 5 -31 16 -31 11 0 14 8 12 27 -4 39 -28 42 -28 4z"/>
<path d="M15177 1553 c-13 -13 -7 -53 8 -53 10 0 15 10 15 30 0 29 -9 38 -23
23z"/>
<path d="M6409 1519 c-23 -19 -23 -20 -2 -10 12 6 25 16 28 21 10 16 -1 12
-26 -11z"/>
<path d="M14637 1534 c-4 -4 -7 -18 -7 -31 0 -18 5 -24 17 -21 11 2 17 12 17
27 0 25 -14 37 -27 25z"/>
<path d="M15247 1533 c-13 -13 -7 -53 8 -53 10 0 15 10 15 30 0 29 -9 38 -23
23z"/>
<path d="M15310 1510 c0 -20 5 -30 15 -30 10 0 15 10 15 30 0 20 -5 30 -15 30
-10 0 -15 -10 -15 -30z"/>
<path d="M15377 1534 c-4 -4 -7 -18 -7 -31 0 -17 6 -23 21 -23 16 0 20 5 17
27 -3 26 -18 39 -31 27z"/>
<path d="M14700 1460 c0 -20 5 -30 15 -30 10 0 15 10 15 30 0 20 -5 30 -15 30
-10 0 -15 -10 -15 -30z"/>
<path d="M14770 1461 c0 -21 5 -31 16 -31 11 0 14 8 12 27 -4 39 -28 42 -28 4z"/>
<path d="M15110 1461 c0 -21 5 -31 16 -31 11 0 14 8 12 27 -4 39 -28 42 -28 4z"/>
<path d="M15177 1483 c-13 -13 -7 -53 8 -53 10 0 15 10 15 30 0 29 -9 38 -23
23z"/>
<path d="M6319 1459 l-24 -20 28 17 c15 9 27 18 27 20 0 8 -8 4 -31 -17z"/>
<path d="M15247 1463 c-13 -13 -7 -53 8 -53 10 0 15 10 15 30 0 29 -9 38 -23
23z"/>
<path d="M15317 1463 c-13 -13 -7 -53 8 -53 10 0 15 10 15 30 0 29 -9 38 -23
23z"/>
<path d="M15377 1464 c-4 -4 -7 -18 -7 -31 0 -17 6 -23 21 -23 16 0 20 5 17
27 -3 26 -18 39 -31 27z"/>
<path d="M6247 1415 c-20 -14 -37 -28 -37 -31 0 -2 18 8 40 22 35 23 47 34 37
34 -1 0 -19 -11 -40 -25z"/>
<path d="M6494 1394 c-32 -25 -63 -50 -69 -56 -13 -14 70 44 110 77 52 43 21
27 -41 -21z"/>
<path d="M14700 1390 c0 -20 5 -30 15 -30 10 0 15 10 15 30 0 20 -5 30 -15 30
-10 0 -15 -10 -15 -30z"/>
<path d="M14770 1390 c0 -20 5 -30 15 -30 10 0 15 10 15 30 0 20 -5 30 -15 30
-10 0 -15 -10 -15 -30z"/>
<path d="M15110 1390 c0 -20 5 -30 15 -30 10 0 15 10 15 30 0 20 -5 30 -15 30
-10 0 -15 -10 -15 -30z"/>
<path d="M15170 1391 c0 -21 5 -31 15 -31 8 0 15 9 15 20 0 11 0 23 1 28 0 4
-7 8 -15 10 -12 3 -16 -5 -16 -27z"/>
<path d="M15247 1393 c-13 -13 -7 -53 8 -53 10 0 15 10 15 30 0 29 -9 38 -23
23z"/>
<path d="M15310 1370 c0 -20 5 -30 15 -30 10 0 15 10 15 30 0 20 -5 30 -15 30
-10 0 -15 -10 -15 -30z"/>
<path d="M15377 1394 c-4 -4 -7 -18 -7 -31 0 -17 6 -23 21 -23 16 0 20 5 17
27 -3 26 -18 39 -31 27z"/>
<path d="M14770 1320 c0 -20 5 -30 15 -30 10 0 15 10 15 30 0 20 -5 30 -15 30
-10 0 -15 -10 -15 -30z"/>
<path d="M15110 1321 c0 -21 5 -31 16 -31 11 0 14 8 12 27 -4 39 -28 42 -28 4z"/>
<path d="M15177 1344 c-4 -4 -7 -18 -7 -31 0 -18 5 -24 17 -21 11 2 17 12 17
27 0 25 -14 37 -27 25z"/>
<path d="M6370 1299 l-35 -31 32 22 c29 19 50 40 41 40 -2 0 -19 -14 -38 -31z"/>
<path d="M15240 1300 c0 -20 5 -30 15 -30 10 0 15 10 15 30 0 20 -5 30 -15 30
-10 0 -15 -10 -15 -30z"/>
<path d="M15310 1300 c0 -20 5 -30 15 -30 10 0 15 10 15 30 0 20 -5 30 -15 30
-10 0 -15 -10 -15 -30z"/>
<path d="M15372 1303 c2 -17 9 -28 18 -28 9 0 16 11 18 28 3 22 -1 27 -18 27
-17 0 -21 -5 -18 -27z"/>
<path d="M14770 1249 c0 -38 24 -35 28 4 2 19 -1 27 -12 27 -11 0 -16 -10 -16
-31z"/>
<path d="M15110 1249 c0 -38 24 -35 28 4 2 19 -1 27 -12 27 -11 0 -16 -10 -16
-31z"/>
<path d="M15172 1253 c4 -39 28 -42 28 -4 0 21 -5 31 -16 31 -11 0 -14 -8 -12
-27z"/>
<path d="M15240 1230 c0 -20 5 -30 15 -30 10 0 15 10 15 30 0 20 -5 30 -15 30
-10 0 -15 -10 -15 -30z"/>
<path d="M15310 1230 c0 -20 5 -30 15 -30 10 0 15 10 15 30 0 20 -5 30 -15 30
-10 0 -15 -10 -15 -30z"/>
<path d="M15372 1233 c2 -17 9 -28 18 -28 9 0 16 11 18 28 3 22 -1 27 -18 27
-17 0 -21 -5 -18 -27z"/>
<path d="M14770 1179 c0 -38 24 -35 28 4 2 19 -1 27 -12 27 -11 0 -16 -10 -16
-31z"/>
<path d="M15110 1179 c0 -38 24 -35 28 4 2 19 -1 27 -12 27 -11 0 -16 -10 -16
-31z"/>
<path d="M15172 1183 c4 -39 28 -42 28 -4 0 21 -5 31 -16 31 -11 0 -14 -8 -12
-27z"/>
<path d="M15242 1163 c4 -39 28 -42 28 -4 0 21 -5 31 -16 31 -11 0 -14 -8 -12
-27z"/>
<path d="M15310 1160 c0 -20 5 -30 15 -30 10 0 15 10 15 30 0 20 -5 30 -15 30
-10 0 -15 -10 -15 -30z"/>
<path d="M15372 1163 c2 -17 9 -28 18 -28 9 0 16 11 18 28 3 22 -1 27 -18 27
-17 0 -21 -5 -18 -27z"/>
<path d="M14770 1109 c0 -38 24 -35 28 4 2 19 -1 27 -12 27 -11 0 -16 -10 -16
-31z"/>
<path d="M15110 1109 c0 -38 24 -35 28 4 2 19 -1 27 -12 27 -11 0 -16 -10 -16
-31z"/>
<path d="M15172 1113 c4 -39 28 -42 28 -4 0 21 -5 31 -16 31 -11 0 -14 -8 -12
-27z"/>
<path d="M15240 1090 c0 -20 5 -30 15 -30 10 0 15 10 15 30 0 20 -5 30 -15 30
-10 0 -15 -10 -15 -30z"/>
<path d="M15310 1090 c0 -20 5 -30 15 -30 10 0 15 10 15 30 0 20 -5 30 -15 30
-10 0 -15 -10 -15 -30z"/>
<path d="M15372 1093 c2 -17 9 -28 18 -28 9 0 16 11 18 28 3 22 -1 27 -18 27
-17 0 -21 -5 -18 -27z"/>
<path d="M14770 1045 c0 -16 6 -25 15 -25 9 0 15 9 15 25 0 16 -6 25 -15 25
-9 0 -15 -9 -15 -25z"/>
<path d="M15110 1045 c0 -16 6 -25 15 -25 9 0 15 9 15 25 0 16 -6 25 -15 25
-9 0 -15 -9 -15 -25z"/>
<path d="M15170 1045 c0 -15 6 -25 14 -25 7 0 16 11 18 25 4 19 1 25 -13 25
-14 0 -19 -7 -19 -25z"/>
<path d="M15242 990 c0 -45 4 -60 14 -60 10 0 14 15 14 60 0 45 -4 60 -14 60
-10 0 -14 -15 -14 -60z"/>
<path d="M15311 990 c0 -45 4 -60 14 -60 10 0 14 15 14 60 -1 43 -4 60 -14 60
-10 0 -13 -17 -14 -60z"/>
<path d="M15372 990 c0 -51 3 -60 18 -60 15 0 18 9 18 60 0 51 -3 60 -18 60
-15 0 -18 -9 -18 -60z"/>
<path d="M14770 975 c0 -16 6 -25 15 -25 9 0 15 9 15 25 0 16 -6 25 -15 25 -9
0 -15 -9 -15 -25z"/>
<path d="M15110 975 c0 -16 6 -25 15 -25 9 0 15 9 15 25 0 16 -6 25 -15 25 -9
0 -15 -9 -15 -25z"/>
<path d="M15170 975 c0 -15 6 -25 14 -25 7 0 16 11 18 25 4 19 1 25 -13 25
-14 0 -19 -7 -19 -25z"/>
<path d="M14770 911 c0 -21 5 -31 16 -31 11 0 14 8 12 27 -4 39 -28 42 -28 4z"/>
<path d="M15110 911 c0 -21 5 -31 16 -31 11 0 14 8 12 27 -4 39 -28 42 -28 4z"/>
<path d="M15177 934 c-13 -14 -7 -54 8 -54 8 0 15 9 15 20 0 11 0 23 1 27 1
10 -16 15 -24 7z"/>
<path d="M15247 913 c-13 -13 -7 -53 8 -53 10 0 15 10 15 30 0 29 -9 38 -23
23z"/>
<path d="M15310 890 c0 -20 5 -30 15 -30 10 0 15 10 15 30 0 20 -5 30 -15 30
-10 0 -15 -10 -15 -30z"/>
<path d="M15377 914 c-4 -4 -7 -18 -7 -31 0 -17 6 -23 21 -23 16 0 20 5 17 27
-3 26 -18 39 -31 27z"/>
<path d="M14770 840 c0 -20 5 -30 15 -30 10 0 15 10 15 30 0 20 -5 30 -15 30
-10 0 -15 -10 -15 -30z"/>
<path d="M15110 839 c0 -38 24 -35 28 4 2 19 -1 27 -12 27 -11 0 -16 -10 -16
-31z"/>
<path d="M15172 843 c4 -39 28 -42 28 -4 0 21 -5 31 -16 31 -11 0 -14 -8 -12
-27z"/>
<path d="M15240 820 c0 -20 5 -30 15 -30 10 0 15 10 15 30 0 20 -5 30 -15 30
-10 0 -15 -10 -15 -30z"/>
<path d="M15310 820 c0 -20 5 -30 15 -30 10 0 15 10 15 30 0 20 -5 30 -15 30
-10 0 -15 -10 -15 -30z"/>
<path d="M15377 843 c-4 -3 -7 -17 -7 -30 0 -16 6 -23 20 -23 16 0 20 7 20 30
0 28 -17 40 -33 23z"/>
<path d="M14770 770 c0 -20 5 -30 15 -30 10 0 15 10 15 30 0 20 -5 30 -15 30
-10 0 -15 -10 -15 -30z"/>
<path d="M15110 770 c0 -20 5 -30 15 -30 10 0 15 10 15 30 0 20 -5 30 -15 30
-10 0 -15 -10 -15 -30z"/>
<path d="M15170 770 c0 -20 5 -30 15 -30 10 0 15 10 15 30 0 20 -5 30 -15 30
-10 0 -15 -10 -15 -30z"/>
<path d="M15240 750 c0 -20 5 -30 15 -30 10 0 15 10 15 30 0 20 -5 30 -15 30
-10 0 -15 -10 -15 -30z"/>
<path d="M15310 750 c0 -20 5 -30 15 -30 10 0 15 10 15 30 0 20 -5 30 -15 30
-10 0 -15 -10 -15 -30z"/>
<path d="M15372 753 c2 -17 10 -29 21 -31 13 -3 17 3 17 27 0 25 -4 31 -21 31
-16 0 -20 -5 -17 -27z"/>
<path d="M14770 700 c0 -20 5 -30 15 -30 10 0 15 10 15 30 0 20 -5 30 -15 30
-10 0 -15 -10 -15 -30z"/>
<path d="M15172 703 c4 -39 28 -42 28 -4 0 21 -5 31 -16 31 -11 0 -14 -8 -12
-27z"/>
<path d="M15240 680 c0 -20 5 -30 15 -30 10 0 15 10 15 30 0 20 -5 30 -15 30
-10 0 -15 -10 -15 -30z"/>
<path d="M15310 680 c0 -20 5 -30 15 -30 10 0 15 10 15 30 0 20 -5 30 -15 30
-10 0 -15 -10 -15 -30z"/>
<path d="M15372 683 c2 -17 9 -28 18 -28 9 0 16 11 18 28 3 22 -1 27 -18 27
-17 0 -21 -5 -18 -27z"/>
<path d="M14770 629 c0 -38 24 -35 28 4 2 19 -1 27 -12 27 -11 0 -16 -10 -16
-31z"/>
<path d="M15172 633 c4 -39 28 -42 28 -4 0 21 -5 31 -16 31 -11 0 -14 -8 -12
-27z"/>
</g>
</svg>
