<svg xmlns="http://www.w3.org/2000/svg" viewBox="0 0 35 35"><path d="M27.708,0H7.292A7.292,7.292,0,0,0,0,7.292V27.708A7.292,7.292,0,0,0,7.292,35H27.708A7.292,7.292,0,0,0,35,27.708V7.292A7.292,7.292,0,0,0,27.708,0ZM21.2,28.569c-.591.114-.779-.249-.779-.56v-3.2a2.78,2.78,0,0,0-.8-2.16c2.6-.289,5.329-1.276,5.329-5.756a4.513,4.513,0,0,0-1.2-3.131,4.2,4.2,0,0,0-.115-3.087s-.979-.314-3.205,1.2a11.037,11.037,0,0,0-5.844,0c-2.228-1.509-3.208-1.2-3.208-1.2a4.2,4.2,0,0,0-.112,3.089,4.51,4.51,0,0,0-1.2,3.131c0,4.468,2.723,5.47,5.316,5.766a2.483,2.483,0,0,0-.741,1.56,2.485,2.485,0,0,1-3.4-.971,2.455,2.455,0,0,0-1.789-1.2s-1.137-.015-.08.71a3.089,3.089,0,0,1,1.3,1.706s.675,2.082,3.92,1.377v2.171c0,.308-.188.669-.77.561a11.662,11.662,0,1,1,7.382,0Z" fill="#fff"/></svg>