<svg xmlns="http://www.w3.org/2000/svg" viewBox="0 0 26.728 24.728"><path d="M24.5,10.3H23.387V8.243H11.137V21.637H16.7V23.3a1.75,1.75,0,0,0,.559,1.425H11.693a1.745,1.745,0,0,1-1.182-.452,1.492,1.492,0,0,1-.489-1.093V7.727a1.492,1.492,0,0,1,.489-1.093,1.745,1.745,0,0,1,1.182-.452H22.83a1.745,1.745,0,0,1,1.182.452A1.492,1.492,0,0,1,24.5,7.727Zm2.227,2.318a1.344,1.344,0,0,0-1.392-1.288H19.211a1.344,1.344,0,0,0-1.392,1.288V23.44a1.344,1.344,0,0,0,1.392,1.288h6.125a1.344,1.344,0,0,0,1.392-1.288ZM9.57,24.728H2.227l2.894-3.091H8.909V23.5A1.414,1.414,0,0,0,9.57,24.728Zm12.7-1.03a1.033,1.033,0,1,1,1.113-1.03A1.074,1.074,0,0,1,22.273,23.7Zm3.341-3.091V14.4H18.932v6.207ZM23.387,5.152H21.16V2.061H2.227V17.516H8.909v2.061H0V0H23.387Zm-.557,7.212H21.716a.517.517,0,1,0,0,1.03H22.83a.517.517,0,1,0,0-1.03Z" fill="#fff" fill-rule="evenodd"/></svg>