<svg xmlns="http://www.w3.org/2000/svg" width="22.718" height="17.015" viewBox="0 0 22.718 17.015"><g transform="translate(0 -64.267)"><path d="M2.091,68.45H20.627a2.091,2.091,0,0,0,0-4.183H2.091a2.091,2.091,0,0,0,0,4.183Zm0-2.852H20.627a.76.76,0,0,1,0,1.52H2.091a.76.76,0,0,1,0-1.52Z" transform="translate(0 0)" fill="#fff"/><path d="M20.627,208.867H2.091a2.091,2.091,0,0,0,0,4.183H20.627a2.091,2.091,0,0,0,0-4.183Zm0,2.852H2.091a.76.76,0,0,1,0-1.52H20.627a.76.76,0,0,1,0,1.52Z" transform="translate(0 -138.184)" fill="#fff"/><path d="M20.627,353.467H2.091a2.091,2.091,0,0,0,0,4.183H20.627a2.091,2.091,0,0,0,0-4.183Zm0,2.852H2.091a.76.76,0,0,1,0-1.52H20.627a.76.76,0,0,1,0,1.52Z" transform="translate(0 -276.368)" fill="#fff"/></g></svg>